<svg xmlns="http://www.w3.org/2000/svg" viewBox="0 0 1598.13 1635.43"><defs><style>.cls-1{fill:#00b6bc;}.cls-2{fill:#010000;}.cls-3{fill:#efebe0;}</style></defs><g id="Layer_2" data-name="Layer 2"><g id="Layer_1-2" data-name="Layer 1"><path class="cls-1" d="M1043.51,1234.09c4.51,10,9.19,20.24,13.8,30.53q30.57,68.42,61.12,136.84c1.09,2.43,2.2,4.86,3.21,7.32,3.93,9.52,3.92,9.54-4.91,16.19-4.26,3.21-8.72,6.17-12.77,9.62-9.15,7.78-18,15.89-24.37,26.27-14.21,23.16-7.09,40.12,19.44,45.36,18.07,3.57,36,.52,53.43-3.89a244.46,244.46,0,0,0,86.33-40.49c12.35-9.15,23.82-19.4,31.75-32.87,13.19-22.42,6-38.78-19.63-44-12.5-2.53-25.17-1.78-37.75.59-8.39,1.58-16.88,2.67-25.33,4-6.42-6.33-8.16-15.1-11.67-22.89q-36.59-81-72.74-162.3a68.13,68.13,0,0,0-3.32-7.26c-3-5-1.44-8.83,2.58-12.26,11.68-10,22.13-21.17,32.5-32.48,30.86-33.68,55.88-71.24,75.91-112.21,2-4.19,4-8.43,6.14-12.57,1.86-3.58,4.92-4.1,8.42-2.72,1.85.74,3.61,1.71,5.41,2.58q92.52,45.1,185,90.24c3,1.45,5.93,3,8.75,4.76a5.92,5.92,0,0,1,2.71,6.86c-1.38,5.83-2.78,11.65-4.36,17.43-3.4,12.41-3.34,25.07-2.62,37.72a45.42,45.42,0,0,0,2.91,13.56c5.85,15.32,16.32,20,31.76,14.74,11-3.72,19.91-10.65,28.1-18.59,18.43-17.88,31.78-39.29,42.93-62.2a228.12,228.12,0,0,0,21-70.51,68.25,68.25,0,0,0-3.83-33.42c-5.13-13.62-16.94-18.73-30.7-14.07-9,3-16.69,8.22-23.69,14.53a174.84,174.84,0,0,0-26.52,29.82c-2.64,3.79-5.79,5.22-10.17,2.93-3-1.54-6-2.91-9-4.37l-183.26-89.29c-3.6-1.75-7.18-3.52-10.71-5.4-3.89-2.08-6-5.25-5.14-9.79.7-3.93,1.4-7.87,2.38-11.73,9.08-35.75,11.33-72.33,12.71-108.94.42-11.26-1.44-22.59-1.89-33.91-.32-8,1.56-9.75,9.15-9.29q31.92,2,63.82,4.2c28.56,2,57.11,4.34,85.68,6.31,24.6,1.69,49.21,3,73.81,4.61,9.84.64,9.81.77,12.08,11.88s4.2,22.25,7,33.2,7.63,21.37,15.3,30c10.22,11.51,23.44,12.64,35.48,2.94,7.94-6.39,13-15,17.69-23.94,10.64-20.41,16-42.54,18.35-65,3.05-28.49,3.93-57.27-3.09-85.49a210.52,210.52,0,0,0-8.94-26.42,48.64,48.64,0,0,0-7.23-11.9c-12.4-15.72-26.62-16.6-40.74-2.54-8.65,8.61-14.55,19.12-18.69,30.45-3.64,10-6.28,20.33-9.48,30.48-1.77,5.63-4.32,7.51-10.36,7.07-23.92-1.71-47.81-3.66-71.73-5.37q-34.87-2.52-69.78-4.73c-30.59-1.88-61.2-3.55-91.79-5.34-4-.24-8-.52-11.94-1-3.49-.46-6.2-2.21-7.46-5.72-.9-2.51-2-5-2.65-7.54-6.24-24.62-15.41-48.18-25.7-71.34-4.85-10.9-4.78-11.32,4.76-17.73q59.76-40.11,119.66-80,44.05-29.43,88.15-58.79c4.36-2.9,8.32-6.66,14.42-7.3,6.17,5.82,12.29,11.94,18.77,17.64,11.08,9.74,23,18.21,37.51,22.19,17.7,4.85,30.5-3.36,33-21.5,1.94-14.18-.62-28-5.16-41.32-14.33-41.91-38.2-77.53-72-106.23-9.7-8.22-20.37-15-32.85-18.5-18.72-5.25-31.74,3.33-33.72,22.59-1.68,16.3,2.39,31.69,7.57,47,2.32,6.85,8.73,13.65,6.45,20.37-2.55,7.49-11.79,10.17-18.35,14.56q-95.52,64-191.18,127.72c-3.88,2.58-7.78,5.14-11.77,7.56-2.68,1.64-5.14.63-7-1.49-2.2-2.5-4.21-5.16-6.16-7.86a476.55,476.55,0,0,0-88-92.41c-2-1.63-3.63-3.76-6.12-6.38,9.29-14.86,18.38-29.51,27.59-44.09q56.07-88.71,112.22-177.39c7.79-12.28,7.5-16.24,25.19-9.06a73.62,73.62,0,0,0,35.3,5.07c14.62-1.45,21.43-10.91,17.7-24.92a54.37,54.37,0,0,0-11.27-21c-26.64-31.68-59.87-52.4-100.78-60.43a40.23,40.23,0,0,0-23.44,2.6c-5.39,2.17-8.3,6.49-8.9,12.27a32.33,32.33,0,0,0,3.81,19.28A96.47,96.47,0,0,0,1167,176.53c4.14,4.29,8.25,8.61,12.68,13.23-2.45,4.42-4.5,8.58-7,12.47q-66.13,104.84-132.37,209.59c-1.78,2.82-3.61,5.62-5.65,8.24-2.33,3-5.31,3.67-8.73,1.69-2.31-1.33-4.7-2.53-7-3.86-52.55-30.46-109.3-48.67-169.09-58-2.63-.41-5.32-.51-7.92-1-4.1-.84-5.21-3.8-4.31-7.45,1.42-5.81,3.09-11.57,4.78-17.32q28.1-95.83,56.25-191.65,4.23-14.37,8.62-28.69c1.32-4.28,4.15-6.42,8.85-6.32,12,.27,24,.35,36,.47a66.11,66.11,0,0,0,25.31-5.24c19.37-7.78,24.12-22.53,13-39.86a73.22,73.22,0,0,0-16.23-17.52c-19.53-15.7-41.91-25.85-65.5-33.41S860.94-.37,836.05,0C823.3.23,810.76,2.24,799.17,7.8c-16.47,7.91-20.32,22.31-10.52,38.05,8.36,13.45,21.16,21.88,34.1,30.22,6.68,4.3,16.78,5.46,19.8,12.53,3.36,7.85-2.48,16.52-4.86,24.68Q805.11,225.5,772.35,337.65c-.19.64-.29,1.31-.53,1.93-5.54,14.57-1.19,15.29-19.94,16.4a453.55,453.55,0,0,0-117.34,22.64c-5,1.68-10.09,3.45-15.25,4.71a5.93,5.93,0,0,1-6.81-2.94c-1.64-2.89-3.26-5.8-4.72-8.79Q554.84,262.88,502,154.13c-6.22-12.79-6.25-13,4.45-21.07a160.55,160.55,0,0,0,25-22.93c6.6-7.56,12.24-15.77,14.94-25.7,3.29-12.16-1.33-22.72-12.79-28-11.92-5.52-24.73-6.09-37.29-4.2-50.14,7.57-94.19,28-130.62,63.78-7.17,7.05-13.28,14.91-17.32,24.25-7.92,18.32-2.07,31.22,17.2,36.92,12.41,3.68,25.1,2.81,37.64.7,7.86-1.33,15.57-3.53,23.35-5.29,7.61-1.73,9.7-1,13,5.35,4.31,8.27,8.29,16.71,12.36,25.1q46.67,96.21,93.31,192.42c2,4.2,4.07,8.4,6,12.62,1.68,3.6.55,6.39-2.65,8.47-1.68,1.08-3.39,2.11-5.12,3.12a486.86,486.86,0,0,0-108.14,84.9c-6.33,6.63-6.57,6.71-15.38,2.79q-69.39-30.87-138.68-61.92c-28-12.51-56-25-83.87-37.64-10.82-4.91-11.18-5.24-8.48-16.34a162.86,162.86,0,0,0,4.23-45.6c-.31-7.48-1.87-14.58-5.54-21.06-6.34-11.18-16.54-14.76-28.89-10.39-12.94,4.59-23.32,13-32.09,23.14-32.74,38-51.36,82.11-56.83,131.88-1.11,10.15.69,20,3.62,29.59,5.12,16.64,18.42,22.66,34.63,15.79,13.83-5.87,24.33-16.2,33.7-27.63,5.89-7.17,11.3-14.73,16.38-21.4,4.64-1.15,7.54.8,10.49,2.11q101.23,45.3,202.42,90.72c3,1.37,6.09,2.71,9,4.27,4.79,2.56,5.34,4.62,2.58,9.58-1.62,2.9-3.5,5.66-5.23,8.51-25.46,41.81-45,86.15-56.79,133.75-.8,3.23-1.73,6.42-2.64,9.62-1.23,4.29-4,6.54-8.54,7-7.94.87-15.83,2.22-23.77,3.09-41.7,4.57-83.42,9-125.12,13.6-15.88,1.76-31.7,4-47.56,6-5.29.65-10.61,1.19-15.92,1.41-7.84.31-9.3-.71-11.86-7.7-1.6-4.37-2.88-8.87-4.44-13.26-3.83-10.71-8.62-21-15.44-30.13a72.76,72.76,0,0,0-10.5-12c-12.91-11-25.81-9.82-36.57,3.07A46.88,46.88,0,0,0,8.85,712.9c-2.84,10.24-6.44,20.51-7.43,31C-2.06,780.73.5,817.11,13.16,852.3c4.07,11.32,9,22.24,15.89,32.15,4.23,6.06,9,11.59,15.29,15.62,9.84,6.33,20.81,5.18,29.26-2.86,6.46-6.15,10.27-14,13.1-22.17,3.24-9.44,5.8-19.08,6.57-29.15.46-6,1.49-11.88,2.48-17.79a6.21,6.21,0,0,1,5.19-5.33c5.23-1,10.44-2.15,15.72-2.77q67.46-7.85,134.94-15.48c15.22-1.72,30.45-3.38,45.7-4.71,6.37-.55,8.25,1.56,8.46,8,.11,3.33-.08,6.67-.16,10A477.86,477.86,0,0,0,350.34,1033c8.71,18.77,10,16.93-9.47,25.58q-84,37.41-168,74.59c-1.82.81-3.66,1.6-5.47,2.46-15.59,7.44-16.29,5.63-24.32-6.08a149.25,149.25,0,0,0-24-26.71,61.9,61.9,0,0,0-22.16-13.22c-11.53-3.75-21.14-.08-27.21,10.44a42.61,42.61,0,0,0-5.56,19c-.88,15.36-.4,30.57,3.15,45.67a249.53,249.53,0,0,0,41.17,90.3,143.81,143.81,0,0,0,24.52,26.22c6.19,5.16,13,9.22,21,11.13,10.95,2.6,20.08-.75,25.73-10.13a40.82,40.82,0,0,0,5.7-19c.86-14.7,1-29.38-2.69-43.73-4.78-18.72-1.24-17.25,12.57-23.54,27.88-12.7,56-24.93,84-37.36q50.24-22.29,100.46-44.58c1.22-.54,2.37-1.23,3.59-1.76,10.09-4.34,10.09-4.33,16.57,3.65,8,9.82,15.85,19.74,24,29.44,26.76,31.9,58.16,58.58,92.46,82,3.3,2.25,6.69,4.37,10,6.69,7.91,5.6,8.23,6.45,4.58,14.53-3.29,7.28-6.77,14.48-10.29,21.66q-40.47,82.55-81,165.07c-1.46,3-3,6-4.48,8.94-2.32,4.66-5.22,7-11.09,5.14-13.38-4.17-27.09-7.07-41.24-6.76-6,.12-12.07,0-17.94,1-21,3.49-29.1,18.93-20.33,38.17a82.4,82.4,0,0,0,18.77,25.68Q414,1555.38,482.76,1568c12.48,2.28,25,4.5,37.55.32,3.77-1.25,7.72-2.25,11.17-4.13,9.88-5.38,13.6-14.39,11-25.21s-8.58-19.46-15.67-27.51a172.87,172.87,0,0,0-28.18-25.37c-6.48-4.72-6.52-5.65-2.93-13.32q8-17.21,16.43-34.23Q549.52,1362.24,587,1286c1.47-3,2.89-6,4.52-8.91,3.14-5.56,5.08-6.4,11.35-3.9a512.08,512.08,0,0,0,58.71,19.56,467.38,467.38,0,0,0,88.5,14.73c1.33.09,2.67.07,4,.2,7.94.79,9.37,2,10.26,9.38,2.77,23.14,5.42,46.29,8.13,69.44,3.64,31.08,7.38,62.14,10.91,93.24,2.11,18.52,4.13,37.07,5.76,55.64.92,10.56.27,11.56-9.16,14.65a195.88,195.88,0,0,0-33.05,14c-7.66,4.19-14.7,9.25-20.34,16-10.37,12.35-8.9,26.67,3.65,36.74,9.62,7.72,21,11.56,32.79,14,18.32,3.85,36.93,5.59,55.65,4.07,24.64-2,49-5.83,72-15.21a226.2,226.2,0,0,0,26.79-13.29,47.27,47.27,0,0,0,17.13-16.5c6.61-10.87,4.92-22.21-4.62-30.64-6.59-5.82-14.45-9.42-22.79-12.07a167.74,167.74,0,0,0-41.13-7.63c-8.28-.49-8.56-.84-9.8-9.57-2.42-17.14-4.76-34.29-6.73-51.49q-9.19-80.38-18.1-160.79c-.22-2-.69-4-.79-5.94a5.89,5.89,0,0,1,4.22-6,34.71,34.71,0,0,1,7.84-1.38c64.64-6.92,124.3-28.57,180.33-61,5.18-3,10.38-6,15.66-8.79C1039.78,1234,1041.27,1234.29,1043.51,1234.09Z"/><path class="cls-2" d="M699.41,745c-2.25,4.09-5.12,8.37-7.07,13-7,16.8-5.21,32.56,7,46.42a40.78,40.78,0,0,0,45.37,11.49c17.23-6.36,26.71-18.87,28.39-37.26.41-4.54-1.28-9.29,1.68-14.47,8.35-.89,16.12,3.44,24.29,5.18,5.31,1.14,10.38,2.27,15.57,0,7.86-3.43,13.15-9,14.05-17.81,1-9.66-3.23-16.84-11.56-21.37-3.44-1.86-7.43-2.78-11.26-3.82q-59.6-16.2-119.21-32.3a54.55,54.55,0,0,0-7.71-2c-11.27-1.3-21,5.47-24,16.53-2.63,9.66,2.25,20.06,12.42,24.37,6.67,2.82,13.9,4.38,20.91,6.37C692.09,740.45,696.26,740.58,699.41,745Z"/><path class="cls-2" d="M1068.18,688.36c6.11-8.33,14.63-12.58,21.32-18.8,3.88-3.61,8.41-6.65,11.77-10.68,6.5-7.8,5.88-20.2-.73-27.55s-16.33-9.49-25.33-4.72a77.84,77.84,0,0,0-11.39,8q-45.37,35.92-90.64,72a95,95,0,0,0-10.58,9.1c-7.44,8-8,19.05-1.91,27.4,6.59,9,18.29,11.32,28.46,5.77,5.8-3.17,9.92-9,17.72-11,8,20.78,22.11,34.76,45.87,32.93,18-1.39,30.91-11.39,36.92-29C1097.6,718.44,1086,702.39,1068.18,688.36Z"/><path class="cls-3" d="M1004.83,895.39c16.35,23.39,35.22,44.75,53.76,66.37.67.79,2.4.66,3.65,1,7.19-15.13,24.34-74.78,26.09-90.91-5.71-3.34-11.65-.65-17.26.06-20.4,2.55-40.71,5.74-61,8.83-1.87.28-3.59,1.57-5.38,2.4C1001.46,887.24,1001.81,891.33,1004.83,895.39Z"/><path class="cls-3" d="M1004.83,895.39l-.18-12.29c-26.39,1.29-52.2,7-78.33,10.31-1.9.24-3.69,1.38-5.53,2.1-1.8,3.58-10.6.19-8,8.1,17.35,25.82,38,49.06,57.52,75,7.43-9.6,6.44-20,9.13-29,3-10.13,4.41-20.73,6.72-31.07,2.17-9.69,4.62-19.32,6.9-28.76C999.42,887.23,1000.54,894.46,1004.83,895.39Z"/><path class="cls-3" d="M912.74,903.61l8-8.1c-15.7,1.89-31.53,3-47,5.9-11,2-22.6.77-33,6.08-2.2,3.55-11.23.62-8.45,8.9,5.33,10.84,14.26,19,21.58,28.28,11.79,15,24.22,29.46,37,44.85,5.4-6.52,4.92-13.2,5.74-19.5,2.82-21.62,5.49-43.26,8.58-64.85C906,899.42,910,903.14,912.74,903.61Z"/><path class="cls-3" d="M832.34,916.39q4.23-4.44,8.45-8.9c-16.64.09-32.9,3.47-49.19,6.22-12.25,2.07-25.1,1.46-36.75,7,6.4,16,37,67.83,48.32,81.41,2.79-6.46,4.09-12.57,5.4-18.7q6.24-29.13,12.6-58.25c.56-2.58,1.35-5.12,2.15-7.64C825.5,910.58,829.13,915.11,832.34,916.39Z"/></g></g></svg>