<svg xmlns="http://www.w3.org/2000/svg" viewBox="0 0 5081.48 3457.13"><defs><style>.cls-1{fill:#00b6bc;}.cls-2{fill:#a1dbf1;}.cls-3{fill:#e4f4f3;}.cls-4{fill:#71d5e4;}.cls-5{fill:#5287d7;}.cls-6{fill:#54b7bc;}.cls-7{fill:#fa9746;}.cls-8{fill:#efebe0;}.cls-9{fill:#fae8e0;}.cls-10{fill:#cccfdc;}.cls-11{fill:#ed975e;}.cls-12{fill:#010000;}.cls-13{fill:#3e7bd7;}.cls-14{fill:#040202;}.cls-15{fill:#040101;}.cls-16{fill:#689ff1;}.cls-17{fill:#0f0606;}.cls-18{fill:#140808;}.cls-19{fill:#fbf1f1;}.cls-20{fill:#869dd0;}</style></defs><g id="Layer_2" data-name="Layer 2"><g id="Layer_1-2" data-name="Layer 1"><path class="cls-1" d="M3813,1963.45c22.16,12.15,38.59,30.34,53,50.58,21.15,29.75,34.11,63.21,43,98.28a530.21,530.21,0,0,1,16.27,120.48c.51,27.3,1,54.69-.59,81.93-1.74,30.54-4.68,61.11-9.21,91.35-2.63,17.6.57,16.9,12.49,22.15,25.58,11.27,51.28,22.35,77.28,32.61A1528.75,1528.75,0,0,0,4197,2522.7c49.19,12.25,99,21.39,149.45,25.23s101.2,2.6,150.77-10.74c41.33-11.12,78.44-29.83,107.89-61.53,25.1-27,55.78-45.14,89.73-58.2,31.81-12.23,64.88-19.51,98.55-24.74,61.59-9.58,123.51-9.21,185.42-6.53,30.55,1.32,61,5.54,91.45,8.58,10.47,1.05,11,.95,11.08-10.27.1-12.66.28-25.35-.44-38-7.52-132.56-36.71-259.51-99.79-377.28-65.64-122.53-160.46-214.85-287-273.53-17.49-8.11-35.47-15.26-53.5-22.14-46.8-17.87-92.21-38.4-133.53-67.14-38.81-27-71.61-59.62-94.8-101.22-17.36-31.14-28-64.67-34.76-99.5-6.45-33.37-10.32-67.07-12.71-101-1.64-23.23-4.37-46.39-6.37-69.6-.62-7.27-.43-14.6-.61-21.91-2.67-19.11-5.49-38.2-8-57.32Q4327.45,985,4236.9,838.47c-36.24-58.57-77.82-113-126.9-161.47q-155.68-153.72-370.34-196.56c-69-13.77-138.61-17.62-208.72-14.44-14,.63-27.84,2.57-41.75,3.91-4,2.3-7.11,4.8-2.39,9.32,39.68,8.23,80.1,12.46,119,25.12,77.48,25.21,146.89,66,215,109.33,78.81,50.14,154.06,105.22,224.8,166.28,38.33,33.08,74.75,68,107.77,106.7C4186,925,4198,966.07,4186.81,1016.14c-18.67,83.68-47.78,163.6-80,242.67-23.87,58.64-50.8,115.91-77.14,173.45-6.7,22.92-15.26,45.21-22.92,67.8,1,10.39,9.46,13.87,17,17.74,15,7.71,17.17,18,9.56,32.79-18.28,35.42-35.63,71.32-53.73,106.84-9.21,18.06-15.69,20.6-31.12,13.73-16.85-7.49-20.22-15.53-13.93-33.26,7.68-21.64,7.68-21.64-23.52-37.29-1.64-.93-3.33-1.73-5-2.51-3.45-1.65-6.88-3.35-10.36-5-5.76-2-11.61-4.86-16.67,1.41-5,13.14-3.76,27.24-5.89,40.84-4.91,31.39-14.1,60.21-38.47,82.28a20.55,20.55,0,0,0-5.77,10.22c-1.54,58.16-5.07,116.15-13.32,173.8-1.88,13.09-4.39,26.08-6.18,39.18C3808.29,1948.73,3806.82,1956.73,3813,1963.45Z"/><path class="cls-2" d="M4032.74,1435c9.6-19.72,19.63-39.25,28.71-59.21,28.67-63,56.2-126.44,80.18-191.39,17.52-47.43,33.94-95.19,45.34-144.57a489.34,489.34,0,0,0,9.3-57,98.23,98.23,0,0,0-11.2-57.91c-8.51-16-19.1-30.45-30.65-44.24-23.54-28.11-49.34-54-76.51-78.65-79.57-72.25-165.74-135.73-256-193.83-47.6-30.65-96.53-59-148-82.83-53.54-24.79-109.78-40.18-168.28-47.44-6.59-.82-13.27-.92-19.92-1.35-11.66-5.57-23.79.87-35.55-1.36-12,.75-18.07,10.45-25.5,17.75C3366.12,550.49,3303.3,602.7,3232.6,645c-16.6,9.92-34.1,18.07-51.54,26.37-18.76,8.91-21.87,19.54-10.08,36.23,8,11.26,12.85,23.23,13.21,37,.1,3.89.71,8.71-3.74,10.39-4.21,1.6-7.44-1.93-10.4-4.56-5.05-4.46-8.25-10.39-12.23-15.71-3-4-5.11-10.51-11.67-8.83-4.86,1.25-6.46,6.7-7.45,11.15-4.54,20.35-17.84,35.36-31.27,52.56-3.76-33,2.22-61.64,21.68-87.26,16-21,14.69-28.09-6.08-44.24-16.82-13.07-33.31-26.53-48.86-41.12-4.77-4.47-9-10.06-16.66-9.76-48.14,22.13-91.83,51-130.3,87.43-35.59,33.66-59.68,74.47-72.83,121.73-10,35.85-18.71,72-25.26,108.62-4.5,8,.65,13.06,6.46,16.11,39.71,20.82,79.22,42,120.56,59.55,4.82,2,10.35,1.85,15.66,1.91a1759.59,1759.59,0,0,1,218.13,16.16c21.31,3,33,12.59,39.17,33,8.41,27.94,18,55.56,27,83.33,4,16.13,15,25,29.63,32.27q233.1,116,465.87,232.6c9.3,4.64,18.33,11.59,30,7.39,23.26-31.66,39.54-66.88,52.66-103.73-1-22.86-8.69-44.33-14.34-66.14-15.68-60.53-32.07-120.87-47.13-181.57-1.6-6.45-3.15-13-7.19-18.46-26-20.72-56.13-35.25-82.84-55.13-33.6-25-67.43-49.68-103-77.31,56.9,16.18,111.5,29.93,165.63,45.59,60.06,17.72,120.73,33,181.41,48.23,23.22,5.84,24.19,7.41,24.68,31.1,1.9,90.55-4.09,180.74-10.9,271-2.55,33.77-6.76,67.51-6.18,101.49,14.08,25.5,39.84,30.49,64.89,35.73C4010.23,1440.28,4022.57,1446.22,4032.74,1435Z"/><path class="cls-3" d="M2477.42,833a28.23,28.23,0,0,0,2.68,13.47c11.05,23.37,23,46.32,38,67.36,10.73,15.1,24.87,27.31,39,39.37,11.18,9.5,25,14.63,36.29,23.76,6.63,7.92,16.08,11.45,24.87,16.05,49.93,26.09,101.8,48.41,150.2,77.47,7.39,3,15,5.25,22.2,8.84Q3019.85,1194,3249,1308.75c7.09,3.59,14.07,7.52,21.42,10.5,14.07,5.71,23.74,13.86,22.57,30.87-.34,5,.86,10.92,8,11.78,7.79-6.49,3.92-15.8,5.62-24.57q186.88,93.11,372.72,186.32c11.22,5.59,21.78,12.89,34.54,15.06,19.59-17.51,28.59-40.62,34.47-65.38-4.7-12.12-16.8-14.52-26.6-19.42q-605.8-303-1211.49-606.18c-7.53-3.76-16.78-5.46-20.71-14.52Z"/><path class="cls-4" d="M2489.5,833.21l-5.92,6.78c6.21,3.18,11.92,6.17,17.68,9.06q612.09,306.06,1224.16,612.2c7,3.52,15,5.64,20.26,12.24,6.7.59,9.44-4.61,11.17-9.19,7.43-19.64,25.13-35.21,23.31-58.5-6.91-.29-12.67-3.75-18.6-6.71l-480-240c-1.78-.89-3.54-1.85-5.38-2.61-6.61-2.74-10.94-7-11.35-14.72-.09-1.67-2.06-3.25-3.16-4.87-3.77-1.28.37,11.57-9.44,3.69-14.62-11.75-33.3-18-49.79-27.51-40.89-17.79-79.84-39.52-119.85-59.07-37.9-18.22-75.32-37.38-112.8-56.43-7.87-.6-15.39-1.73-22.73-5.49-35.17-18-70.56-35.52-105.92-53.13-6.07-3-12-6-12-14-3.43,1.9-6.61,4.67-11,2.43-4.74-2.41-9.56-4.64-14.31-7-49.26-24.65-98.62-49.12-147.74-74.06-18.5-9.4-37.87-16.68-58.1-19.8-22.24-3.43-45-3-67.41.19C2516.84,828.67,2503.18,831,2489.5,833.21Z"/><path class="cls-5" d="M3212.19,281.12c12.33-34.2,11.78-69.23,6.83-104.57a377.52,377.52,0,0,0-26-94.05c-5.94-14.15-12.81-27.85-21.79-40.35C3151.73,14.92,3125.64.09,3091.63,0a227.54,227.54,0,0,0-53.41,6.49c-7.77,1.85-15.52,3.84-23.16,6.15a472.69,472.69,0,0,1-82,17,163.4,163.4,0,0,0-42.37,11.18c-26.92,10.92-47.51,29-62.07,54.1-17,29.29-16.09,58.31,1.43,87a128.55,128.55,0,0,0,23.07,27.47c2,4.59.21,5.55-4,4.15-2.38-1.14-4.74-2.31-7.14-3.39-.58-.26-1.67-.52-1.87-.27-.68.84-1.71,2.18-1.44,2.86,10.81,27.61,36.13,43.17,65.45,40.32,2.62-.25,5.21-.82,7.81-1.25,11.48,1.56,20.25-4.82,29.55-9.87,27.35-14.84,54-31.3,85.12-37.69,28.07-5.75,52.67-.68,72.11,21.86,5.31,6.15,11,11.72,20.28,10,6.08-1.77,9-7,12.55-11.51a56.93,56.93,0,0,1,9.42-9.83c11.48-9,17.67-2.38,23.64,7.36,10.2,16.63,10.48,37.17,21.54,53.41a25.61,25.61,0,0,0,11.92,8.49C3203.25,285.3,3208.17,285.36,3212.19,281.12Z"/><path class="cls-5" d="M3057.51,607.16a690.07,690.07,0,0,0,70.78,61.41c3.12,2.36,8,4.25,7.52,8.54-.64,6.36-.17,13.49-5.82,18.4a68.68,68.68,0,0,0-16.9,22,118.11,118.11,0,0,0-10.64,34.16c-2.29,15.07-2.15,30.33-1.43,46,11.83-5.52,17.52-12.11,30.3-31,8-11.83,11-25.37,15.59-40.22,4.2,6.89,7,12.91,11.11,18,7.3,9,13.9,19.56,27.77,19.38,6.39-10.48,4.36-21.83,2.35-32.72-2.07-11.24-7.77-21-15.59-29.64-8.1-9-5.94-19.6,4.65-23.74,45-17.61,85.25-43.43,123.8-72.09,51.89-38.57,100.7-80.69,145.13-127.75,1.06-1.14,1.32-2.17.79-3.1s-1-1.32-1.38-1.32c-27.25-12.18-55.45-20.59-85.52-21.69-14.58-.54-28.95.39-42.65,6.06-10.07.76-16.6,7.3-23.37,13.8-31.91,30.67-55.22,67.94-80.17,104-16.33,24.32-30.57,50-46.95,74.24-2.83,4.2-5.19,10.66-11.59,9.3-6.19-1.33-6.18-8.1-7.3-13.07-3.36-14.94-5.94-30-9.21-45-3.17-14.12-6.47-28.17-14.25-40.64-4.42-7.09-9.33-13.2-18.93-7.77a147.82,147.82,0,0,0-34.33,15.49,77.26,77.26,0,0,0-14.2,10.76c-7.49,7.3-7.76,11.19-3,21.13C3055.17,602.44,3056.35,604.8,3057.51,607.16Z"/><path class="cls-1" d="M3197.19,281.27l-9.14-8.17c-14,4.28-15.93,18.22-22.26,28.44-6,9.75-10.46,11.74-18.89,1.83-14-16.49-23.31-33-13.51-55.32,3.06-7,5.33-15,2.87-23.14-1.37-2.75-3.1-4.9-6.66-3.82l-8.86,13c-1.86,1.86-4.79,3.43-5.06,5.95-3,27.33-24.32,35.54-45.46,43.92-38.14,15.12-76.4,29.87-117.18,36.55-5.95,1-11.71,2.5-15.19,8.16-4,2.54-4.61,6.25-3.24,10.39,5.43,16.31,10.18,32.91,16.63,48.81,7.17,17.71,13.85,35.67,25.12,51.61,17.84,25.21,31,30.79,60.56,23.87,10.24-2.4,20.11-6.67,30.9-6.41,5.31.48,9-2.81,13-5.47,44-29.5,77.83-67.39,96-117.81C3183.13,316,3198.51,301.87,3197.19,281.27Z"/><path class="cls-6" d="M3445.54,473.51c.19,1.48.39,2.95.59,4.42l39.64-1.4,3.42-6.62c-4.44.11-9.06-.56-13.26.49C3465.9,472.91,3455.75,473.27,3445.54,473.51Z"/><path class="cls-5" d="M2849.15,213.52a6.73,6.73,0,0,0,5.95,3.78c1.49,0,3-1.33,4.44-2.06-.54-1.07-.83-2.45-1.68-3.15a29.93,29.93,0,0,0-4.71-2.72Z"/><path class="cls-1" d="M1544,2571.6c4.51,10,9.19,20.23,13.79,30.53q30.59,68.4,61.13,136.84c1.09,2.43,2.19,4.86,3.21,7.32,3.93,9.52,3.92,9.53-4.91,16.19-4.26,3.2-8.72,6.17-12.77,9.61-9.15,7.79-18,15.9-24.37,26.28-14.21,23.16-7.09,40.12,19.44,45.36,18.07,3.57,36,.51,53.43-3.9a244.44,244.44,0,0,0,86.33-40.48c12.35-9.15,23.82-19.41,31.75-32.88,13.19-22.42,6-38.77-19.63-44-12.5-2.52-25.17-1.77-37.75.6-8.39,1.57-16.88,2.67-25.33,4-6.42-6.33-8.16-15.11-11.67-22.89q-36.59-81.06-72.74-162.3a67.23,67.23,0,0,0-3.32-7.26c-3-5-1.44-8.83,2.58-12.27,11.67-10,22.13-21.16,32.5-32.48,30.86-33.67,55.88-71.24,75.91-112.21,2-4.19,4-8.43,6.14-12.56,1.86-3.58,4.92-4.11,8.41-2.72,1.86.73,3.62,1.7,5.42,2.58q92.52,45.11,185,90.24c3,1.45,5.93,3,8.75,4.76a5.94,5.94,0,0,1,2.71,6.86c-1.38,5.83-2.78,11.65-4.36,17.43-3.4,12.4-3.34,25.07-2.62,37.72a45.42,45.42,0,0,0,2.91,13.56c5.85,15.32,16.32,20,31.76,14.74,11-3.72,19.91-10.65,28.1-18.59,18.43-17.88,31.78-39.3,42.93-62.2a228.1,228.1,0,0,0,21-70.52,68.22,68.22,0,0,0-3.83-33.41c-5.13-13.63-16.94-18.73-30.7-14.08-9,3-16.69,8.23-23.69,14.54a174.46,174.46,0,0,0-26.52,29.82c-2.64,3.78-5.79,5.21-10.17,2.93-3-1.54-6-2.91-9-4.37l-183.27-89.29c-3.59-1.75-7.17-3.52-10.7-5.4-3.89-2.08-6-5.25-5.14-9.79.7-3.93,1.4-7.87,2.38-11.74,9.08-35.74,11.33-72.32,12.71-108.94.42-11.26-1.44-22.59-1.89-33.9-.32-7.95,1.56-9.75,9.15-9.29q31.92,2,63.82,4.2c28.56,2,57.11,4.34,85.68,6.31,24.59,1.69,49.21,3,73.81,4.61,9.84.64,9.81.77,12.08,11.88s4.2,22.25,7,33.2,7.63,21.36,15.3,30c10.22,11.51,23.44,12.64,35.48,2.94,7.94-6.39,13-15,17.69-23.94,10.64-20.41,15.95-42.54,18.35-65,3-28.49,3.93-57.27-3.09-85.49a210.52,210.52,0,0,0-8.94-26.42,48.7,48.7,0,0,0-7.23-11.91c-12.4-15.71-26.62-16.59-40.74-2.53-8.65,8.6-14.55,19.12-18.69,30.44-3.64,10-6.28,20.33-9.48,30.48-1.77,5.64-4.32,7.51-10.36,7.08-23.92-1.71-47.81-3.66-71.73-5.38q-34.87-2.51-69.78-4.72c-30.59-1.88-61.2-3.55-91.79-5.35-4-.23-8-.51-11.94-1-3.49-.45-6.2-2.21-7.46-5.71-.9-2.51-2-5-2.65-7.54-6.24-24.62-15.41-48.18-25.7-71.34-4.85-10.9-4.79-11.32,4.76-17.73q59.76-40.11,119.66-80,44.05-29.43,88.15-58.79c4.36-2.9,8.32-6.66,14.42-7.3,6.17,5.82,12.29,11.94,18.77,17.64,11.08,9.74,23,18.21,37.51,22.19,17.7,4.85,30.5-3.36,33-21.5,1.94-14.18-.62-28-5.16-41.32-14.33-41.91-38.2-77.53-72-106.23-9.7-8.22-20.37-15-32.85-18.5-18.72-5.25-31.74,3.33-33.72,22.59-1.68,16.3,2.38,31.69,7.57,47,2.32,6.85,8.73,13.64,6.45,20.36-2.55,7.49-11.79,10.17-18.35,14.57q-95.52,64-191.18,127.71c-3.88,2.59-7.78,5.15-11.77,7.57-2.68,1.63-5.14.63-7-1.5-2.2-2.49-4.21-5.16-6.16-7.86a476.5,476.5,0,0,0-88-92.4c-2-1.63-3.63-3.76-6.12-6.38,9.29-14.86,18.38-29.51,27.59-44.09q56.07-88.71,112.22-177.39c7.79-12.29,7.5-16.25,25.19-9.06a73.62,73.62,0,0,0,35.3,5.07c14.62-1.45,21.43-10.91,17.7-24.92a54.43,54.43,0,0,0-11.27-21c-26.64-31.68-59.87-52.41-100.78-60.43a40.31,40.31,0,0,0-23.44,2.59c-5.39,2.18-8.3,6.5-8.9,12.28a32.33,32.33,0,0,0,3.81,19.28,96.71,96.71,0,0,0,15.38,20.85c4.14,4.29,8.25,8.61,12.68,13.23-2.45,4.42-4.5,8.58-7,12.47q-66.13,104.84-132.37,209.59c-1.78,2.81-3.61,5.62-5.65,8.23-2.33,3-5.31,3.68-8.73,1.7-2.31-1.33-4.7-2.53-7-3.86-52.55-30.46-109.3-48.68-169.09-58-2.63-.41-5.32-.51-7.92-1-4.1-.84-5.21-3.8-4.31-7.45,1.42-5.81,3.09-11.57,4.77-17.32q28.11-95.83,56.26-191.66,4.21-14.37,8.62-28.68c1.32-4.28,4.15-6.43,8.85-6.32,12,.27,24,.35,36,.46a65.83,65.83,0,0,0,25.3-5.23c19.38-7.78,24.13-22.53,13-39.86a73.45,73.45,0,0,0-16.23-17.53c-19.53-15.69-41.91-25.84-65.5-33.41s-47.75-12.24-72.64-11.84c-12.75.21-25.29,2.22-36.88,7.78-16.47,7.9-20.32,22.3-10.52,38,8.36,13.45,21.16,21.88,34.1,30.21,6.68,4.3,16.78,5.47,19.8,12.54,3.36,7.85-2.48,16.52-4.86,24.68q-32.58,112.21-65.34,224.37c-.19.64-.29,1.31-.53,1.93-5.54,14.57-1.19,15.29-19.94,16.39a453.57,453.57,0,0,0-117.34,22.65c-5,1.68-10.09,3.44-15.25,4.7a5.92,5.92,0,0,1-6.81-2.93c-1.64-2.89-3.26-5.8-4.72-8.79q-52.92-108.72-105.78-217.47c-6.22-12.79-6.25-13,4.45-21.07a161,161,0,0,0,25-22.93c6.6-7.56,12.24-15.77,14.94-25.7,3.29-12.16-1.33-22.72-12.79-28-11.92-5.52-24.73-6.08-37.29-4.19-50.14,7.56-94.19,28-130.62,63.78-7.17,7-13.28,14.91-17.32,24.25-7.92,18.32-2.07,31.22,17.2,36.92,12.41,3.68,25.1,2.81,37.64.7,7.86-1.33,15.57-3.53,23.35-5.29,7.61-1.73,9.7-1,13,5.35,4.31,8.27,8.29,16.71,12.36,25.1q46.66,96.21,93.31,192.42c2,4.2,4.07,8.4,6,12.62,1.68,3.59.55,6.39-2.65,8.46-1.68,1.09-3.39,2.12-5.12,3.12a487.19,487.19,0,0,0-108.14,84.91c-6.33,6.62-6.57,6.71-15.38,2.79q-69.39-30.87-138.68-61.92c-28-12.51-56-25-83.87-37.65-10.82-4.91-11.18-5.23-8.48-16.34a162.79,162.79,0,0,0,4.23-45.6c-.31-7.48-1.87-14.58-5.54-21-6.34-11.18-16.54-14.77-28.89-10.39-12.94,4.58-23.32,13-32.09,23.14-32.74,38-51.36,82.11-56.83,131.88-1.11,10.15.69,20,3.62,29.59,5.12,16.63,18.42,22.66,34.63,15.78,13.83-5.86,24.33-16.2,33.7-27.62,5.88-7.17,11.3-14.73,16.38-21.4,4.64-1.15,7.54.79,10.49,2.11q101.24,45.3,202.42,90.72c3,1.36,6.09,2.71,9,4.27,4.79,2.55,5.34,4.62,2.58,9.57-1.62,2.91-3.5,5.67-5.24,8.52-25.45,41.81-45,86.15-56.78,133.75-.8,3.22-1.73,6.42-2.64,9.62-1.23,4.29-4,6.53-8.54,7-7.94.87-15.83,2.22-23.77,3.09-41.7,4.57-83.42,9-125.12,13.59-15.88,1.77-31.7,4-47.56,6-5.29.65-10.61,1.19-15.93,1.4-7.83.32-9.29-.7-11.85-7.69-1.61-4.37-2.88-8.87-4.44-13.26-3.83-10.71-8.62-21-15.44-30.13a72.36,72.36,0,0,0-10.5-12c-12.91-11-25.81-9.82-36.57,3.07a46.8,46.8,0,0,0-9.48,17.46c-2.84,10.24-6.44,20.51-7.43,31-3.48,36.84-.92,73.22,11.74,108.4,4.07,11.33,8.95,22.25,15.89,32.16,4.23,6.05,9,11.59,15.29,15.62,9.84,6.33,20.81,5.18,29.26-2.86,6.46-6.16,10.27-14,13.1-22.17,3.24-9.44,5.8-19.09,6.57-29.15.46-6,1.49-11.89,2.48-17.79a6.2,6.2,0,0,1,5.19-5.33c5.23-1,10.44-2.15,15.72-2.77q67.45-7.85,134.94-15.48c15.22-1.73,30.45-3.38,45.7-4.71,6.37-.55,8.25,1.56,8.46,8,.11,3.33-.09,6.66-.16,10a477.89,477.89,0,0,0,44.74,215.2c8.71,18.77,10,16.93-9.47,25.58q-84,37.41-168,74.59c-1.82.81-3.66,1.59-5.47,2.45-15.59,7.45-16.29,5.64-24.32-6.07a149.63,149.63,0,0,0-24-26.71,61.9,61.9,0,0,0-22.16-13.22c-11.53-3.75-21.14-.09-27.21,10.44a42.44,42.44,0,0,0-5.56,19c-.89,15.37-.4,30.57,3.15,45.68a249.53,249.53,0,0,0,41.17,90.3,143.81,143.81,0,0,0,24.52,26.22c6.19,5.16,13,9.22,21,11.12,10.95,2.61,20.08-.74,25.73-10.12a40.82,40.82,0,0,0,5.7-19c.86-14.7,1-29.38-2.69-43.73-4.78-18.72-1.24-17.25,12.57-23.54,27.88-12.7,56-24.94,84-37.36q50.24-22.29,100.46-44.58c1.22-.54,2.37-1.24,3.59-1.76,10.09-4.34,10.09-4.34,16.57,3.64,8,9.83,15.85,19.75,24,29.45,26.76,31.89,58.16,58.58,92.46,82,3.3,2.25,6.69,4.37,9.95,6.68,7.92,5.61,8.24,6.46,4.59,14.54-3.29,7.28-6.77,14.48-10.29,21.66q-40.47,82.54-81,165.07c-1.46,3-3,6-4.48,8.93-2.32,4.67-5.22,7-11.09,5.15-13.38-4.17-27.09-7.07-41.24-6.77-6,.13-12.07,0-17.94,1-21,3.49-29.1,18.93-20.33,38.16A82.17,82.17,0,0,0,863.77,2845a231.54,231.54,0,0,0,119.52,60.43c12.48,2.28,25,4.5,37.55.32,3.77-1.25,7.72-2.25,11.17-4.13,9.88-5.38,13.6-14.39,11-25.21s-8.58-19.46-15.68-27.52a172.33,172.33,0,0,0-28.17-25.36c-6.48-4.72-6.52-5.66-2.93-13.32q8-17.2,16.43-34.23,37.39-76.28,74.87-152.51c1.47-3,2.89-6,4.52-8.9,3.14-5.56,5.08-6.4,11.35-3.9a514,514,0,0,0,58.71,19.56,467.38,467.38,0,0,0,88.5,14.73c1.33.09,2.67.07,4,.2,7.94.79,9.37,2,10.26,9.37,2.77,23.14,5.42,46.3,8.13,69.44,3.64,31.08,7.38,62.15,10.91,93.24,2.11,18.53,4.13,37.08,5.76,55.65.92,10.55.27,11.56-9.16,14.65a196.32,196.32,0,0,0-33.06,14c-7.66,4.19-14.69,9.24-20.33,16-10.37,12.36-8.9,26.68,3.65,36.75,9.62,7.72,21,11.56,32.79,14,18.32,3.86,36.93,5.6,55.65,4.08,24.64-2,49-5.83,72-15.22a226.13,226.13,0,0,0,26.79-13.28,47.3,47.3,0,0,0,17.13-16.51c6.61-10.87,4.92-22.2-4.62-30.63-6.59-5.82-14.45-9.43-22.79-12.08a168.2,168.2,0,0,0-41.13-7.62c-8.28-.5-8.56-.85-9.8-9.57-2.42-17.14-4.76-34.3-6.73-51.49q-9.19-80.38-18.1-160.8c-.22-2-.69-3.94-.79-5.93a5.88,5.88,0,0,1,4.22-6,34.71,34.71,0,0,1,7.84-1.38c64.64-6.92,124.3-28.57,180.33-61,5.18-3,10.38-6,15.66-8.8C1540.31,2571.53,1541.8,2571.8,1544,2571.6Z"/><path class="cls-5" d="M2869.22,2117.56c-2.5.51-5.46-.4-7.26,2.24a43,43,0,0,0-3.14,5.09c-34.59,69.12-66.76,139.23-89.66,213.29-11.66,37.68-18.09,76.37-23.84,115.22-7.69,52-15.38,104-22.63,156.11-5,35.6-9.14,71.31-13.68,107-4.78,37.64-9.75,75.26-14.32,112.93-4.72,39-9.05,78-13.55,117.05q-7.23,62.51-14.42,125c-3.22,28.45-6.21,56.93-9.29,85.39q-5.38,49.65-10.71,99.29c-.5,4.63-.79,9.29-1.34,13.92-.75,6.28-.16,11.73,5.84,15.74,1.69,1.13,1.77,4.66,2.59,7.09,41.43,17.83,84,26.16,128.75,14.94,17.17-3.36,27.42-13.8,34.55-29.78,65.18-146.14,125.83-294.05,178.55-445.19,29.21-83.77,61-167.52,70.86-255.7,9.4-84.14,52.34-148.1,102.75-210.05,19.32-23.75,38.72-47.53,60.46-69.21,4.71-4.7,9.31-9.68,9.48-17-31.88-108.38-62.52-217.12-94.84-325.37-12.76-7.92-16.16,4.72-20.57,10.82-38.05,52.59-82.55,99.28-128.88,144.47-40.46,39.48-40,39.52-92.21,18.63C2891.77,2125,2882,2116.92,2869.22,2117.56Z"/><path class="cls-1" d="M1131.61,519.62c1.81-6.7,6.8-10.42,10.63-14.91q31.79-37.26,63.85-74.28c7.65-8.85,9.26-11.34,19.91-5.19,3.31,1.92,7.52,2.69,11.41,3.14,6.79.78,11.69-4.86,10-11.33A38.65,38.65,0,0,0,1243,406a82.7,82.7,0,0,0-35.71-31c-6.12-2.79-12.76-4.4-19-.2-4.11,2.75-3.45,9,1,18.38,1.92,4.06,7.37,7.13,5.45,12.15-1.6,4.18-4.93,7.82-7.94,11.32q-33.93,39.36-68.09,78.54c-5.6,6.44-6.36,6.65-13.11,1.54a232.32,232.32,0,0,0-68.83-35.73c-7.86-2.57-8.7-4.52-5.57-11.53,5.42-12.17,11.08-24.23,16.66-36.32,8.65-18.75,17.18-37.55,26-56.21,3.81-8.05,4.83-8.3,14.1-7.34,6.57.68,12.93,2.67,19.78,1,12.28-3,15.66-9.83,9.31-20.26a32.53,32.53,0,0,0-4.67-6.47c-18.79-18.36-41.09-29.13-67.51-30.7a30.75,30.75,0,0,0-7.94.65c-10.48,2.17-14.23,10.27-9,19.41a44.64,44.64,0,0,0,11.72,13.5c11.76,9,9.75,8.76,4,21.39-9.7,21.2-19.61,42.3-29.43,63.44q-8,17.2-16,34.42c-1.89,4.05-5.16,6.36-9.57,5.53-16.71-3.12-33.2-.51-49.74,1.4a92.4,92.4,0,0,1-10,.8,7.14,7.14,0,0,1-7.43-5.33c-1.6-5.08-3.28-10.14-4.88-15.22-9.41-29.84-18.87-59.66-28.16-89.53-2.43-7.81-2.26-8,4.78-12.81,6.59-4.52,13.56-8.5,17.78-15.72,4.43-7.57,2.38-14.52-5.6-18-4.92-2.14-10.07-3.64-15.5-3.35-23.09,1.21-44.66,7.09-63.38,21.29a30.17,30.17,0,0,0-10,12.2c-2.37,5.58-1,10.53,4.19,13.74A25.87,25.87,0,0,0,833.89,345c4,.1,8,.06,12,.15,9.67.22,9.93.16,12.8,8.86,6.27,19,12.3,38,18.32,57,4.82,15.24,9.36,30.56,14.27,45.76,1.5,4.67.41,7.66-4,9.59-19,8.28-37.19,17.95-53.49,30.89-3.95,3.14-7.43,1.4-10.93-.84q-25.27-16.14-50.55-32.26c-13.46-8.62-26.83-17.39-40.37-25.9-4.75-3-5.78-6.27-3.83-11.67,2.47-6.83,4.95-13.82,4.58-21.35-.53-10.48-7.56-15.45-17.75-12.51A36.82,36.82,0,0,0,699.66,402c-15.68,15-27.46,32.54-32.22,54.11a41.5,41.5,0,0,0-1.15,11.82c.79,10.54,8.63,15.23,18.29,11.3,7.58-3.08,13.55-8.39,19.22-14.08,3.29-3.29,6.53-3.65,10.61-1,25.77,16.57,51.66,33,77.48,49.48,3.9,2.49,7.67,5.19,11,7.46,1.51,5.49-2.26,7.94-4.55,10.83-12.91,16.27-23.89,33.72-32,52.83-2.35,5.54-5.24,8.82-11.67,8.55-30.62-1.28-61.24-2.4-91.86-3.56-5.69-.21-8.21-3.51-8.87-8.81a44.23,44.23,0,0,0-7.54-20.4c-6.24-8.86-14.48-9-21.32-.38-6,7.53-9,16.58-10.36,25.71-2.62,17.16-3.4,34.46,2,51.45,1.87,5.83,4.41,11.1,9,15.3s9.72,4.35,14.34.4a31.29,31.29,0,0,0,9-13c2.1-5.6,4-11.29,6.25-17.74,31.81-3.05,63.35,3.06,93.63,2.36,4.66,5.34,2.09,9.1,1.68,12.82-3.32,30-3.33,59.84,4.19,89.33.83,3.22,1.85,6.4,2.55,9.64,1,4.44-.22,7.87-5,9.27-8.3,2.42-16.58,4.92-24.91,7.25-19.23,5.37-38.42,10.93-57.76,15.87-10.37,2.64-10.49,3.66-15.88-6.2-3.23-5.91-7.11-11.31-12.39-15.52-8.53-6.82-16.49-4.67-20.68,5.19-3.24,7.62-3.6,15.56-3,23.56a112.77,112.77,0,0,0,16.38,50.85,39.07,39.07,0,0,0,12.29,13c6.77,4.27,15.45,1.44,18-6.25s4.42-15.42,3.25-23.56c-.85-5.85,2.22-8.47,7.35-9.89,17.31-4.82,34.58-9.78,51.89-14.62,12.82-3.58,25.7-6.94,38.49-10.61,4.62-1.33,7.76.07,10,4.06A238.49,238.49,0,0,0,822,838.28c4.75,4.42,4.88,6.37.94,12.15-17.64,25.87-35.49,51.6-53.25,77.39-2.69,3.91-5.87,4.32-10.3,2.64-6.81-2.59-13.65-5.69-21.18-5.2a28.3,28.3,0,0,0-9.52,2.28c-4.21,1.9-6.38,7.29-5.27,11.82,1.93,8,6.17,14.71,11.64,20.69a115.33,115.33,0,0,0,46.2,30.59,39.82,39.82,0,0,0,19.65,2.09c5.78-.84,9.36-5.28,9.35-11.08a24.4,24.4,0,0,0-5.09-14.86c-3.95-5.29-7.94-10.56-12.58-16.72,4.56-6.74,9-13.33,13.44-19.86,13.58-19.77,27.12-39.57,40.82-59.26,6.46-9.28,7-9.55,15.85-4.53a215.7,215.7,0,0,0,55.63,21.75c8.55,2.09,10.55,3.77,10.12,13.82-.94,22-1.92,43.92-2.79,65.89-.34,8.65-.51,17.32-.61,26,0,4.65-2.32,7.32-6.6,8.72-6.93,2.28-14.32,3-20.79,6.87-10.89,6.5-11.71,16.58-1.58,23.87a38.5,38.5,0,0,0,8.73,4.75c22.57,8.52,45.48,9.44,68.54,2.26A40.51,40.51,0,0,0,984,1035c7.65-5.24,8-14.17,1.12-20.31-5.65-5.06-12.61-7.57-19.69-9.3-6.23-1.52-9.06-4.54-8.89-11,.76-30,1.21-60,2.1-89.94.26-8.73,2.07-10.46,11.09-10.38A215.39,215.39,0,0,0,1053.51,878c6.85-2.78,9.37-1.22,11.52,6.31q9.87,34.56,19.41,69.21c2.81,10.31,1.91,13.42-6.93,17.94-6.46,3.31-12.5,7.61-16.42,14.22-4,6.8-2.64,13.18,4.39,16.78a27.86,27.86,0,0,0,9.39,2.94c25.46,2.86,49.07-2.43,70.22-17.11,10.23-7.1,14.69-15.14,11.63-21.06-4.18-8.09-12.28-9.17-20.39-10.25-6.29-.84-14.18,3.23-18.53-3.43-3.14-4.82-4-11.18-5.64-16.92-6.38-22.4-12.5-44.88-19.1-67.22-1.89-6.42-2.17-11,4.3-15.39,22.31-15.12,40.52-34.45,56-56.47,4-5.71,6.37-6.16,11.53-2.64,25.32,17.25,50.53,34.69,75.82,52,4.61,3.16,5.22,7,3.49,12.12-1.91,5.65-3.28,11.5-4.65,17.31-1.3,5.54-.31,11,3.9,14.75,5.14,4.54,11.38,3,17,.45a45.85,45.85,0,0,0,10.1-6.4c15.36-12.47,26.2-28.29,33.22-46.67a41.39,41.39,0,0,0,2.22-23.57,10.58,10.58,0,0,0-13.51-8.31c-8.67,2.3-15.49,7.63-21.73,13.73-4,3.91-7.7,4.19-12.31.94-12-8.47-24.13-16.64-36.2-25q-21.39-14.75-42.76-29.53c-3.52-2.42-6-5.06-4.11-9.87,8-20.59,13.69-41.7,15.33-63.85.43-5.9,3.22-7.3,10-5.85,24.08,5.12,48.14,10.4,72.21,15.6,4.55,1,9.14,1.8,13.68,2.81,13.81,3.06,13.91,3.07,15.47,18a58.56,58.56,0,0,0,5,19.24c3.51,7.37,11.82,9.51,18.47,4.63a33.47,33.47,0,0,0,8.36-8.47c14.88-23.33,20.67-48.7,16.26-76.2-1.21-7.52-3.45-15-11.63-17.05-8.54-2.19-13.5,4.41-17.81,10.32-3.5,4.8-6,10.32-8.94,15.54-2.25,4.05-5.54,5.29-10,4.29-33.77-7.53-67.53-15.14-101.37-22.35-7.09-1.51-9.87-5.19-10.79-12.05-1.25-9.21-3.42-18.3-5.25-27.43-1.61-8-1.4-9.13,5.63-12.48,25.24-12.06,50.57-23.93,75.88-35.85,7.23-3.4,14.48-6.76,21.78-10,10-4.45,10-4.39,17.13,2.89,3.26,3.33,6.45,6.74,9.88,9.88a20.42,20.42,0,0,0,10.57,5.26c5.93,1,10.56-1.4,12.9-6.82a28.37,28.37,0,0,0,2-15.63,113.59,113.59,0,0,0-25.51-57.72c-4.72-5.69-10.25-10.5-17.68-12.45-6.36-1.68-12.39,1.5-14.16,7.81-2.4,8.55-1.75,17.23.46,25.68,1.48,5.68-.65,8.71-5.55,11-22.91,10.74-45.77,21.61-68.65,32.42-10.83,5.13-21.71,10.16-32.49,15.4-4.58,2.23-7.7.76-9.77-3.36C1157.38,551.44,1144.65,535.22,1131.61,519.62Z"/><path class="cls-1" d="M315.5,1394.09c15.66,10.81,29.92,20.62,44.14,30.49,3.61,2.51,5.09,5.59,3.61,10.26a41.62,41.62,0,0,0-1.54,11.75c-.07,4,4.88,7.4,8.57,5.88s7.47-3.14,10.41-5.67a60.24,60.24,0,0,0,19.51-31.87c1-4,.68-8-3.05-10.8-3.19-2.39-6.38-1.18-9.3.47-4,2.3-7.88,4.91-13,8.14-15.08-10.34-30.38-20.84-45.67-31.35-3.82-2.62-4.57-6.3-3.43-10.52,3.28-12.09,6.61-24.18,10.24-37.42,18.37,4,36.47,7.87,54.59,11.72,4.59,1,6.75,3.77,6.91,8.34a27.76,27.76,0,0,0,.35,4c1,5.34,2,11.19,8.67,11.72,6.23.5,9.07-4.63,11.75-9.34,7.22-12.7,8.82-26.39,6.84-40.62-.57-4.09-2.42-7.72-6.84-8.85a7.32,7.32,0,0,0-8.43,4c-5.84,13.64-16.14,12.69-27.75,9.76-12.26-3.08-24.68-5.55-37.06-8.14-7.13-1.5-12.51-4.49-12.69-12.8a7.52,7.52,0,0,0-.47-1.94c-5-16.38-1.11-15.43,10.28-20.9,15-7.2,30.11-14.26,45.09-21.54,4.79-2.32,8.85-2.27,12.52,2a36.09,36.09,0,0,0,4.34,4.13c3.2,2.62,6.81,4.78,10.89,2.53,3.18-1.76,3.72-5.43,3.66-8.74-.3-16.93-6.53-31.16-20.15-41.55-5.82-4.43-13.47-1-12.42,6.08,2.13,14.41-5.86,19.82-17.15,24.52-13.52,5.62-26.6,12.3-39.8,18.67-4.14,2-7.52,2.1-10.34-2q-7.87-11.57-15.87-23c-2.75-3.91-2.1-7.49.81-10.86,12.18-14.14,24.48-28.17,36.57-42.39,4.26-5,8.62-8.28,15.33-4.4a9.23,9.23,0,0,0,3.9.72c3.37.2,6.53-3.3,5.9-6.42-2.35-11.6-15.74-23.61-28.11-25.23-4.59-.61-7.76,3-6.37,7.42a48.84,48.84,0,0,0,3.23,7.3,6.25,6.25,0,0,1-.88,7.34q-20.13,23.57-40.36,47c-2.34,2.71-5.53,4.09-8.81,1.8a160.54,160.54,0,0,0-38.91-20.18c-3.56-1.25-4.56-4.69-2.94-8.25q11.61-25.45,23.39-50.83c1.5-3.25,3.92-5.21,7.82-4.81a72.2,72.2,0,0,0,9.94.62,9,9,0,0,0,8.15-4.92c1.74-3.5-.17-6.53-2.26-9.08-10.38-12.61-24.37-18.12-40.17-19.53-2.43-.22-5.15,1.13-7.5,2.24a5.28,5.28,0,0,0-2.92,6.63c.54,1.88,1.28,4.17,2.7,5.24,10.18,7.7,8.58,16.13,3.32,26.17-7.41,14.14-13.58,28.94-20.31,43.44-2.15,4.63-5.52,7.07-10.94,7-7.32-.13-14.67.06-22,.56-12.17.83-12.43,1.06-15.79-9.25-5.57-17.09-10.73-34.32-16.15-51.46-1.13-3.58-.69-6.37,2.52-8.67,3.77-2.7,7.6-5.36,10-9.6,1.91-3.41,0-8.67-3.72-9.81-16-4.86-39.56,2.36-49.08,15a7.3,7.3,0,0,0,3.62,11.34c1.89.6,4,1.46,5.82,1.16,10.74-1.77,13.62,5.35,16.07,13.47Q152,1174,159.6,1197.83c1.48,4.6.21,7.63-3.86,9.91-8.7,4.88-17.47,9.66-26,14.83-4.06,2.47-7.4,1.84-11.06-.5Q95.13,1207,71.46,1192c-4.66-3-5.65-6.6-3.76-11.9,1.76-5,3.21-10.6-2-14.62-3.76-2.88-9.94-1-16,4.65a59.56,59.56,0,0,0-18.48,32.47c-.72,3.52,0,6.81,2.49,9.21s6,2.08,9.35,1c5.08-1.62,8.37-8.55,13.7-7,6.19,1.76,11.75,6,17.36,9.49,11.79,7.4,23.44,15,35.92,23.11-7.4,13-16.45,23.76-21.74,36.66a8,8,0,0,1-8,4.92q-24.95-1.23-49.88-2.72c-2.91-.17-4.65-2.14-5.76-4.79a94.85,94.85,0,0,0-4.92-10.91,7.29,7.29,0,0,0-13,.4c-8.25,15.64-8.74,31.89-1.82,48,2.94,6.85,11.23,7.28,13.6.23,4.8-14.23,15-14.49,26.78-13.61,9.3.69,18.66.4,28,.84,5.42.26,7.67,2.61,6.61,7.52-3.91,18.08-1.47,35.76,2.45,53.46,1.52,6.83.55,8.46-5.61,10.27-13.41,4-26.89,7.66-40.34,11.47-5.66,1.61-10.56,1-13.76-4.65a11,11,0,0,0-1.18-1.62c-3-3.48-5.82-8.27-11.11-6.9-6.2,1.61-7.37,7.92-7.29,13,.2,14.21,3.24,27.79,13.25,38.77,5.26,5.78,13.18,4.86,13.5-2.18.74-16.58,11.49-20.62,24.61-23,2.62-.48,5.22-1.09,7.8-1.77,9-2.36,17.94-8,26.92-6.26,9.76,1.94,11.08,14.07,17.53,20.58,4.22,4.25,8,8.9,12.17,13.24,3.26,3.42,3.5,6.9.87,10.74-8.67,12.64-17.39,25.24-25.93,38-3,4.43-6.68,6.19-11.88,4.93a31.35,31.35,0,0,0-5.93-.89c-3.94-.18-8.2-.69-10.32,3.81a9.68,9.68,0,0,0,1,9.55c8.82,13.53,21.24,21.86,37.28,24.19,7.56,1.1,12.82-5.24,8.5-10.8-8.77-11.28-5.46-20,2.35-29.72,7.08-8.8,13-18.58,19.63-27.73,3.82-5.24,5.6-5.44,11.91-2.77,5.52,2.32,11,4.8,16.53,7s12.51,2.75,16.3,6.57c5.49,5.54,2,14,2.1,21.14.2,10.65-.44,21.32-.59,32-.09,6-2.12,10.37-8.63,11.46a8.43,8.43,0,0,0-1.93.5c-4.9,2.06-10.76,3.9-10.05,10.5.56,5.06,5.4,7.27,9.9,8.88,13.7,4.93,27.39,5.28,40.93-.59,3.12-1.35,5.76-3.46,6-7.24s-2.11-6.21-5.06-7.9a63.29,63.29,0,0,0-9-4.2c-3.75-1.41-4.8-4.33-4.78-7.82.12-16,.16-32,2.3-47.91.6-4.52,2.41-7.66,7.3-7.66,14.85,0,29-3.39,43-8,7-2.29,8.8-1.06,11.24,6.92,3.5,11.46,6.66,23,10,34.53,1.24,4.24.84,7.85-3.35,10.28a12.61,12.61,0,0,0-1.64,1.14c-4.5,3.71-11.21,6.94-7.83,14.09,3,6.47,10.22,5.12,16.11,5.17a53.56,53.56,0,0,0,33.47-11.26c3.29-2.5,5.65-5.87,4.48-10.32-.94-3.6-4.08-5.16-7.35-6a41.68,41.68,0,0,0-7.92-.89c-4.5-.23-7.32-2.17-8.56-6.74-3.81-14.14-7.93-28.2-11.74-42.34a9.65,9.65,0,0,1,3.31-10.71c6.12-5.12,12.29-10.26,17.89-15.94S309.16,1401.47,315.5,1394.09Z"/><path class="cls-6" d="M2781.93,3305.9c-6.86-4.4-14.52-1.5-20.81-.1-13.29,2.95-25.76,3.61-39-.17-7.42-2.12-15.53-1.05-23.42-3.19-10.87-3-21.9-5.27-31.87-10.63-5-2.67-8.83-1-13,1.08-1.53,3.62-3.62,7.12-4.49,10.9-6.47,27.77-22.55,49-44.59,66.21-16.83,13.15-35.57,22.94-55.28,31-22.77,9.27-46.43,15.42-70.58,19.9a97.67,97.67,0,0,0-20.95,5.87c-13.73,6-25.07,14.8-30.06,29.8,6,.18,12,.51,18,.51q167.74,0,335.48,0c9.72-7.81,11-19.33,12.32-30.31,4.37-36.23.86-72.32-3.41-108.32C2789.57,3313.05,2787.56,3308.16,2781.93,3305.9Z"/><path class="cls-5" d="M3813,1963.45c.33-5.3.16-10.7,1.08-15.89,5.15-28.78,9-57.69,12.27-86.75,4.54-40.35,7.64-80.7,7-121.31-.07-4.65-.39-9.29-.59-13.94-7.59-3.06-14.4.34-21.17,2.84-72.65,26.85-148.43,36.42-225.14,38.47-86.49,2.32-173,1.87-258.18-17.1-6.53-1.45-13.23-2-19.23,2.26-6.42,26.07,1.79,51.47,4.57,76.93,11.87,108.6,27.36,216.8,36.91,325.66,10.86,55.58,14.22,112.13,21.23,168.22,8.16,65.36,14,131,21.38,196.44,8.21,72.64,34.38,140.85,58.15,209.39,65.25,188.19,137.78,373.66,209.52,559.43,6.3,16.33,14.48,28.13,32.16,31.66,36,5.16,71.89,8.64,107.46-2.74,10.69-3.42,21.56-6.39,28.83-15.95,1.68-2.06,3-4.69,5.09-6.07,7.77-5.08,8.76-12.45,8.69-20.88-.74-89.27-2.49-178.52-6.94-267.68q-4.23-84.8-11.29-169.43c-6.53-77.62-14.91-155.05-31.45-231.34-4.94-22.77-10.78-45.29-18.69-67.26-5.68-15.73-12.4-30.88-22.12-44.57-9.83-13.86-15.52-29.51-18.39-46-3.66-21-5.29-42.29-3.6-63.68a896,896,0,0,1,16.94-118.52c14.29-66.35,29.14-132.58,43.44-198.92,6.58-30.57,12.37-61.3,18.64-91.94C3810.34,1970.92,3811.83,1967.22,3813,1963.45Z"/><path class="cls-6" d="M3829.24,3301.07c-14.52,3.94-27.81,11.66-43,13.72-13.57,1.85-27.47,7-40.53,5.3-13.52-1.75-27.56-.83-40.72-5.19-4.36-1.45-7.63.62-11.19,2.19-5.16.8-8.05,4.54-10.26,8.63-22.48,41.57-62,60.24-103.23,76.14-19.18,7.4-39.56,11-59.63,15.48-17.11,3.85-32.82,10.77-43.23,26-2.66,3.89-4,8.42-1.64,13.16,6.65.22,13.3.63,19.94.63q166.73.06,333.45,0c10.54-38.48,9.42-77.44,5-116.56C3832.71,3327.37,3833,3314,3829.24,3301.07Z"/><path class="cls-2" d="M3309.68,1752.5c19,3.26,38,6.41,56.93,9.8s38.15,5.19,57.3,7.34c57.17,6.43,114.43,3.71,171.68,3.39,26-.14,51.61-4.4,77.39-7.1,30.51-3.19,60.4-9.06,90.19-16.14a369.75,369.75,0,0,0,69.58-24.23c27.77-20.77,39.77-50,44.82-83.08a342.59,342.59,0,0,0,3.85-49.33c-6.09-14.59-21.7-16-32.89-23.49-7.08-4.74-15.19-8-22.76-12-26.26-12-28.4-11.32-41.15,14-15.52,30.83-30.66,61.86-46.47,92.55-10.77,20.91-16.8,22.72-37.84,12.84-38.38-18-39.18-20.27-20.55-57.54,10.09-20.2,20.38-40.29,30.12-60.65,3.3-6.89,9.07-13.62,4.59-22.26-5.76-3.25-11.38-6.75-17.29-9.7q-187.87-94-375.82-187.82c-5.82-2.91-11.39-6.66-19.56-7.75-.28,10.51-.53,20.21-.78,29.92,1.12,17.86,2.3,35.72,3.35,53.58,1,17.28-1.93,34.43-2,51.64-.1,25.94-2.53,51.7-5.69,77.32-4.77,38.79-11.8,77.27-22.26,115-5.67,20.43-12,40.68-18.19,61-1.35,4.44-3.39,8.66-2.87,13.47C3269.14,1748.37,3288.45,1753.24,3309.68,1752.5Z"/><path class="cls-7" d="M3905.36,1601.27c-1.8-3.31-4.79-4-8.22-3.66C3899.12,1600.55,3902.07,1601.29,3905.36,1601.27Z"/><path class="cls-6" d="M3865.1,1445.83c21.43-18.88,46.51-31.25,73.1-40.92,1.07-11.26,2.25-22.51,3.19-33.78,2.32-27.85,4.5-55.7,6.8-83.55,1.71-20.57,2.61-41.2,3.88-61.78,4-65.12,7.85-130.3,6.21-195.62-.16-6.66-.35-13.34-1-20-.95-9.23-2.58-10.79-11.93-13.19q-77.3-19.87-154.59-39.79c-16.74-4.34-33.37-9.12-50.05-13.69-5.72,1.74-6.94,6.54-5.41,11,9.32,27.31,11.12,57,25.93,82.55,5.13,18.52,10.49,37,15.33,55.58q27.6,106,54.94,212c19.1.26,35.62,8.11,52.15,16.72,14.17,7.37,16.82,17.3,10.34,31-9.88,20.93-20.53,41.49-30.85,62.2-2.92,5.87-7.27,11.15-7.63,18.13C3856.79,1438.56,3857,1445.15,3865.1,1445.83Z"/><path class="cls-5" d="M4008.76,1501.4c-7.52,10.83-14.78,21.86-22.68,32.4-3.84,5.12-7.81,9.76-16.25,8.86-7-.74-11,6.6-14.8,11.94-6.47,9.21-12.25,18.91-18.63,28.18-7.48,10.88-17.06,18.54-31.15,18.43,7.63,7.81,18.41,10.2,27.28,15.88,3.4,2.18,4.15,4.9,2.52,8.37-2.53,5.41-5.25,10.73-7.74,16.16-4.89,10.65-.92,25.41,11.14,30.12,4.93,1.92,9.45,4.87,14.34,6.9,10.85,4.5,19.51,1.77,25.64-7.94,1.76-2.79,3.13-5.84,4.62-8.81q28-56.07,56.07-112.17c9.43-19,6.84-25.91-12.65-36.15C4020.1,1510.22,4012.64,1508.39,4008.76,1501.4Z"/><path class="cls-5" d="M3857.8,1433.06c15.8-26,28.34-53.66,41.66-80.91,8-16.38,6.11-25.62-13.05-34.48-9-4.15-17.77-8.75-26.65-13.13-9.46-4.68-18.9-5.44-28.29.2l-51.31,101c-10.53,23.07-20.86,46.23-34.49,67.71a434.35,434.35,0,0,1-31.21,63.11c-2.62,6.05-5,12.24-7.91,18.16-12.64,25.59-25.44,51.1-38.16,76.64-2.07,4.16-4.47,8.22-6,12.58-3.24,9.39-.91,17.6,7.67,22.38,13.89,7.73,28.15,14.93,42.69,21.38,8.84,3.91,16.8.5,22.28-7.92,2.53-3.87,4.4-8.17,6.48-12.32q24.06-48.08,48.1-96.16c2.08-4.15,4.1-8.34,6.35-12.4,3.32-6,5.36-6.77,11.05-4.34,6.09,2.6,12.12,5.37,18.17,8.07-8.28-23.08-.26-44.15,8.06-65.16,2.67-6.73,7.54-12.55,8.24-20.09C3844.36,1461.69,3859.18,1450.35,3857.8,1433.06Z"/><path class="cls-8" d="M2869.22,2117.56c23.2,14.56,49,23.65,73.94,34.39,4.77,2.06,9,1.34,13-2,11.75-9.81,23.87-19.2,35.28-29.4,52.85-47.22,99.34-100.15,140.56-157.76,2.67-3.73,5.77-7.16,8.67-10.73,8.31-2.86,11.69-10.5,16-17a905.74,905.74,0,0,0,97.9-195.21c.77-2,1.49-3.92,2.31-5.88a64.91,64.91,0,0,0,2.38-6.17c29.41-84.6,46.11-171.34,48.89-261.14.88-28.55,2.22-56.81-.95-85.2-.79-7.15.24-14.8-6.16-20.22-5.48-5.48-4.12-12.65-3.48-18.93,1.22-12-4.14-18.4-14.68-22.57-11.07-4.38-20.83-11.76-32.61-14.65-9.19,12.51-2.32,25.92-.9,38.36,17.25,151.7-4.5,297.13-67.17,436.55-47.64,106-114.74,197.93-199.21,277.18-14.56,13.67-27.49,31.3-49.66,34.71-71.33-24.86-134.85-63.8-193.55-110.33-107.28-85-183.29-193.8-237-318.93-46.63-108.71-73.07-222.38-85-339.85-2.44-24-1.86-47.87-3.53-71.72-1.32-19,6.47-31.08,21-41.94,66.91-50.14,141.15-85.36,220.6-110.21,29.92-9.35,60.52-16.07,91.21-22.39,7.22-3.77,18,.89,22.41-9.49-.86-3.51-3.31-5.47-6.42-7q-81.92-40.89-163.82-81.81c-1.72-.86-3.86-.87-5.8-1.27.7,2.53.7,5.64,2.23,7.49,9.28,11.27,18.57,22.56,28.53,33.22,6.44,6.88,11.3,14.6,15.9,22.08-1,6-6,5.51-9.4,6.68-27.69,9.41-55.41,18.7-82.26,30.38a812.67,812.67,0,0,0-82.07,41.06c-14.4,8.29-29.23,15.79-42.6,25.83-17.5,13.14-35.57,25.51-52.09,40-4.6,4-6.35,8-6.31,13.65.12,22.67-2.17,45.63.78,67.91,2.52,19,1.9,38.28,6.29,57.2,2.65,11.4,3.41,23.6,4.45,35.39,2.45,27.85,8.85,54.91,14.29,82.12a1230.63,1230.63,0,0,0,46.09,166.8c8.38,23.84,18.34,47,27.86,70.4,9.83,24.11,21.5,47.29,33.55,70.25,24.72,47.12,52.56,92.35,85.33,134.41,14.69,18.85,29.94,37.17,46.26,54.7,9.46,10.16,17.34,21.84,27.76,31.22,29.11,26.17,57.69,53,89.3,76.21,28.39,20.85,57.65,40.36,88.86,56.9,9.92,5.26,18.84,12.35,30.44,13.92C2867.58,2114.85,2868.35,2116.57,2869.22,2117.56Z"/><path class="cls-8" d="M3202.77,1117.48c15.49,12.23,34.14,18.62,51.32,27.71,5.41,2.86,6,2.13,7.34-6.34.1-.64.16-1.29.24-1.93-9.8-36-21.69-71.3-34.74-106.25-3.14-8.43-7.09-12.73-16.57-14.23-32.22-5.07-64.46-9.34-97-12.17-47.8-4.16-95.58-7.41-143.58-6.67-.4,6,4.2,7.74,8.31,9.8,23.7,11.89,47.36,23.87,71.18,35.52,10.66,5.22,20.63,12.08,32.55,14.5,23.34,8.34,47.89,10.55,72.21,12.8,19.58,1.8,32.36,9.53,37.52,29C3193.42,1106.22,3196.08,1113.23,3202.77,1117.48Z"/><path class="cls-5" d="M3761.2,1037.12c-3.28-24.28-10.79-47.55-17.19-71.08-1.39-5.09-3.18-10.07-4.83-15.09-.91-2.78-.09-5.15,1.51-7.39q-85.26-22.84-170.51-45.63c-.47-.12-1.16.58-1.74.9-.33,3,1.52,5,3.6,6.64,23.1,17.79,45.93,35.95,69.48,53.12,24.64,18,49.9,35.1,75.07,52.33A343.43,343.43,0,0,0,3761.2,1037.12Z"/><path class="cls-6" d="M2932.9,2097.42c2.53,2.92,5.51,3.66,8.7,1.33,5.38-3.92,10.78-7.84,15.9-12.09,44.23-36.75,83.71-78.12,119.3-123.23,62.9-79.68,111.09-167.37,142.68-263.93a784.38,784.38,0,0,0,34.72-159.6c4.24-39.11,7.67-78.27,6-117.55-1.63-37.19-3.17-74.49-9.89-111.27a33,33,0,0,1,0-6c-4.2-4.55-9.93-6.59-15.26-9.26Q3012.52,1184.64,2790,1073.47c-6.49-3.25-12.74-7.46-20.59-6.43-7.88,3.22-17.24.11-24.56,5.73,10.75,10.52,7.41,23.27,5.45,35.68-9.55,60.56-13.69,121.74-14.12,182.79-1.2,168.73,23.33,334.11,71.18,496,29.11,98.49,64.74,194.42,111.64,286A259.66,259.66,0,0,0,2932.9,2097.42Z"/><path class="cls-6" d="M3202.77,1117.48c-4.51-13.07-9.1-26.12-13.51-39.23-1.88-5.6-5.42-8.52-11.36-9.37-13-1.87-26-4.83-39-6.11-19-1.87-37.78-6.25-57-5.35,3.51,4.28,8.62,6,13.32,8.41q46.34,23.3,92.73,46.47C3192.59,1114.64,3197.11,1117.78,3202.77,1117.48Z"/><path class="cls-9" d="M3825.21,1562.68c14.26,7.58,28.53,15.12,42.75,22.75,4.56,2.45,9,5.14,13.46,7.72l15.72,4.46c2.48,1.82,6.09,1.07,8.22,3.66l-.11-.06c14.83,6.75,24-2.61,32-12.33,14.44-17.41,23.92-38.09,47.33-48.62,12.79-5.75,22.89-21.62,24.16-38.86,12.06-20.68,19.29-43.1,24-66.42q-53.23,3.68-94.55-30.07c-30.95.52-53,18.77-74.86,37.5-8.72,12-18.13,23.58-26.31,36a168.43,168.43,0,0,0-18.89,49.31C3815.39,1540.53,3815.63,1552.51,3825.21,1562.68Z"/><path class="cls-9" d="M3197.19,281.27c-10.5,22-21.63,43.73-31.49,66.1-16.85,38.26-43.37,69.1-77.47,93.36-3.73,2.64-7.25,5.58-10.86,8.38,5.93,5.62,12.59,3.25,18.55.82,31.92-13,62.39-28.56,88.56-51.49,6.65-5.82,9.88-13.91,14.35-21.12a5.18,5.18,0,0,0,1.21-4.24c3.3,1.64-.71,1.9-.6,3,0,.5-.43,1.05-.69,1.61-13.84,28.76-22.59,59.76-39.9,87-13.95,22-27.11,44.33-48.56,60.15a12.56,12.56,0,0,0-5,8.38c.44,1.86.42,4,1.41,5.52,3.35,5.09,2.65,9.61-1.15,14,5.48.1,10.29,1,13,6.84,4.37,9.51,10.47,18.2,11.72,29.08.67,5.82,2.85,11.46,4.35,17.18,28.67,5,51.55-9.44,74.75-22.52,2.75-1.55,4.94-4.28,7.75-6,11.58-16.07,23.08-32.18,34.73-48.19,13.65-18.73,27.64-37.18,44.38-53.36,6.65-6.43,13.16-13,21.11-17.84-10.42-3.36-18.27-10.89-26.13-17.72-27.09-23.57-51.61-49.5-70.83-80.18-5.24-8.37-8.28-16-5.29-26,3.68-12.27,3-24.86.16-37.34-1.17-5.16-2.06-10.38-3.08-15.57Z"/><path class="cls-9" d="M2937.85,328.66c22.25-3.88,44.33-8.27,66-15.1a829.64,829.64,0,0,0,98.43-38.3c9.06-4.18,13-10.72,14.72-19.65,1.35-7.16,2.54-14.36,3.79-21.53-4.77-.48-9.13-1.86-12.5-5.51-2.26-2.44-4.59-4.83-6.75-7.36-20.54-24-46.76-29-76.14-22.27-28.22,6.47-53.75,19.38-78.61,33.83-11.43,6.65-23.22,12.71-34.82,19,7.59,12,8.78,26.22,13,39.36C2929,303.75,2932.14,316.64,2937.85,328.66Z"/><path class="cls-9" d="M3105.33,533.18c22.58-11.07,35.59-31.4,48.89-51.22,20.13-30,34-63,45.28-97.18,1.22-3.7,1.3-7.79,1.9-11.69l.06.06c-2.6,2-6,3.45-7.68,6-14.6,22.58-37,35.35-59.73,47.47-14.56,7.76-29,16-45.05,20.54-3.76,1.05-7.75,1.29-11.63,1.91a14,14,0,0,0-9.54,7.82c9.45,20.38,18.86,40.78,28.42,61.11C3098.75,523.37,3100.66,529.13,3105.33,533.18Z"/><path class="cls-9" d="M3133.69,225.22c-3.19,14.11-5.78,28.39-9.81,42.24-2.14,7.35-.68,12.4,3.87,18,7.88,9.72,15,20.07,22.66,29.95,4.79,6.16,8,6.17,11.93-.13,6.64-10.61,12.79-21.53,19.23-32.27,2-3.38,4.32-6.61,6.49-9.91a182.26,182.26,0,0,1-8.16-24.46c-2.82-11.58-6.67-22.94-13-33.2-9-14.59-15.75-15.46-29.76-3.95C3134.84,215.79,3135.37,220.78,3133.69,225.22Z"/><path class="cls-10" d="M3133.69,225.22c4.29-3.79,3.7-8.79,3.43-13.72-3.85,2.14-6.85,4.95-7.52,9.59Z"/><path class="cls-2" d="M3217.15,577.27c-8,3.27-15.94,6.47-23.87,9.81-19,8-38.09,15.6-58.63,18.7q5.34,25.17,10.69,50.36a52,52,0,0,0,1.91,7.66c2.14,5.65,10.81,7.28,14.76,2.72a65.43,65.43,0,0,0,5.55-8.16q22.71-36.08,45.33-72.2A84.42,84.42,0,0,0,3217.15,577.27Z"/><path class="cls-11" d="M3201.4,373.09c.57-.3,1.65-.72,1.61-.88-.31-1.34-.91-1-1.55.94Z"/><path class="cls-12" d="M1199.94,2082.5c-2.25,4.09-5.12,8.37-7.07,13-7,16.8-5.21,32.56,7,46.41a40.78,40.78,0,0,0,45.37,11.5c17.23-6.36,26.71-18.87,28.38-37.26.42-4.54-1.27-9.29,1.69-14.47,8.35-.89,16.12,3.44,24.29,5.18,5.31,1.13,10.38,2.26,15.57,0,7.86-3.44,13.15-9,14-17.81,1-9.67-3.23-16.84-11.56-21.37-3.44-1.86-7.43-2.78-11.26-3.82q-59.6-16.2-119.21-32.3a53.22,53.22,0,0,0-7.71-2c-11.27-1.31-21,5.47-24,16.52-2.63,9.67,2.25,20.07,12.42,24.38,6.67,2.82,13.9,4.37,20.91,6.37C1192.62,2078,1196.79,2078.09,1199.94,2082.5Z"/><path class="cls-12" d="M1568.71,2025.87c6.11-8.33,14.63-12.58,21.31-18.8,3.89-3.62,8.42-6.65,11.78-10.68,6.5-7.8,5.88-20.2-.73-27.55s-16.33-9.49-25.33-4.72a77.3,77.3,0,0,0-11.39,8q-45.37,35.91-90.65,72a95.77,95.77,0,0,0-10.57,9.1c-7.44,8-8,19.05-1.92,27.39,6.6,9,18.3,11.32,28.47,5.77,5.8-3.16,9.92-8.94,17.72-11,8,20.78,22.11,34.75,45.87,32.93,18-1.39,30.91-11.39,36.92-29C1598.13,2056,1586.56,2039.9,1568.71,2025.87Z"/><path class="cls-8" d="M1505.36,2232.89c16.35,23.4,35.22,44.76,53.75,66.38.68.79,2.41.66,3.65,1,7.2-15.14,24.35-74.78,26.1-90.91-5.71-3.35-11.65-.65-17.26,0-20.4,2.56-40.71,5.74-61,8.84-1.87.28-3.59,1.57-5.38,2.4C1502,2224.75,1502.34,2228.84,1505.36,2232.89Z"/><path class="cls-8" d="M1505.36,2232.89l-.18-12.28c-26.39,1.28-52.2,7-78.33,10.31-1.9.24-3.69,1.38-5.53,2.1-1.8,3.58-10.6.19-8,8.1,17.35,25.81,38,49.06,57.51,75.05,7.44-9.6,6.45-20,9.14-29,3-10.13,4.41-20.73,6.72-31.07,2.17-9.69,4.62-19.32,6.89-28.76C1500,2224.74,1501.07,2232,1505.36,2232.89Z"/><path class="cls-8" d="M1413.27,2241.12l8-8.1c-15.7,1.88-31.53,3-47,5.9-11,2-22.6.76-33,6.08-2.2,3.55-11.23.62-8.45,8.9,5.33,10.84,14.25,19,21.58,28.28,11.78,15,24.22,29.45,37,44.85,5.4-6.52,4.92-13.2,5.74-19.5,2.82-21.62,5.49-43.26,8.58-64.85C1406.55,2236.93,1410.52,2240.65,1413.27,2241.12Z"/><path class="cls-8" d="M1332.87,2253.9q4.23-4.44,8.45-8.9c-16.64.09-32.9,3.47-49.19,6.22-12.25,2.07-25.1,1.46-36.75,7,6.4,16,37,67.83,48.32,81.41,2.78-6.46,4.09-12.57,5.4-18.7q6.24-29.14,12.6-58.25c.56-2.58,1.35-5.12,2.15-7.64C1326,2248.09,1329.66,2252.62,1332.87,2253.9Z"/><path class="cls-13" d="M3236.55,2280.87c17.34-18.14,34.78-36.18,52-54.44,21.74-23.07,43.28-46.32,64.91-69.49,3.88-6.66,5.38-14,2.72-21.09-2.9-7.78-2.13-15.69-2.95-23.57-1.85-17.71-4.13-35.39-6.6-53-1.83-13.09-1.92-26.29-4.68-39.39a159.56,159.56,0,0,1-3.69-29.36c-.31-16.71-3.23-33-5.51-49.3-2.47-17.64-2.08-35.59-6.53-53.07-2.75-10.78.43-22.65-4.49-33.35,1.53-16.73-4.27-32.71-4.84-49.37-.61-17.69-4.65-35.27-7.2-52.9-11.3-3.68-22.64-7.25-33.9-11.07-7.53-2.56-14.95-5.47-22.41-8.23l.13-.11a39.45,39.45,0,0,0-3,3.22c-24.8,69.74-58.1,135.24-98.55,197.17-4,6.08-7.55,12.4-11.31,18.6,0,10.75,3.33,20.94,6.16,31.07,6.74,24.21,14.48,48.13,21.43,72.28,10.05,34.94,19.61,70,29.67,105,7.5,26.06,15.49,52,23.19,78,1.69,5.7,2.71,11.62,4.65,17.22C3228.75,2264.26,3229.53,2273.92,3236.55,2280.87Z"/><path class="cls-14" d="M936.54,625.87c-2.25,4.84-4.37,8.28-5.48,12-2.54,8.56,1.66,18.25,9.14,22.21,8.43,4.47,19.66,2.45,25.3-5,2-2.57,3.13-5.83,4.21-8.93,1.45-4.13,3.92-4.55,7.66-3.19a34.82,34.82,0,0,0,9.6,2.38,9,9,0,0,0,9.32-6.15c1.62-4.16.34-7.86-3-10.68a21.42,21.42,0,0,0-5-3.15c-17.06-7.53-34.08-15.15-51.26-22.4-8.85-3.74-14.42-2-16.82,4.38-2,5.43,0,9,7.93,13.89C930.3,622.63,932.68,623.78,936.54,625.87Z"/><path class="cls-15" d="M1070.16,648.53c6.59-4.46,9.92-1.39,13.5,5.08,4.23,7.65,11.77,10.28,20.57,8.52,8.06-1.6,12.62-6.74,14.92-14.34,1.92-6.34-.47-11.84-3.6-17-2.21-3.64-1.42-6.24,1.59-8.46,3.72-2.76,8-4.82,11.35-8,2.88-2.77,4.26-6.66,1.91-10.88-2.51-4.52-7.19-6.94-11.57-5.29a63.6,63.6,0,0,0-8.9,4.43q-20.75,11.89-41.42,23.93a59.94,59.94,0,0,0-6.69,4.3c-4.2,3.25-5.46,7.9-3.57,12.31C1060.05,647.38,1063.94,649.18,1070.16,648.53Z"/><path class="cls-8" d="M1105.49,717.13c2.15-2.2,2.8-4.9-.16-6.37-2.19-1.09-5.14-.86-7.76-.86q-66.58-.07-133.19,0c-3.83,0-8.06-.86-10.85,3.08q13.89,10.5,27.75,0l7.89,4.48c9.7,1.2,19.73.46,28.88,4.91l2.41-3.08c1.41-1.84,2.8-5.39,5.26-1.4,5.52,8.93,10.62,18.12,15.9,27.2,1.33,2.29,2.68,4.55,6.75,5.57,4.21-10.59,8.46-21.39,12.81-32.15,2-5.05,5.07-1.73,7.79-.76C1081.17,718.76,1093.35,719.16,1105.49,717.13Z"/><path class="cls-8" d="M1105.49,717.13c-11.57-6.82-23.37-5.56-35.23-.89-.53.22-.86,1-1.29,1.47.34,1.27.36,2.76,1.08,3.77,6.38,9,9.45,20.28,18.5,27.51C1099,740.93,1101.25,728.5,1105.49,717.13Z"/><path class="cls-8" d="M1018.05,722.33c-.91-4.87-2.69-9.21-8.56-9.07-7,.16-14.7-2.78-20.32,4.16,1.63,3.52,2.59,7.65,5,10.46,5.69,6.51,5.5,17.77,16.2,20.17A54.14,54.14,0,0,0,1018.05,722.33Z"/><path class="cls-8" d="M981.28,712.94l-27.75,0c-.06,13.75,8.27,24.48,13.2,39.11C974.28,738.36,980.19,726.61,981.28,712.94Z"/><path class="cls-4" d="M2932.9,2097.42c3.66-2.87,1.56-5.91.13-8.79q-11.09-22.37-22.31-44.66c-22.12-44-40-89.75-57-135.86-9.88-26.78-19.35-53.74-28.18-80.89q-20.91-64.32-36.07-130.3c-8.29-36.11-16.33-72.3-23.26-108.69-4.19-22-4.29-45-9.55-66.69-4.11-17-.51-34.6-6.68-51.19-1.76-4.72-.49-10.56-.59-15.88-.14-8-.53-15.74-2.4-23.69-1.94-8.26-1.3-17.15-1.55-25.77-.47-15.9,1.34-31.91-3.63-47.53-1.15-3.64-.33-7.94-.33-11.93,0-19.31-.1-38.63,0-57.94.08-11.92.46-23.65,2.84-35.61,2.44-12.2.85-25.19,1.11-37.83.23-11.26-1.07-22.61,3.18-33.57,1.15-2.95.65-6.58.77-9.9,1.08-29.14,6.13-57.82,10.48-86.56,1.29-8.52.76-9.57-9-10.87-2-.27-4-.34-6-.5-20,1.73-39.19,7.4-58.49,12.38-73.32,18.95-142.71,47.33-207.13,87.42-22.09,13.75-43,29.18-63.35,45.34-5.87,4.65-7.89,10.11-7.63,17.27.86,23.3.4,46.7,2.38,69.9a1230.82,1230.82,0,0,0,18.67,134.43c25.87,130.58,70.32,253.86,143.6,365.8,72.28,110.43,166.34,197.06,283.38,258.34C2881.05,2076.59,2906,2089.21,2932.9,2097.42Z"/><path class="cls-16" d="M3250.51,1736.32c2.11,0,3-1.16,3-3.22C3251.31,1733.08,3250.09,1733.94,3250.51,1736.32Z"/><path class="cls-17" d="M183.33,1284.91c-4.51.43-7,4.7-5.24,6.31,5.81,5.43,6,11.44,5.65,19.13-.45,8.5,10.88,12.17,18,7,3.5-2.57,4-8.87,10.31-8,3.29.46,7.17.63,8.38-3.2,1.53-4.86-2.33-7.19-6-8.87q-12.67-5.81-25.58-11.13A21.32,21.32,0,0,0,183.33,1284.91Z"/><path class="cls-18" d="M292.1,1305.73c-2.6-4.79-1.88-8.72,2.8-11.81a5.77,5.77,0,0,0,2.46-3c.42-1.77.68-4,0-5.54a4.44,4.44,0,0,0-6.52-2.34q-15.59,8.61-30.92,17.72a5.94,5.94,0,0,0-2.62,6.89c.78,3,2.87,4.86,5.71,4,5.07-1.45,7,2.41,9.9,4.85,3.76,3.14,8,5,12.69,2.27C290.56,1316,293.45,1311.83,292.1,1305.73Z"/><path class="cls-8" d="M265.36,1348.63c-10.67-.75-21.35-2-32,.41a3.28,3.28,0,0,0,.47,4.82c2.67-.25,5.16,0,6.75,2.59,2,3.29,3.84,6.78,6.18,9.85,1.77,2.34,4.54,2.78,6.24,0,2.33-3.87,3.84-8.24,6.29-12,.54-.83,3.56,0,5.44,0Q267.69,1351.74,265.36,1348.63Z"/><path class="cls-8" d="M265.36,1348.63q-.3,2.8-.62,5.61c.68,1.84,1,3.9,2.1,5.47,2.16,3.13,3,8.18,7.53,8.37,4.83.21,5.24-5,6.93-8.19,1.48-2.82,2.3-6,3.5-9.25C278.17,1346.14,271.74,1347.65,265.36,1348.63Z"/><path class="cls-8" d="M233.84,1353.86c-.16-1.61-.31-3.21-.47-4.82-8-2.94-16,0-24-.3-2.4,3-2.17,5.91.23,8.77,2.9-2,5.53-6.57,9.23-1,2.14,3.23,4.14,6.57,6.41,9.71,1.73,2.39,4.83,1.9,5.9-1.18C232.4,1361.44,233,1357.6,233.84,1353.86Z"/><path class="cls-19" d="M209.61,1357.51c-.07-2.92-.15-5.85-.23-8.77-2-.27-4-.92-5.9-.72-5.81.59-7.27,2.62-5.87,7.56a11.67,11.67,0,0,0,1.31,3.75c1.82,2.48,1.18,7.62,5.23,7.35C209.25,1366.35,209.12,1361.41,209.61,1357.51Z"/><path class="cls-20" d="M3857.8,1433.06q-8.79,17.76-17.62,35.5c-1.66,3.33-1.55,6.27,1.33,8.86,10-8.9,17.3-19.89,23.59-31.6C3861.15,1442.44,3863.23,1435.61,3857.8,1433.06Z"/><path d="M3710.38,1461.63a1.5,1.5,0,0,0,0-3,1.5,1.5,0,0,0,0,3Z"/><path d="M3656.38,1443.63a1.5,1.5,0,0,0,0-3,1.5,1.5,0,0,0,0,3Z"/><path d="M3656.38,1443.63a1.5,1.5,0,0,0,0-3,1.5,1.5,0,0,0,0,3Z"/><path d="M3044.44,570.59a1.5,1.5,0,0,0,0-3,1.5,1.5,0,0,0,0,3Z"/></g></g></svg>