<?xml version="1.0" encoding="utf-8"?>
<!-- Generator: Adobe Illustrator 24.3.0, SVG Export Plug-In . SVG Version: 6.00 Build 0)  -->
<svg version="1.1" id="Layer_1" xmlns="http://www.w3.org/2000/svg" xmlns:xlink="http://www.w3.org/1999/xlink" x="0px" y="0px"
	 viewBox="0 0 6264.7 3469.4" style="enable-background:new 0 0 6264.7 3469.4;" xml:space="preserve">
<style type="text/css">
	.st0{fill:#CCDBF1;}
	.st1{fill:#00B6BC;}
	.st2{fill:#A1DBF1;}
	.st3{fill:#E4F4F3;}
	.st4{fill:#71D5E4;}
	.st5{fill:#5287D7;}
	.st6{fill:#54B7BC;}
	.st7{fill:#FA9746;}
	.st8{fill:#EFEBE0;}
	.st9{fill:#FAE8E0;}
	.st10{fill:#CCCFDC;}
	.st11{fill:#ED975E;}
	.st12{fill:#010000;}
	.st13{fill:#3E7BD7;}
	.st14{fill:#040202;}
	.st15{fill:#040101;}
	.st16{fill:#689FF1;}
	.st17{fill:#0F0606;}
	.st18{fill:#140808;}
	.st19{fill:#FBF1F1;}
	.st20{fill:#869DD0;}
</style>
<g>
	<path class="st0" d="M5531.3,2481.5c0.8-20.8-4.6-40.7-8.2-60.9c-4.8-26.9-11.5-53.4-21.2-78.7c-15.9-41.5-32.1-83-55.4-121.4
		c-14.5-23.8-27.8-48.3-42.2-72.3c-29.3-49.1-61.4-96.4-90.8-145.3c-19.9-33-39.3-66.3-57.1-100.5c-13.6-26-24.6-53.1-35.9-80.1
		c-12.9-30.7-22.5-62.4-30.8-94.6c-5.3-20.6-8.5-41.5-13.1-62.2c-5.7-26-7.6-52.5-9.9-78.7c-2.8-31.7-0.7-63.9-0.8-95.9
		c0-2-0.3-4.2,0.4-6c7-19.8,1.4-41,7.1-61.1c3.7-13.2,2.7-27.7,5.3-41.3c4.8-26,10.1-52,16.3-77.7c11.6-47.6,23.6-95.1,32.1-143.5
		c3.3-18.8,5.4-37.9,9.6-56.7c2.2-9.7,3.5-19.5,4-29.4c0.8-18.6,6.8-36.7,4.8-55.5c-0.4-4,0.1-8,1.5-11.8c2.6-7.1,2.3-14.4,2.3-21.7
		c0-12.7-0.1-25.3,0.1-38c0.1-5.3-0.1-10.9,1.5-15.8c2.3-7.2,2.4-14.4,2.4-21.7c0-16.7,0-33.3-0.1-50c0-4.7,0.7-9.7-0.8-13.9
		c-3.8-10.4-3.8-21.1-3-31.6c1.9-24.8-5.5-48.9-4.5-73.5c-4.9-12-2.8-25-5.2-37.3c-2.2-11.7-4.6-23.4-6.6-35.1
		c-3.3-18.9-5-38.2-9.7-56.7c-14.4-58-28.9-115.8-50.3-171.8c-15.2-39.8-32.3-78.7-50.3-117.2c-17.4-37.4-38.9-72.7-60.4-107.9
		c-14.9-24.3-31.4-47.7-47.5-71.2c-7.5-11-14.7-22.3-23.5-32.1c-14.2-15.8-25.8-33.7-40.1-49.5c-18.2-20.1-34.6-42.1-54.2-60.9
		c-27.4-26.2-52.1-55.1-82.2-78.6c-11.5-8.9-21.4-19.7-32.8-29c-21-17.2-41.8-34.6-63.5-51.2c-44-33.4-89.7-64.1-136.6-93
		c-43.6-26.9-88.6-51.2-134.2-74.5c-15.4-7.8-31.4-14.5-47.1-21.6c-15.7-7.2-31.3-14.8-47.3-21.2c-26.5-10.6-53.5-19.9-80-30.6
		c-50.7-20.2-103-35.7-155.6-49.7c-55.7-14.8-111.7-28.7-168.8-36.9c-5.9-0.8-11.4-3.2-17.5-3.6c-13.2-1-26.4-2.3-39.4-4.6
		c-18.9-3.2-37.7-7.2-57-7.2c-2.6,0-5.6,0.2-7.9-0.8c-8.9-3.9-18.3-2.9-27.6-3.1c-4.7-0.1-9.7,0.9-13.9-0.6
		c-15.7-5.2-31.7-2.7-47.6-3.3c-8.7-0.3-17.7,1.2-25.9-1c-11.3-3.1-22.4-2.8-33.6-2.9c-26-0.1-52,0-78,0.1c-5.3,0-11.1-0.9-15.9,0.8
		c-11.7,4-23.7,2.9-35.6,3.2c-14.6,0.4-29.3-1.5-43.6,3.5c-3,1.1-6.6,0.8-9.9,0.5c-19.4-1.8-38.4,3.3-57.4,5.2
		c-21.5,2.2-43.2,6.3-64.6,10c-32,5.4-63.9,11.4-95.5,18.6c-38.8,8.9-77.2,19.8-114.9,32.7c-34.6,11.8-69.1,23.7-102.9,37.9
		c-33.7,14.2-66.1,31.4-98.9,47.6c-32.3,15.9-62.6,35.1-93,54.1c-35.5,22.2-68.2,48.4-100.9,74.4c-10.8,8.6-22.2,16.9-31.9,27
		c-41.2,42.4-86,81.5-121.4,129.4c-11.4,15.5-24.1,30-34.7,46c-26.1,39.3-51.3,79.2-77,118.7c-34.8,53.4-70,106.7-106.7,158.8
		c-6.9,9.8-14,19.5-20.5,29.4c-8.8,13.3-20,24.9-26.7,39.6c-6.3,6.3-8.8,14.8-12.5,22.5c-15.9,32.3-34,62.8-61.5,87.1
		c-14.5,12.7-32.9,19.8-46,34.2c-7.7,12.5-17.3,23.6-27.1,34.5c-27.2,30-26.2,34.3,11.4,46.8c80.3,26.8,155.1,63.8,222.4,115.7
		c14.4,11.2,21.3,23.1,21.2,42c-0.2,36.7-3.3,73.1-7.7,109.5c-19.4,160.5-62.9,313.4-143.9,454.3
		c-81.3,141.4-191.3,253.6-337.4,328.5c-5.1,2.6-12.2,3.8-9.2,12.4c12.2,20.7,22.8,42.2,33,64c38.6,82.3,71.4,166.4,83.9,257.4
		c9.6,70,20.6,139.8,30,209.8c25.5,190.2,46.3,380.9,67.8,571.5c2.5,22.1,8.9,44.8-0.7,67.1c4.7,39.7,25.4,69.6,58.4,90.7
		c25.8,16.5,53.4,29.9,83.5,37.1c32.7,7.8,67.4,11.5,89,42.5c0.6,0.9,2.4,1,3.6,1.3c9.8,2.2,19.9,1.6,29.8,1.6
		c666.5-0.8,1333.1-1.7,1999.6-2.5c10,0,20,0.6,29.9-2.1c4.9-1.5,7.4-4.8,9.2-9.6c14.1-37.1,36.4-49.5,76.1-42.9
		c5.3,0.9,10.6,1.3,15.8,2.2c13.5,2.2,20.9-4,21.3-17c0.5-16,3-31.8,4.9-47.7c9.3-76.2,21.8-151.7,51.7-223.1
		c9.9-23.5,22.6-45.4,43.8-60.9c20.6-15,53.4-14.5,73.3,0.6c14.4,10.9,15.6,31.4,3.8,59c-2.7,6.1-5.9,12-9.3,17.7
		c-13.4,23.1-28.9,44.8-43.5,67.1c-39.6,60.2-63,127.6-86.1,195c-5.8,17-0.4,23,17.2,25.3c12.7,1.7,18.2-5.1,22-15.5
		c10.3-28.2,21.5-56,34.4-83c16.2-33.7,34.9-65.9,63.6-91.1c22.7-19.9,47.7-24,74-11.4c22.9,11,28.8,28.5,16.4,50.9
		c-7.1,12.9-16.7,24.2-28.4,33.2c-43.3,33.3-91.1,60.3-134.5,93.5c-5.3,4-11.1,7.4-15.4,12.6c-6.8,8.2-6.5,14.5,5.1,17
		c10.4,2.3,20.9,5.1,31.6,4.5c47.9-2.6,94.4,2.5,138,24c5.9,0.9,11.9,1.3,17.9,1.2c177.5-0.2,355-0.4,532.4-0.6c0,0,0,0,0,0
		c0.8-1,2-1.7,3.7-1.8c4.7-4.3,9.4-8.5,14.3-12.5c0-1.9,1.1-3.6,2.9-4.4c0-0.1,0.1-0.2,0.1-0.3c1-2.5,2.2-4.9,3.3-7.3
		c11.3-24.1,22.8-48.1,33.9-72.3c5.6-12.1,11.1-24.2,15.6-36.7c11-30.6,22.4-61,31-92.5c12.3-44.8,22.8-89.9,25.3-136.5
		c0.1-3.3,0.7-6.6,1.7-9.8c2.2-5.8,2.4-11.8,2.1-17.7C5533.9,2534.5,5538.4,2507.7,5531.3,2481.5z"/>
	<path class="st0" d="M1094.1,1804.3c-18.4-111.1-49.6-219.7-69.6-330.5c-1.1-5.9-2.6-11.8-8.1-15.5c-9.1-3.5-15.3,2-21.6,6.9
		c-28.7,22.2-47.9,51.8-62.3,84.4c-24.8,56.4-33.7,116.3-35.6,177.3c-1.8,56,0.3,112,8.7,167.5c2.1,14.2-3,22-16.1,27.8
		c-96.1,42.3-194.6,77.3-297.4,99c-72.6,15.3-145.8,24.8-220.3,14.2c-52-7.4-100.7-23.2-138.1-61.5c-39.6-40.7-87.3-65-141.3-78.7
		c-103-26.1-207.3-22.9-311.8-12c-27.7,2.9-29.4,2.7-28.6-24.3c3.4-117.2,26.1-230.5,73.3-338c67-152.7,174.3-266.6,329.2-332.8
		c38-16.2,77.1-29.7,113.9-48.6c107.4-55.2,175-138.8,190.4-261.5c6.3-50.3,9.1-100.8,14.9-151.1c0.8-6.5,0.8-13.5-5.2-18.4
		c-5.3,4.7-2.8,11.3-4,16.9c-0.7,3.6-2.5,6.5-6.3,6.5c-19.3,0-38.8,1.7-57.9-0.8c-21.3-2.7-42.1-4.3-63.2,0.6
		c-3.2,0.8-6.6,0.7-9.9,0.8c-19.9,0.6-39.6,0.1-59.6,3.4c-19.5,3.3-39.3,5.1-58.8,8.6c-41.1,7.3-81.7,17.8-121.3,31.1
		c-20.1,6.8-39.8,14.8-59.4,23.2c-47.7,20.5-93.5,45-137.1,73.2c-29.5,19.2-57.6,40.3-85.5,61.7c-24.3,18.7-46.2,39.9-69.5,59.5
		c-19.3,16.2-35.9,35.7-54,53.4s-32.2,39-51.4,55.7c-0.5,0.4-1,0.9-1.4,1.5c-19.7,25-39.2,50.2-59.2,74.8
		c-23.5,28.8-44.5,59.5-65.9,89.9c-12.2,17.4-23.2,35.6-34.7,53.5c-21.6,33.6-41.1,68.3-59.6,103.7c-20.3,39-37.7,79.2-54.3,119.9
		c-20.7,50.6-36.5,102.6-49.8,155.5c-10.5,41.7-19.8,83.7-24.2,126.7c-2.4,23.7-7.6,47.1-7.4,71c0,3.9-1.4,7.8-2,11.7
		c-0.7,4.6-1.8,9.2-1.7,13.8c1.8,53.2-3.9,106.5,3.7,159.6c2.2,15.7-1,32,4.3,47.5c-1.3,24.8,6.8,48.5,9.1,72.9
		c1.9,21,7.2,41.8,12.1,62.4c17.3,72.4,37.6,144,64.6,213.3c19.1,49,41.3,96.6,64,143.9c8,16.8,17.6,32.8,26.6,49.1
		c8.6,15.8,16.6,31.9,26,47.2c17.8,28.8,36.3,57.2,54.6,85.7c30.3,47,63.3,91.8,99.9,134c0.8,0.8,1.4,1.7,1.9,2.7
		c1.9,0.6,3.3,2.4,3.3,4.4c0.8,0.6,1.6,1.2,2.4,1.9c0.8,0,1.7,0.3,2.5,0.8c6.4,4.2,13.1,7.6,20,10.6c141.5-0.2,283-0.3,424.5-0.5
		c10,0,20,0.3,30-1.3c6.7-1.1,31.9,0.8,38.6,1.2c82,4.9,32.2-3.8,57-0.1c8.6,1.3,15.2-9.7,18.7-20.4c3.4-10.3-10.9-12.6-18.9-16.6
		c-27.5-13.6-56.8-23.2-83.8-37.8c-3.9-2.1-9.4-4.8-8-10.2c1.5-5.7,7.6-4,12-4.3c26.5-2,47.7,9.6,66.6,26.6
		c13.9,12.5,25.5,27.2,38.5,40.6c5.9,6,13.4,6.6,20,1.5c7.7-5.9,2-12.4-1.6-17.4c-10.2-14-22.6-26.3-33.4-39.8
		c-39.1-49-79.4-97.1-108.7-153c-5.9-11.2-11.3-22.8-12.2-35.7c-1-16.5,6.1-23.5,22.7-22c19.5,1.8,35.5,10.9,49,24.6
		c21.4,21.6,36.6,47.3,49.1,74.8c21.6,47.6,34.7,98,47.1,148.5c2.2,8.8,3.4,19.8,16.4,18.8c13.3-1,14.7-11.3,15.5-21.8
		c0.8-11.4,2.5-22.8,9.1-32.4c7.5-11,18-20.2,31.7-14.8c13.3,5.2,10.1,18.5,8.4,29.8c-0.7,4.6-2.3,9-3.5,13.6
		c-1.1,4.6-2.8,11.4,1.7,12.8c19.2,6.2,28.8,25.3,46.6,32.8c6.5,1.3,13.2,1.3,19.8,1.3c184.8-0.2,369.6-0.4,554.4-0.7
		c8.6,0,17.4,0.4,25.3-4.2c7.2-6.5,5.1-14.6,3.2-22.2c-3.7-14.9-3.6-30-4.2-45.2c-1.2-30.5,5.9-60.4,5.5-90.8
		c-8.9-17.1-9.7-35.4-9.9-54.3c-0.9-111.9,3.8-223.6,11.1-335.2c5.9-89.8,13.3-179.3,28.8-268c9.6-54.6,21.8-108.5,52.3-156.3
		c8.7-13.7,11.8-29.4,14.9-45.3C1108.9,1892.4,1101.3,1848.1,1094.1,1804.3z"/>
	<path class="st1" d="M1017.8,1435.4c-1.8-13.1-4.3-26.1-6.2-39.2c-8.3-57.6-11.9-115.6-13.5-173.8c-0.9-3.9-2.9-7.4-5.8-10.2
		c-24.4-22.1-33.6-50.8-38.6-82.2c-2.1-13.6-0.9-27.7-5.9-40.8c-5.1-6.3-10.9-3.4-16.7-1.4c-3.5,1.7-6.9,3.4-10.4,5
		c-1.7,0.8-3.4,1.6-5,2.5c-31.2,15.7-31.2,15.7-23.5,37.3c6.3,17.7,3,25.8-13.9,33.3c-15.4,6.9-21.9,4.4-31.1-13.7
		c-18.1-35.5-35.5-71.4-53.9-106.8c-7.6-14.8-5.5-25.1,9.5-32.8c7.5-3.9,16-7.4,17-17.8c-7.7-22.6-16.3-44.9-23-67.8
		c-26.4-57.5-53.4-114.7-77.3-173.4c-32.3-79-61.5-158.9-80.3-242.6c-11.2-50,0.7-91.2,33.3-129.5c33-38.7,69.4-73.7,107.6-106.8
		c70.7-61.1,145.9-116.3,224.6-166.5c68.1-43.4,137.4-84.3,214.9-109.6c38.9-12.7,79.3-17,119-25.3c4.7-4.5,1.6-7-2.4-9.3
		c-13.9-1.3-27.8-3.3-41.8-3.9c-70.1-3.1-139.7,0.8-208.7,14.7c-143.1,28.7-266.4,94.4-370.1,197c-49,48.5-90.5,103-126.7,161.6
		c-60.2,97.8-97.8,203.6-112.5,317.6c-2.5,19.1-5.3,38.2-7.9,57.3c-0.2,7.3,0,14.7-0.6,21.9c-2,23.2-4.7,46.4-6.3,69.6
		c-2.3,33.9-6.2,67.6-12.6,101c-6.7,34.8-17.3,68.4-34.6,99.6c-23.1,41.6-55.9,74.3-94.7,101.3c-41.3,28.8-86.7,49.4-133.4,67.3
		c-18,6.9-36,14.1-53.5,22.2c-126.5,58.8-221.2,151.3-286.7,273.9c-62.9,117.8-92,244.8-99.3,377.4c-0.7,12.7-0.5,25.3-0.4,38
		c0.1,11.2,0.6,11.3,11.1,10.3c30.4-3.1,60.9-7.3,91.4-8.7c61.9-2.8,123.8-3.2,185.4,6.3c33.7,5.2,66.8,12.4,98.6,24.6
		c34,13,64.7,31.1,89.8,58.1c29.5,31.7,66.6,50.3,108,61.4c49.6,13.3,100.3,14.4,150.8,10.5s100.2-13.1,149.4-25.4
		c65.2-16.5,129.2-37.2,191.7-62.1c26-10.3,51.7-21.4,77.2-32.7c11.9-5.3,15.1-4.6,12.5-22.2c-4.6-30.2-7.5-60.8-9.3-91.3
		c-1.6-27.2-1.2-54.6-0.7-81.9c0.7-40.7,6.1-81.1,16.1-120.5c8.8-35.1,21.8-68.5,42.9-98.3c14.4-20.3,30.8-38.5,52.9-50.7
		C1020.3,1451.3,1018.8,1443.3,1017.8,1435.4z"/>
	<path class="st2" d="M827.3,932.9c25-5.3,50.8-10.3,64.8-35.8c0.5-34-3.7-67.7-6.3-101.5c-6.9-90.2-13-180.4-11.2-271
		c0.5-23.7,1.4-25.3,24.6-31.1c60.7-15.3,121.3-30.7,181.4-48.4c54.1-15.7,108.7-29.5,165.6-45.8c-35.5,27.7-69.3,52.4-102.9,77.4
		c-26.7,19.9-56.8,34.5-82.8,55.2c-4,5.5-5.6,12-7.2,18.5c-15,60.7-31.3,121.1-46.9,181.6c-5.6,21.8-13.3,43.3-14.3,66.2
		c13.2,36.8,29.5,72,52.8,103.7c11.7,4.2,20.7-2.8,30-7.4c155.1-77.9,310.3-155.6,465.6-233.2c14.6-7.3,25.6-16.2,29.6-32.3
		c9-27.8,18.5-55.4,26.9-83.4c6.1-20.4,17.8-30.1,39.1-33c72.3-10,145.1-15.5,218.1-16.4c5.3-0.1,10.8,0.1,15.7-1.9
		c41.3-17.6,80.8-38.8,120.5-59.7c5.8-3,11-8.1,6.4-16.1c-6.6-36.6-15.3-72.8-25.4-108.6c-13.2-47.2-37.3-88-73-121.7
		c-38.5-36.4-82.2-65.2-130.4-87.3c-7.7-0.3-11.9,5.3-16.6,9.8c-15.5,14.6-32,28.1-48.8,41.2c-20.8,16.2-22.1,23.3-6,44.2
		c19.5,25.6,25.5,54.2,21.8,87.2c-13.5-17.2-26.8-32.2-31.3-52.5c-1-4.4-2.6-9.9-7.5-11.1c-6.6-1.7-8.7,4.8-11.7,8.8
		c-4,5.3-7.2,11.3-12.2,15.7c-3,2.6-6.2,6.2-10.4,4.6c-4.5-1.7-3.8-6.5-3.8-10.4c0.3-13.8,5.2-25.7,13.2-37
		c11.8-16.7,8.6-27.3-10.1-36.2c-17.4-8.3-35-16.4-51.6-26.3c-70.8-42.1-133.6-94.3-192.3-151.8c-7.4-7.3-13.5-17-25.5-17.7
		c-11.8,2.2-23.9-4.2-35.5,1.4c-6.6,0.4-13.3,0.5-19.9,1.4c-58.5,7.3-114.7,22.8-168.2,47.6c-51.4,23.9-100.3,52.3-147.9,83
		C913.4,161,827.3,224.6,747.8,296.9c-27.1,24.7-52.9,50.6-76.4,78.8c-11.5,13.8-22.1,28.3-30.6,44.3c-9.6,17.7-13.4,37.9-11.1,57.9
		c2,19.2,5.1,38.2,9.4,57c11.4,49.4,27.9,97.1,45.5,144.5c24.1,64.9,51.7,128.3,80.4,191.3c9.1,19.9,19.2,39.5,28.8,59.2
		C804,941.1,816.3,935.1,827.3,932.9z"/>
	<path class="st3" d="M2336.3,326.2c-3.9,9.1-13.2,10.8-20.7,14.5c-403.5,202.6-807.1,405.1-1210.8,607.6
		c-9.8,4.9-21.9,7.3-26.6,19.5c5.9,24.7,14.9,47.8,34.5,65.3c12.8-2.2,23.3-9.5,34.5-15.1c123.8-62.3,248-124.6,372.5-186.8
		c1.7,8.8-2.1,18.1,5.6,24.6c7.1-0.9,8.3-6.8,8-11.8c-1.2-17,8.5-25.2,22.5-30.9c7.3-3,14.3-6.9,21.4-10.5
		c152.6-76.7,305.3-153.4,458-230c7.2-3.6,14.8-5.9,22.2-8.9c48.4-29.1,100.2-51.5,150.1-77.7c8.8-4.6,18.2-8.1,24.9-16
		c11.3-9.1,25.1-14.3,36.3-23.8c14.1-12.1,28.2-24.3,39-39.4c15-21.1,26.9-44,37.9-67.4c2-4.2,2.9-8.8,2.7-13.5L2336.3,326.2z"/>
	<path class="st4" d="M2295.2,319.7c-22.4-3.2-45.2-3.6-67.4-0.1c-20.2,3.1-39.6,10.4-58.1,19.9c-49.1,25-98.4,49.5-147.7,74.2
		c-4.7,2.4-9.6,4.6-14.3,7c-4.4,2.2-7.6-0.5-11-2.4c0,8-5.9,11-12,14c-35.3,17.7-70.7,35.2-105.9,53.3c-7.3,3.8-14.9,4.9-22.7,5.5
		c-37.5,19.1-74.9,38.3-112.7,56.6c-40,19.6-78.9,41.4-119.8,59.2c-16.5,9.5-35.2,15.8-49.8,27.6c-9.8,7.9-5.7-5-9.4-3.7
		c-1.1,1.6-3.1,3.2-3.2,4.9c-0.4,7.7-4.7,12-11.3,14.7c-1.8,0.8-3.6,1.7-5.4,2.6l-479.7,240.6c-5.9,3-11.7,6.4-18.6,6.7
		c-1.8,23.3,15.9,38.9,23.4,58.5c1.7,4.6,4.5,9.8,11.2,9.2c5.2-6.6,13.2-8.7,20.2-12.3c407.8-204.6,815.6-409.1,1223.4-613.7
		c5.8-2.9,11.5-5.9,17.7-9.1l-5.9-6.8C2322.6,324,2308.9,321.7,2295.2,319.7z"/>
	<path class="st5" d="M1627-222.1c4.7-1.6,8.9-4.6,11.9-8.5c11-16.2,11.3-36.8,21.5-53.4c6-9.7,12.1-16.4,23.6-7.4
		c3.5,2.9,6.7,6.2,9.4,9.8c3.5,4.5,6.5,9.7,12.6,11.5c9.3,1.7,15-3.9,20.3-10c19.4-22.6,44-27.7,72.1-21.9
		c31.1,6.3,57.8,22.8,85.2,37.6c9.3,5,18.1,11.4,29.6,9.8c2.6,0.4,5.2,1,7.8,1.3c29.3,2.8,54.6-12.8,65.4-40.4
		c0.3-0.7-0.8-2-1.4-2.9c-0.2-0.3-1.3,0-1.9,0.3c-2.4,1.1-4.8,2.3-7.1,3.4c-4.2,1.4-6,0.4-4-4.1c8.9-8,16.7-17.3,23-27.5
		c17.5-28.7,18.4-57.7,1.3-87c-14.6-25.1-35.2-43.1-62.1-54c-13.5-5.6-27.8-9.3-42.3-11.1c-27.8-3.2-55.2-8.9-82-16.9
		c-7.6-2.3-15.4-4.3-23.2-6.1c-17.5-4.2-35.4-6.4-53.4-6.4c-34,0.1-60.1,15-79.6,42.2c-9,12.5-15.8,26.2-21.7,40.4
		c-12.7,30.1-21.4,61.7-25.9,94.1c-4.9,35.3-5.4,70.4,6.9,104.6C1617-220.8,1621.9-220.8,1627-222.1z"/>
	<path class="st5" d="M1771.4,93.8c4.7-9.9,4.5-13.8-3-21.1c-4.3-4.1-9.1-7.7-14.2-10.7c-10.7-6.6-22.3-11.8-34.4-15.4
		c-9.6-5.4-14.5,0.7-18.9,7.8c-7.8,12.5-11,26.5-14.2,40.7c-3.3,15-5.8,30.1-9.2,45c-1.1,5-1.1,11.8-7.3,13.1
		c-6.4,1.4-8.8-5.1-11.6-9.3c-16.4-24.3-30.7-49.9-47-74.2c-25-36-48.3-73.3-80.3-103.9c-6.8-6.5-13.3-13-23.4-13.8
		c-13.7-5.7-28.1-6.6-42.7-6c-30.1,1.1-58.3,9.6-85.5,21.8c-0.4,0-0.8,0.4-1.4,1.3c-0.5,0.9-0.3,2,0.8,3.1
		c44.5,47,93.3,89.1,145.3,127.6c38.6,28.6,78.9,54.4,123.9,71.9c10.6,4.1,12.8,14.7,4.7,23.7c-7.8,8.7-13.5,18.4-15.6,29.7
		c-2,10.9-4,22.2,2.4,32.7c13.9,0.2,20.4-10.4,27.7-19.4c4.1-5,6.9-11.1,11.1-18c4.6,14.8,7.6,28.4,15.6,40.2
		c12.8,18.8,18.5,25.4,30.3,30.9c0.7-15.7,0.8-30.9-1.5-46c-1.8-11.9-5.4-23.4-10.7-34.2c-4.1-8.4-9.8-15.9-16.9-22
		c-5.7-4.9-5.2-12-5.9-18.4c-0.5-4.3,4.4-6.2,7.5-8.5c24.9-18.9,48.6-39.4,70.7-61.5C1769.2,98.5,1770.3,96.1,1771.4,93.8z"/>
	<path class="st1" d="M1648.4-172.5c18.2,50.4,52.1,88.2,96.1,117.7c4,2.7,7.7,5.9,13,5.5c10.8-0.3,20.7,4,30.9,6.4
		c29.6,6.9,42.7,1.3,60.5-23.9c11.3-15.9,17.9-33.9,25.1-51.6c6.4-15.9,11.2-32.5,16.6-48.8c1.4-4.1,0.8-7.8-3.3-10.4
		c-3.5-5.7-9.2-7.1-15.2-8.1c-40.8-6.6-79.1-21.3-117.2-36.4c-21.2-8.4-42.5-16.5-45.5-43.9c-0.3-2.5-3.2-4.1-5.1-5.9
		c-3-4.3-5.9-8.7-8.9-13c-3.6-1.1-5.3,1.1-6.7,3.8c-2.5,8.1-0.2,16.2,2.9,23.1c9.8,22.3,0.5,38.8-13.4,55.3
		c-8.4,9.9-12.9,7.9-18.9-1.8c-6.3-10.2-8.3-24.2-22.3-28.4l-9.1,8.2C1626.6-204.3,1642-190.2,1648.4-172.5z"/>
	<path class="st6" d="M1349.4-35.4c-4.2-1-8.8-0.4-13.3-0.5l3.4,6.6l39.6,1.4c0.2-1.5,0.4-3,0.6-4.4
		C1369.6-32.6,1359.4-32.9,1349.4-35.4z"/>
	<path class="st5" d="M1971.9-297.2c-1.6,0.8-3.2,1.7-4.7,2.7c-0.8,0.7-1.1,2.1-1.7,3.2c1.4,0.7,3,2.1,4.4,2.1
		c2.5,0,4.8-1.5,5.9-3.8C1974.6-294.4,1973.2-295.8,1971.9-297.2z"/>
	<path class="st1" d="M3288.7,2064c5.3,2.8,10.5,5.8,15.7,8.8c56.1,32.4,115.8,53.9,180.4,60.8c2.7,0.2,5.3,0.6,7.8,1.4
		c2.6,0.8,4.4,3.3,4.2,6c-0.1,2-0.6,3.9-0.8,5.9c-5.9,53.6-11.8,107.2-17.9,160.8c-1.9,17.2-4.3,34.4-6.7,51.5
		c-1.2,8.7-1.5,9.1-9.8,9.6c-14,0.8-27.8,3.4-41.1,7.7c-8.3,2.7-16.2,6.3-22.8,12.1c-9.5,8.4-11.2,19.8-4.6,30.6
		c4.2,6.9,10.1,12.5,17.1,16.5c8.6,5,17.6,9.4,26.8,13.3c23,9.4,47.4,13.2,72,15.1c18.7,1.5,37.3-0.3,55.6-4.1
		c11.8-2.5,23.2-6.3,32.8-14c12.5-10.1,14-24.4,3.6-36.7c-5.6-6.7-12.7-11.8-20.3-16c-10.6-5.7-21.6-10.3-33.1-14
		c-9.4-3.1-10.1-4.1-9.2-14.6c1.6-18.6,3.6-37.1,5.7-55.6c3.5-31.1,7.2-62.2,10.8-93.3c2.7-23.2,5.3-46.3,8-69.4
		c0.9-7.4,2.3-8.6,10.2-9.4c1.3-0.1,2.7-0.1,4-0.2c29.9-2.1,59.5-7.1,88.5-14.8c19.9-5.4,39.5-11.9,58.7-19.6
		c6.3-2.5,8.2-1.7,11.4,3.9c1.6,2.9,3.1,5.9,4.5,8.9c25,50.8,50.1,101.6,75.1,152.4c5.6,11.4,11.1,22.8,16.5,34.2
		c3.6,7.7,3.6,8.6-2.9,13.3c-10.3,7.4-19.7,15.9-28.1,25.4c-7.1,8.1-13.1,16.7-15.6,27.5c-2.6,10.8,1.1,19.8,11,25.2
		c3.5,1.9,7.4,2.9,11.2,4.1c12.6,4.2,25.1,1.9,37.6-0.4c45.8-8.4,85.6-28.6,119.4-60.6c7.9-7.3,14.2-16,18.7-25.7
		c8.7-19.3,0.6-34.7-20.4-38.1c-5.9-1-11.9-0.9-17.9-1c-14.2-0.3-27.9,2.6-41.2,6.8c-5.9,1.9-8.8-0.5-11.1-5.1
		c-1.5-2.9-3-5.9-4.5-8.9c-27.1-55-54.2-110-81.2-165c-3.5-7.2-7-14.4-10.3-21.6c-3.7-8.1-3.3-8.9,4.6-14.5c3.3-2.3,6.7-4.4,10-6.7
		c34.3-23.5,65.6-50.2,92.4-82.1c8.1-9.7,16-19.6,24-29.5c6.5-8,6.5-8,16.6-3.7c1.2,0.5,2.4,1.2,3.6,1.8
		c33.5,14.8,67,29.6,100.5,44.5c28,12.4,56.1,24.6,84,37.3c13.8,6.3,17.4,4.8,12.6,23.5c-3.7,14.3-3.5,29-2.6,43.7
		c0.3,6.7,2.3,13.2,5.7,18.9c5.7,9.4,14.7,12.7,25.7,10.1c8-1.9,14.8-6,21-11.2c9.2-7.7,17.5-16.5,24.5-26.2
		c19.6-27.1,33.6-57.8,41.1-90.3c3.5-15.1,4-30.3,3.1-45.7c-0.3-6.7-2.3-13.2-5.6-19c-6.1-10.5-15.7-14.2-27.2-10.4
		c-8.2,2.8-15.8,7.3-22.1,13.2c-9,7.9-17.1,16.9-24,26.7c-8,11.7-8.7,13.5-24.3,6.1c-1.8-0.9-3.6-1.6-5.5-2.5
		c-56-24.7-112.1-49.5-168.1-74.4c-19.5-8.6-18.2-6.8-9.5-25.6c31.3-67.3,46.6-141,44.5-215.3c-0.1-3.3-0.3-6.7-0.2-10
		c0.2-6.5,2.1-8.6,8.5-8c15.3,1.3,30.5,2.9,45.7,4.6c45,5,90,10.1,135,15.3c5.3,0.6,10.5,1.7,15.7,2.7c2.7,0.4,4.8,2.6,5.2,5.3
		c1,5.9,2,11.8,2.5,17.8c0.8,10.1,3.4,19.7,6.6,29.1c2.8,8.2,6.6,16,13.1,22.2c8.4,8,19.4,9.2,29.3,2.8c6.3-4,11-9.6,15.3-15.6
		c6.9-9.9,11.8-20.9,15.8-32.2c12.6-35.2,15.1-71.6,11.6-108.4c-1-10.5-4.6-20.7-7.5-31c-1.9-6.4-5.1-12.4-9.5-17.4
		c-10.8-12.9-23.7-14-36.6-3c-3.9,3.6-7.4,7.6-10.5,12c-6.8,9.1-11.6,19.4-15.4,30.2c-1.6,4.4-2.8,8.9-4.4,13.3c-2.6,7-4,8-11.8,7.7
		c-5.3-0.2-10.6-0.7-15.9-1.4c-15.9-2-31.7-4.2-47.6-5.9c-41.7-4.5-83.4-8.9-125.1-13.4c-7.9-0.9-15.8-2.2-23.8-3.1
		c-4.5-0.5-7.3-2.7-8.5-7c-0.9-3.2-1.8-6.4-2.7-9.6c-11.8-47.6-31.4-91.9-56.9-133.7c-1.7-2.8-3.6-5.6-5.3-8.5
		c-2.8-4.9-2.2-7,2.6-9.6c2.9-1.6,6-2.9,9-4.3c67.4-30.4,134.9-60.7,202.3-91c2.9-1.3,5.8-3.3,10.5-2.1c5.1,6.7,10.5,14.2,16.4,21.4
		c9.4,11.4,19.9,21.7,33.7,27.6c16.2,6.9,29.5,0.8,34.6-15.8c2.9-9.5,4.7-19.5,3.6-29.6c-5.5-49.8-24.2-93.8-57-131.8
		c-8.8-10.1-19.2-18.5-32.1-23.1c-12.4-4.4-22.6-0.8-28.9,10.4c-3.7,6.5-5.2,13.6-5.5,21.1c-0.7,15.3,0.7,30.7,4.3,45.6
		c2.7,11.1,2.4,11.4-8.5,16.4c-27.9,12.7-55.8,25.2-83.8,37.7c-46.2,20.8-92.4,41.5-138.6,62.1c-8.8,3.9-9.1,3.9-15.4-2.8
		c-31.9-33.2-68.3-61.8-108.2-84.8c-1.7-1-3.4-2-5.1-3.1c-3.2-2.1-4.3-4.9-2.7-8.5c1.9-4.2,4-8.4,6-12.6
		c31-64.2,62-128.4,93.1-192.5c4.1-8.4,8-16.8,12.3-25.1c3.3-6.4,5.4-7.1,13-5.4c7.8,1.8,15.5,4,23.4,5.3
		c12.5,2.1,25.2,2.9,37.6-0.7c19.3-5.7,25.1-18.6,17.1-36.9c-4-9.3-10.2-17.2-17.3-24.2c-36.5-35.7-80.5-56.1-130.7-63.6
		c-12.6-1.9-25.4-1.3-37.3,4.2c-11.5,5.3-16.1,15.9-12.7,28c2.7,9.9,8.4,18.1,15,25.7c7.5,8.5,15.9,16.2,25,22.9
		c10.7,8.1,10.7,8.3,4.5,21.1c-35.2,72.5-70.3,145.1-105.5,217.6c-1.4,3-3.1,5.9-4.7,8.8c-1.3,2.4-4.1,3.7-6.8,2.9
		c-5.2-1.3-10.3-3-15.3-4.7c-38-12.6-77.4-20.2-117.4-22.5c-18.8-1.1-14.4-1.8-20-16.4c-0.2-0.6-0.3-1.3-0.5-1.9
		c-21.9-74.7-43.8-149.5-65.6-224.3c-2.4-8.2-8.2-16.8-4.9-24.7c3-7.1,13.1-8.2,19.8-12.6c12.9-8.4,25.7-16.8,34.1-30.3
		c9.8-15.7,5.9-30.1-10.6-38c-11.6-5.6-24.1-7.6-36.9-7.7c-24.9-0.4-49.1,4.3-72.6,11.9c-23.6,7.6-45.9,17.8-65.5,33.5
		c-6.3,4.9-11.8,10.9-16.2,17.5c-11.1,17.3-6.3,32.1,13,39.8c8,3.4,16.6,5.2,25.3,5.2c12-0.1,24-0.2,36-0.5c4.7-0.1,7.5,2,8.9,6.3
		c2.9,9.5,5.8,19.1,8.7,28.7c18.8,63.9,37.7,127.7,56.5,191.6c1.7,5.7,3.4,11.5,4.8,17.3c0.9,3.6-0.2,6.6-4.3,7.4
		c-2.6,0.5-5.3,0.6-7.9,1c-59.8,9.4-116.5,27.7-169,58.2c-2.3,1.3-4.7,2.5-7,3.9c-3.4,2-6.4,1.3-8.7-1.7c-2-2.6-3.9-5.4-5.6-8.2
		c-44.2-69.8-88.5-139.6-132.6-209.4c-2.5-3.9-4.6-8-7-12.5c4.4-4.6,8.5-8.9,12.7-13.2c6-6.2,11.2-13.3,15.4-20.9
		c3.2-5.9,4.6-12.6,3.8-19.3c-0.6-5.8-3.5-10.1-8.9-12.3c-7.4-3.2-15.5-4.1-23.4-2.6c-40.9,8.1-74.1,28.8-100.7,60.6
		c-5.2,6.1-9.1,13.3-11.2,21c-3.7,14,3.1,23.5,17.7,24.9c12,1.2,24.1-0.5,35.3-5.1c17.7-7.2,17.4-3.2,25.2,9
		c37.5,59.1,75,118.1,112.4,177.3c9.2,14.6,18.3,29.2,27.6,44.1c-2.5,2.6-4.1,4.7-6.1,6.4c-33.3,26.8-62.9,57.9-87.9,92.5
		c-1.9,2.7-4,5.4-6.2,7.9c-1.8,2.1-4.3,3.1-7,1.5c-4-2.4-7.9-5-11.8-7.6c-63.8-42.4-127.6-84.9-191.3-127.5
		c-6.6-4.4-15.8-7.1-18.4-14.5c-2.3-6.7,4.1-13.5,6.4-20.4c5.2-15.3,9.2-30.7,7.5-47c-2-19.3-15-27.8-33.7-22.6
		c-12.5,3.5-23.1,10.3-32.8,18.5c-33.8,28.7-57.6,64.4-71.9,106.3c-4.5,13.3-7.1,27.1-5.1,41.3c2.5,18.1,15.3,26.3,33,21.5
		c14.5-4,26.4-12.5,37.5-22.2c6.5-5.7,12.6-11.8,18.7-17.7c6.1,0.6,10.1,4.4,14.4,7.3c29.4,19.6,58.8,39.1,88.2,58.7
		c40,26.5,79.9,53.2,119.8,79.9c9.6,6.4,9.6,6.8,4.8,17.7c-10.3,23.2-19.4,46.7-25.6,71.4c-0.6,2.5-1.7,5-2.6,7.5
		c-1.3,3.5-4,5.3-7.5,5.7c-3.9,0.5-7.9,0.8-11.9,1c-30.6,1.8-61.2,3.5-91.8,5.5c-23.3,1.5-46.5,3.1-69.8,4.8
		c-23.9,1.7-47.8,3.7-71.7,5.5c-6,0.4-8.6-1.4-10.4-7.1c-3.2-10.1-5.9-20.5-9.5-30.5c-4.2-11.3-10.1-21.8-18.7-30.4
		c-14.1-14-28.4-13.1-40.7,2.6c-3,3.6-5.4,7.6-7.2,11.9c-3.6,8.6-6.5,17.4-8.9,26.4c-7,28.2-6,57-3,85.5c2.4,22.5,7.8,44.6,18.4,65
		c4.7,8.9,9.8,17.5,17.7,23.9c12.1,9.7,25.3,8.5,35.5-3c7.7-8.6,12.5-19.1,15.3-30c2.8-10.9,4.7-22.1,7-33.2
		c2.3-11.1,2.2-11.2,12.1-11.9c24.6-1.6,49.2-3,73.8-4.7c28.6-2,57.1-4.4,85.7-6.4c21.3-1.5,42.5-2.9,63.8-4.3
		c7.6-0.5,9.5,1.3,9.2,9.3c-0.4,11.3-2.3,22.6-1.8,33.9c1.4,36.6,3.7,73.2,12.8,108.9c1,3.9,1.7,7.8,2.4,11.7
		c0.8,4.5-1.2,7.7-5.1,9.8c-3.5,1.9-7.1,3.7-10.7,5.4l-183.2,89.5c-3,1.5-6,2.8-9,4.4c-4.4,2.3-7.5,0.9-10.2-2.9
		c-7.7-10.9-16.6-20.9-26.6-29.8c-7-6.3-14.7-11.5-23.7-14.5c-13.8-4.6-25.6,0.5-30.7,14.1c-4,10.7-5.3,22.1-3.8,33.4
		c3.2,24.5,10.3,48.3,21.1,70.5c11.2,22.9,24.6,44.3,43,62.1c8.2,7.9,17.1,14.8,28.1,18.6c15.4,5.2,25.9,0.5,31.7-14.8
		c1.7-4.4,2.6-8.9,2.9-13.6c0.7-12.7,0.7-25.3-2.7-37.7c-1.6-5.8-3-11.6-4.4-17.4c-0.8-2.6,0.3-5.5,2.7-6.9c2.8-1.8,5.7-3.3,8.7-4.8
		c61.6-30.2,123.3-60.3,184.9-90.5c1.8-0.9,3.6-1.8,5.4-2.6c3.5-1.4,6.5-0.9,8.4,2.7c2.2,4.1,4.2,8.4,6.2,12.6
		c20.1,40.9,45.1,78.5,76,112.1c10.4,11.3,20.9,22.5,32.5,32.4c4,3.4,5.6,7.3,2.6,12.3c-1.3,2.4-2.4,4.8-3.3,7.3
		c-24,54.2-48.2,108.3-72.5,162.4c-3.5,7.8-5.2,16.6-11.6,22.9c-8.5-1.3-16.9-2.4-25.3-4c-12.6-2.3-25.3-3.1-37.8-0.5
		c-25.6,5.3-32.8,21.6-19.6,44c7.9,13.5,19.4,23.7,31.8,32.8c25.9,19,55.2,32.7,86.4,40.4c17.4,4.4,35.4,7.4,53.4,3.8
		c26.5-5.3,33.6-22.2,19.4-45.4c-6.4-10.4-15.2-18.5-24.4-26.3c-4.1-3.4-8.5-6.4-12.8-9.6c-8.8-6.6-8.8-6.6-4.9-16.2
		c1-2.5,2.1-4.9,3.2-7.3c20.3-45.6,40.6-91.3,61-136.9c4.6-10.3,9.3-20.5,13.8-30.5C3286.1,2063.7,3287.6,2063.4,3288.7,2064z"/>
	<path class="st5" d="M1924.6,1623c-52.2,21-51.7,20.9-92.2-18.5c-46.4-45.1-90.9-91.8-129.1-144.3c-4.4-6.1-7.8-18.7-20.6-10.8
		c-32.2,108.3-62.7,217.1-94.4,325.5c0.2,7.3,4.8,12.3,9.5,17c21.8,21.7,41.2,45.4,60.5,69.1c50.5,61.9,93.5,125.8,103,209.9
		c10,88.2,41.9,171.9,71.2,255.6c52.9,151.1,113.7,298.9,179.1,445c7.1,16,17.4,26.4,34.6,29.7c44.8,11.2,87.3,2.8,128.7-15.1
		c0.8-2.4,0.9-6,2.6-7.1c6-4,6.6-9.5,5.8-15.8c-0.6-4.6-0.9-9.3-1.3-13.9c-3.6-33.1-7.2-66.2-10.8-99.3c-3.1-28.5-6.1-56.9-9.4-85.4
		c-4.8-41.7-9.7-83.3-14.6-125c-4.6-39.1-8.9-78-13.7-117c-4.6-37.7-9.6-75.3-14.5-112.9c-4.6-35.7-8.8-71.4-13.8-107
		c-7.3-52.1-15.1-104.1-22.8-156.1c-5.8-38.9-12.3-77.5-24-115.2c-23-74-55.2-144.1-89.9-213.2c-0.9-1.8-2-3.5-3.1-5.1
		c-1.8-2.6-4.8-1.7-7.3-2.2C1945.3,1610.4,1935.6,1618.5,1924.6,1623z"/>
	<path class="st6" d="M3658.7,61.4c-2.1,4.1-5.2,5.6-9.8,3.4c-10.8-5.2-21.7-10.3-32.5-15.4c-22.9-10.8-45.8-21.6-68.7-32.3
		c-4.9-2.3-7-5.3-5.6-11c2.2-8.5,2.8-17.1,0.4-25.7c-1.8-6.3-7.8-9.5-14.2-7.8c-7.4,2-13,6.8-17.7,12.5
		c-13.8,16.5-22.6,36.5-25.4,57.8c-0.8,5.3-0.1,10.7,2,15.6c2.3,5.4,7,7.8,12.9,6.8c4-0.7,7.6-2.5,10.6-5.3c3.4-3.1,6.6-6.6,9.9-9.9
		c7.1-7.3,7.1-7.4,17.1-2.9c7.3,3.2,14.6,6.6,21.8,10c25.3,11.9,50.7,23.7,75.9,35.7c7,3.4,7.2,4.5,5.6,12.5
		c-1.8,9.1-4,18.2-5.2,27.4c-0.9,6.8-3.7,10.5-10.8,12c-33.8,7.3-67.6,14.9-101.3,22.5c-4.5,1-7.8-0.3-10-4.3
		c-2.9-5.2-5.5-10.7-9-15.5c-4.3-5.9-9.3-12.5-17.8-10.3c-8.2,2.1-10.4,9.5-11.6,17.1c-4.4,27.5,1.4,52.9,16.4,76.2
		c2.3,3.3,5.1,6.2,8.4,8.5c6.7,4.9,15,2.7,18.5-4.7c2.7-6.1,4.4-12.6,5-19.2c1.5-14.9,1.6-14.9,15.4-18c4.5-1,9.1-1.8,13.7-2.8
		c24.1-5.2,48.1-10.5,72.2-15.7c6.8-1.5,9.6-0.1,10,5.8c1.7,22.1,7.4,43.3,15.4,63.8c1.9,4.8-0.6,7.5-4.1,9.9
		c-14.2,9.9-28.5,19.7-42.7,29.6c-12.1,8.4-24.2,16.6-36.2,25c-4.6,3.3-8.3,3-12.3-0.9c-6.2-6.1-13.1-11.4-21.7-13.7
		c-0.4-0.1-0.8-0.2-1.3-0.3c-5.8-1-11.2,2.9-12.2,8.6c-1.6,7.9-0.8,16.1,2.3,23.6c7,18.4,17.9,34.2,33.3,46.6
		c3.1,2.6,6.5,4.7,10.1,6.4c5.6,2.5,11.9,4.1,17-0.5c4.2-3.7,5.2-9.2,3.9-14.7c-1.4-5.8-2.8-11.7-4.7-17.3
		c-1.7-5.1-1.1-8.9,3.5-12.1c25.3-17.3,50.5-34.8,75.8-52.1c5.2-3.5,7.5-3.1,11.5,2.6c15.5,22,33.7,41.3,56.1,56.4
		c6.5,4.4,6.2,9,4.3,15.4c-6.6,22.3-12.7,44.8-19,67.2c-1.6,5.7-2.5,12.1-5.6,16.9c-4.3,6.7-12.2,2.6-18.5,3.5
		c-8.1,1.1-16.2,2.2-20.4,10.3c-3.1,5.9,1.4,14,11.7,21c21.2,14.7,44.8,19.9,70.2,17c3.3-0.4,6.5-1.4,9.4-3c7-3.6,8.4-10,4.4-16.8
		c-3.9-6.6-10-10.9-16.4-14.2c-8.8-4.5-9.7-7.6-7-17.9c6.3-23.1,12.8-46.2,19.3-69.2c2.1-7.5,4.7-9.1,11.5-6.3
		c26.6,10.9,55.1,16.3,83.8,16c9-0.1,10.8,1.6,11.1,10.4c0.9,29.9,1.4,59.9,2.2,89.9c0.2,6.5-2.6,9.5-8.9,11
		c-7.1,1.7-14,4.3-19.7,9.3c-6.9,6.1-6.5,15.1,1.1,20.3c3.3,2.3,6.9,4.1,10.6,5.4c23.1,7.1,46,6.2,68.5-2.4c3.1-1.2,6-2.8,8.7-4.8
		c10.1-7.3,9.3-17.4-1.6-23.9c-6.5-3.9-13.9-4.6-20.8-6.8c-4.3-1.4-6.6-4.1-6.6-8.7c-0.1-8.7-0.3-17.3-0.6-26
		c-0.9-22-1.8-43.9-2.9-65.9c-0.4-10,1.6-11.7,10.1-13.8c19.5-4.7,38.2-12,55.6-21.8c8.8-5,9.4-4.8,15.8,4.5
		c13.7,19.7,27.3,39.5,40.9,59.2c4.4,6.5,8.9,13.1,13.5,19.8c-4.6,6.2-8.6,11.4-12.6,16.7c-3.3,4.3-5.1,9.5-5.1,14.9
		c0,5.8,3.6,10.2,9.4,11.1c6.6,1,13.4,0.2,19.6-2.1c17.7-6.3,33.5-16.8,46.2-30.6c5.5-6,9.7-12.7,11.6-20.7
		c1.1-4.5-1.1-9.9-5.3-11.8c-3-1.3-6.2-2.1-9.5-2.3c-7.5-0.5-14.4,2.6-21.2,5.2c-4.4,1.7-7.6,1.3-10.3-2.6
		c-17.8-25.8-35.7-51.5-53.3-77.3c-3.9-5.8-3.8-7.7,0.9-12.1c18.5-17.3,34.2-37.3,46.4-59.5c2.2-4,5.4-5.4,10-4.1
		c12.8,3.6,25.7,7,38.5,10.6c17.3,4.8,34.6,9.8,51.9,14.5c5.1,1.4,8.2,4,7.4,9.9c-1.2,8.1,0.7,15.9,3.3,23.6
		c2.6,7.7,11.2,10.5,18,6.2c5-3.3,9.2-7.8,12.3-13c9.4-15.4,15-32.8,16.3-50.9c0.6-8,0.2-16-3-23.6c-4.2-9.8-12.2-12-20.7-5.2
		c-5.3,4.2-9.1,9.6-12.4,15.5c-5.4,9.9-5.5,8.9-15.9,6.2c-19.3-4.9-38.5-10.5-57.8-15.8c-8.3-2.3-16.6-4.8-24.9-7.2
		c-4.8-1.4-6-4.8-5-9.3c0.7-3.3,1.7-6.4,2.5-9.7c7.5-29.5,7.4-59.3,4.1-89.3c-0.4-3.7-3-7.5,1.7-12.8c30.3,0.7,61.8-5.4,93.6-2.5
		c2.3,6.4,4.2,12.1,6.3,17.7c1.8,5,4.9,9.5,9,13c4.6,3.9,9.8,3.8,14.3-0.4c4.6-4.2,7.1-9.5,9-15.3c5.4-17,4.6-34.3,1.9-51.5
		c-1.4-9.1-4.4-18.2-10.4-25.7c-6.9-8.6-15.1-8.5-21.3,0.4c-4.2,6.1-6.7,13.1-7.5,20.4c-0.7,5.3-3.2,8.6-8.9,8.8
		c-30.6,1.2-61.2,2.3-91.9,3.7c-6.4,0.3-9.3-3-11.7-8.5c-8.1-19.1-19.1-36.5-32.1-52.8c-2.3-2.9-6.1-5.3-4.6-10.8
		c3.3-2.3,7.1-5,11-7.5c25.8-16.5,51.7-33,77.4-49.6c4.1-2.7,7.3-2.3,10.6,1c5.7,5.7,11.7,11,19.2,14.1c9.7,3.9,17.5-0.8,18.3-11.3
		c0.2-4-0.2-8-1.2-11.8c-4.8-21.6-16.6-39-32.3-54.1c-4.3-4.3-9.5-7.4-15.3-9.2c-10.2-2.9-17.2,2.1-17.7,12.5
		c-0.4,7.5,2.1,14.5,4.6,21.4c2,5.4,0.9,8.7-3.8,11.7c-13.5,8.5-26.9,17.3-40.3,25.9c-16.8,10.8-33.7,21.5-50.5,32.3
		c-3.5,2.2-6.9,4-10.9,0.9c-16.3-12.9-34.5-22.6-53.5-30.8c-4.4-1.9-5.5-4.9-4-9.6c4.9-15.2,9.4-30.5,14.2-45.8
		c6-19.1,12-38.1,18.3-57.1c2.9-8.7,3.1-8.6,12.8-8.9c4-0.1,8,0,12-0.2c4.7-0.2,9.2-1.6,13.2-4.1c5.2-3.2,6.6-8.2,4.2-13.8
		c-2.2-4.9-5.7-9.1-10-12.2c-18.7-14.2-40.3-20-63.4-21.2c-5.4-0.3-10.6,1.2-15.5,3.4c-8,3.5-10,10.4-5.6,18
		c4.2,7.2,11.2,11.2,17.8,15.7c7,4.8,7.2,5,4.8,12.8c-9.3,29.9-18.7,59.7-28.1,89.6c-1.6,5.1-3.3,10.1-4.9,15.2
		c-0.9,3.3-4,5.6-7.4,5.3c-3.3-0.1-6.7-0.3-10-0.8c-16.5-1.9-33-4.5-49.7-1.3c-4.4,0.8-7.7-1.5-9.6-5.5c-5.3-11.5-10.7-22.9-16-34.4
		c-9.8-21.1-19.8-42.2-29.5-63.4c-5.8-12.6-7.8-12.4,4-21.4c4.8-3.7,8.8-8.3,11.7-13.5c5.2-9.1,1.5-17.2-9-19.4
		c-2.6-0.6-5.3-0.8-7.9-0.6c-26.4,1.6-48.7,12.4-67.5,30.8c-1.8,2-3.4,4.1-4.7,6.5c-6.3,10.4-2.9,17.3,9.3,20.3
		c6.9,1.7,13.2-0.3,19.8-1c9.3-1,10.3-0.7,14.1,7.3c8.8,18.6,17.4,37.4,26.1,56.2c5.6,12.1,11.3,24.1,16.7,36.3
		c3.1,7,2.3,9-5.6,11.5c-24.8,8-48,20.1-68.8,35.8c-6.7,5.1-7.5,4.9-13.1-1.5c-22.8-26.1-45.5-52.3-68.2-78.5c-3-3.5-6.3-7.1-8-11.3
		c-1.9-5,3.5-8.1,5.4-12.1c4.4-9.4,5.1-15.6,1-18.4c-6.2-4.2-12.9-2.6-19,0.2c-14.7,6.7-27.1,17.5-35.7,31.1
		c-2,3.4-3.5,7.2-4.4,11.1c-1.7,6.5,3.2,12.1,10,11.3c3.9-0.4,8.1-1.2,11.4-3.1c10.6-6.2,12.2-3.7,19.9,5.2
		c21.4,24.7,42.7,49.4,63.9,74.2c3.8,4.5,8.8,8.2,10.6,14.9C3680.8,26.6,3668.1,42.8,3658.7,61.4z"/>
	<path class="st6" d="M4527.7,903.7c5.6,5.7,11.8,10.8,17.9,15.9c3.3,2.5,4.6,6.8,3.3,10.7c-3.8,14.1-7.9,28.2-11.7,42.4
		c-1.2,4.6-4.1,6.5-8.6,6.8c-2.7,0-5.3,0.3-7.9,0.9c-3.3,0.8-6.4,2.4-7.3,6c-1.2,4.5,1.2,7.8,4.5,10.3c9.6,7.4,21.4,11.4,33.5,11.2
		c5.9-0.1,13.1,1.3,16.1-5.2c3.4-7.1-3.3-10.4-7.8-14.1c-0.5-0.4-1.1-0.8-1.7-1.1c-4.2-2.4-4.6-6-3.4-10.3
		c3.3-11.5,6.5-23.1,10-34.5c2.4-8,4.2-9.2,11.2-6.9c14,4.6,28.2,8,43,7.9c4.9,0,6.7,3.1,7.3,7.7c2.1,15.9,2.2,31.9,2.3,47.9
		c0,3.5-1,6.4-4.8,7.8c-3.1,1.2-6.1,2.6-9,4.2c-2.9,1.7-5.3,4.1-5.1,7.9c0.2,3.8,2.9,5.9,6,7.2c13.5,5.9,27.2,5.5,40.9,0.6
		c4.5-1.6,9.3-3.8,9.9-8.9c0.8-6.6-5.1-8.4-10-10.5c-0.6-0.2-1.3-0.4-1.9-0.5c-6.5-1.1-8.5-5.5-8.6-11.5c-0.2-10.7-0.8-21.3-0.6-32
		c0.1-7.1-3.4-15.6,2.1-21.1c3.8-3.8,10.8-4.4,16.3-6.6c5.5-2.2,11-4.7,16.5-7c6.3-2.7,8.1-2.5,11.9,2.8
		c6.7,9.2,12.6,18.9,19.7,27.7c7.8,9.7,11.1,18.4,2.4,29.7c-4.3,5.6,1,11.9,8.5,10.8c16-2.3,28.4-10.7,37.3-24.2
		c2-2.8,2.4-6.4,1-9.6c-2.1-4.5-6.4-4-10.3-3.8c-2,0.1-4,0.4-5.9,0.9c-5.2,1.3-8.9-0.5-11.9-4.9c-8.5-12.7-17.3-25.3-26-38
		c-2.6-3.8-2.4-7.3,0.9-10.7c4.2-4.3,7.9-9,12.2-13.3c6.5-6.5,7.7-18.6,17.5-20.6c9-1.8,17.9,3.9,26.9,6.2c2.6,0.7,5.2,1.3,7.8,1.8
		c13.1,2.4,23.9,6.4,24.6,23c0.3,7,8.2,8,13.5,2.2c10-11,13-24.6,13.2-38.8c0.1-5.1-1.1-11.4-7.3-13c-5.3-1.4-8.1,3.4-11.1,6.9
		c-0.4,0.5-0.8,1-1.2,1.6c-3.2,5.7-8.1,6.3-13.8,4.7c-13.5-3.8-26.9-7.4-40.4-11.4c-6.2-1.8-7.1-3.4-5.6-10.3
		c3.9-17.7,6.3-35.4,2.4-53.5c-1.1-4.9,1.2-7.3,6.6-7.5c9.3-0.5,18.7-0.2,28-0.9c11.8-0.9,22-0.6,26.8,13.6c2.4,7,10.7,6.6,13.6-0.2
		c6.9-16.1,6.4-32.4-1.9-48c-0.7-1.4-1.8-2.6-3.1-3.3c-3.5-1.9-8-0.6-9.9,2.9c-1.9,3.5-3.5,7.2-4.9,10.9c-1.1,2.6-2.8,4.6-5.8,4.8
		c-16.6,1-33.2,1.9-49.9,2.8c-3.5,0.3-6.7-1.7-8.1-4.9c-5.3-12.9-14.4-23.6-21.8-36.6c12.5-8.1,24.1-15.7,35.9-23.2
		c5.6-3.5,11.2-7.7,17.3-9.5c5.3-1.6,8.6,5.4,13.7,7c3.4,1.1,6.9,1.4,9.3-1c2.5-2.4,3.2-5.7,2.5-9.2c-2.5-12.5-9-23.9-18.5-32.4
		c-6.1-5.6-12.2-7.5-16-4.6c-5.2,4-3.8,9.6-2,14.6c1.9,5.3,0.9,8.9-3.8,11.9c-15.8,10-31.5,20-47.2,30.1c-3.7,2.3-7,3-11.1,0.5
		c-8.5-5.2-17.3-9.9-26-14.8c-4.1-2.3-5.3-5.3-3.9-9.9c5-15.8,9.9-31.7,14.7-47.6c2.4-8.1,5.3-15.2,16.1-13.5
		c1.8,0.3,3.9-0.6,5.8-1.2c0.8-0.2,1.5-0.6,2.2-1.1c3.2-2.4,3.9-7,1.4-10.2c-9.5-12.6-33.1-19.8-49.1-14.9c-3.7,1.1-5.6,6.4-3.7,9.8
		c2.4,4.2,6.2,6.9,10,9.6c3.2,2.3,3.7,5.1,2.5,8.7c-5.4,17.1-10.5,34.4-16.1,51.5c-3.3,10.3-3.6,10.1-15.8,9.3
		c-7.3-0.5-14.7-0.7-22-0.5c-5.4,0.1-8.8-2.4-10.9-7c-6.7-14.5-12.9-29.3-20.4-43.4c-5.3-10-6.9-18.5,3.3-26.2
		c1.4-1.1,2.2-3.4,2.7-5.3c0.9-2.6-0.3-5.5-2.9-6.6c-2.4-1.1-5.1-2.5-7.5-2.2c-15.8,1.4-29.8,7-40.1,19.6c-2.1,2.6-4,5.6-2.2,9.1
		c1.6,3.1,4.7,5,8.1,4.9c3.3,0,6.6-0.2,9.9-0.6c3.9-0.4,6.3,1.6,7.8,4.8c7.9,16.9,15.7,33.8,23.5,50.8c1.6,3.6,0.6,7-2.9,8.3
		c-13.8,4.9-26.9,11.7-38.9,20.2c-3.3,2.3-6.5,0.9-8.8-1.8c-13.5-15.6-27-31.3-40.4-47c-1.9-2-2.2-5-0.9-7.3
		c1.3-2.3,2.3-4.8,3.2-7.3c1.4-4.4-1.8-8-6.4-7.4c-12.4,1.6-25.7,13.7-28.1,25.3c-0.6,3.1,2.5,6.6,5.9,6.4c1.3,0.1,2.7-0.2,3.9-0.7
		c6.7-3.9,11.1-0.6,15.3,4.4c12.1,14.2,24.4,28.2,36.6,42.3c2.9,3.4,3.6,6.9,0.8,10.9c-5.3,7.6-10.6,15.3-15.8,23
		c-2.8,4.1-6.2,4-10.3,2c-13.2-6.4-26.3-13-39.8-18.6c-11.3-4.7-19.3-10.1-17.2-24.5c1-7.1-6.6-10.5-12.4-6.1
		c-13.6,10.4-19.8,24.7-20.1,41.6c-0.1,3.3,0.5,7,3.7,8.7c4.1,2.2,7.7,0.1,10.9-2.5c1.6-1.2,3-2.6,4.3-4.1c3.7-4.3,7.7-4.3,12.5-2
		c15,7.3,30.1,14.3,45.1,21.5c11.4,5.4,15.3,4.5,10.3,20.9c-0.2,0.6-0.4,1.3-0.5,1.9c-0.2,8.3-5.5,11.3-12.7,12.8
		c-12.3,2.6-24.7,5.1-37,8.2c-11.6,2.9-21.9,3.9-27.8-9.7c-1.5-3.2-5-4.9-8.4-4c-4.4,1.1-6.3,4.8-6.8,8.9c-2,14.2-0.3,27.9,6.9,40.6
		c2.7,4.7,5.5,9.8,11.8,9.3c6.7-0.5,7.7-6.4,8.7-11.7c0.2-1.3,0.3-2.7,0.3-4c0.2-4.6,2.3-7.3,6.9-8.3c18.1-3.9,36.2-7.8,54.6-11.8
		c3.6,13.2,7,25.3,10.3,37.4c1.1,4.2,0.4,7.9-3.4,10.5l-45.6,31.4c-5.1-3.2-9-5.8-13-8.1c-2.9-1.7-6.1-2.9-9.3-0.5
		c-3.7,2.8-4,6.8-3,10.8c3,12.4,9.8,23.6,19.5,31.9c2.9,2.5,6.7,4.2,10.4,5.7c3.7,1.5,8.6-1.9,8.6-5.9c0-4-0.5-7.9-1.6-11.7
		c-1.5-4.7,0-7.8,3.6-10.3c14.2-9.9,28.4-19.7,44.1-30.5C4517.3,891.8,4522.1,898.1,4527.7,903.7z"/>
	<path class="st6" d="M2038.5,2811.8c-4.2,36-7.7,72.1-3.3,108.3c1.3,11,2.6,22.5,12.4,30.3c111.8-0.1,223.7-0.3,335.5-0.4
		c6,0,12-0.3,18-0.5c-5-15-16.4-23.8-30.1-29.8c-6.7-2.7-13.8-4.7-21-5.9c-24.2-4.5-47.8-10.6-70.6-19.8
		c-19.7-8-38.5-17.8-55.3-30.9c-22.1-17.2-38.2-38.4-44.7-66.2c-0.9-3.8-3-7.3-4.5-10.9c-4.2-2.1-8-3.7-13-1.1
		c-10,5.4-21,7.7-31.9,10.7c-7.9,2.1-16,1.1-23.4,3.2c-13.2,3.8-25.7,3.2-39,0.2c-6.3-1.4-14-4.3-20.8,0.1
		C2041.2,2801.5,2039.2,2806.4,2038.5,2811.8z"/>
	<path class="st5" d="M1017.6,1469.3c6.3,30.6,12.1,61.4,18.8,91.9c14.4,66.3,29.3,132.5,43.7,198.9c8.3,39.1,14,78.7,17.1,118.5
		c1.7,21.4,0.1,42.7-3.5,63.7c-2.9,16.5-8.5,32.2-18.3,46c-9.7,13.7-16.4,28.9-22.1,44.6c-7.9,22-13.7,44.5-18.6,67.3
		c-16.4,76.4-24.7,153.8-31.2,231.4c-4.6,56.4-8.3,112.9-11.1,169.4c-4.3,89.2-6,178.4-6.6,267.7c-0.1,8.4,0.9,15.8,8.7,20.9
		c2.1,1.4,3.4,4,5.1,6.1c7.3,9.6,18.2,12.5,28.8,15.9c35.6,11.3,71.5,7.8,107.5,2.6c17.7-3.6,25.8-15.4,32.1-31.7
		c71.5-185.8,143.8-371.4,208.9-559.7c23.7-68.6,49.8-136.8,57.9-209.5c7.3-65.4,13.1-131.1,21.1-196.5
		c6.9-56.1,10.2-112.7,21-168.3c9.4-108.9,24.8-217.1,36.5-325.7c2.7-25.5,10.9-50.9,4.5-76.9c-6-4.2-12.7-3.7-19.2-2.2
		c-85.2,19.1-171.7,19.6-258.2,17.4c-76.7-2-152.5-11.4-225.2-38.2c-6.8-2.5-13.6-5.8-21.2-2.8c-0.2,4.7-0.5,9.4-0.6,14
		c-0.6,40.6,2.6,80.9,7.1,121.3c3.3,29.1,7.2,58,12.4,86.7c0.9,5.2,0.8,10.6,1.1,15.9C1015.3,1461.8,1016.8,1465.5,1017.6,1469.3z"
		/>
	<path class="st6" d="M994.6,2835.2c-4.4,39.1-5.4,78.1,5.1,116.6c111.2-0.1,222.3-0.3,333.4-0.4c6.6,0,13.3-0.4,19.9-0.7
		c2.4-4.7,1-9.3-1.7-13.1c-10.4-15.2-26.1-22.1-43.3-25.9c-20.1-4.4-40.4-8-59.6-15.4c-41.2-15.9-80.8-34.5-103.3-76
		c-2.2-4.1-5.1-7.8-10.3-8.6c-3.6-1.6-6.8-3.6-11.2-2.2c-13.2,4.4-27.2,3.5-40.7,5.2c-13.1,1.7-27-3.4-40.5-5.2
		c-15.2-2.1-28.5-9.8-43-13.7C995.8,2808.6,996.1,2822,994.6,2835.2z"/>
	<path class="st2" d="M1573.5,1227.2c0.5-4.8-1.5-9-2.9-13.5c-6.2-20.3-12.6-40.6-18.3-61c-10.5-37.7-17.6-76.2-22.4-115
		c-3.2-25.6-5.7-51.4-5.8-77.3c-0.1-17.2-3-34.4-2.1-51.6c1-17.9,2.2-35.7,3.3-53.6c-0.3-9.7-0.5-19.4-0.8-29.9
		c-8.2,1.1-13.7,4.8-19.6,7.8c-125.2,62.7-250.4,125.5-375.6,188.3c-5.9,3-11.5,6.5-17.3,9.7c-4.5,8.6,1.3,15.4,4.6,22.3
		c9.8,20.3,20.1,40.4,30.2,60.6c18.7,37.2,17.9,39.5-20.5,57.6c-21,9.9-27.1,8.1-37.9-12.8c-15.8-30.7-31-61.7-46.6-92.5
		c-12.8-25.3-14.9-26-41.2-14c-7.6,4-15.7,7.3-22.7,12c-11.2,7.5-26.8,8.9-32.9,23.5c0.1,16.5,1.4,33,3.9,49.3
		c5.1,33.1,17.1,62.3,44.9,83c22.3,10.4,45.7,18.4,69.6,24.1c29.8,7,59.7,12.9,90.2,16c25.8,2.7,51.4,6.9,77.4,7
		c57.2,0.2,114.5,2.9,171.7-3.6c19.1-2.2,38.4-4,57.3-7.4c18.9-3.4,37.9-6.6,56.9-9.9C1538.4,1247.2,1557.8,1242.3,1573.5,1227.2z"
		/>
	<path class="st7" d="M929.6,1092.3c-3.4-0.3-6.4,0.4-8.2,3.7C924.6,1096,927.6,1095.3,929.6,1092.3z"/>
	<path class="st6" d="M970.9,927.4c-0.4-7-4.7-12.2-7.7-18.1c-10.3-20.7-21-41.2-30.9-62.2c-6.5-13.7-3.9-23.6,10.3-31
		c16.5-8.6,33-16.5,52.1-16.8c18.1-70.7,36.4-141.4,54.7-212.1c4.8-18.6,10.2-37.1,15.3-55.6c14.8-25.6,16.5-55.3,25.8-82.6
		c1.5-4.5,0.3-9.3-5.4-11c-16.6,4.6-33.2,9.4-50,13.8c-51.5,13.3-103,26.7-154.5,40c-9.3,2.4-11,4-11.9,13.2c-0.6,6.6-0.8,13.3-1,20
		c-1.6,65.3,2.4,130.5,6.4,195.6c1.3,20.6,2.2,41.2,4,61.8c2.3,27.8,4.5,55.7,6.9,83.6c1,11.3,2.1,22.5,3.2,33.8
		c26.6,9.6,51.7,22,73.2,40.8C969.5,939.8,969.7,933.2,970.9,927.4z"/>
	<path class="st5" d="M800.1,1008.4c-19.5,10.3-22.1,17.2-12.6,36.2c18.7,37.4,37.5,74.8,56.2,112.1c1.5,3,2.9,6,4.6,8.8
		c6.1,9.7,14.8,12.4,25.6,7.9c4.9-2,9.4-5,14.3-6.9c12.1-4.7,16-19.5,11.1-30.1c-2.5-5.4-5.2-10.7-7.8-16.1
		c-1.6-3.5-0.9-6.2,2.5-8.4c8.9-5.7,19.6-8.1,27.3-15.9c-14.1,0.1-23.7-7.5-31.2-18.4c-6.4-9.3-12.2-19-18.7-28.2
		c-3.8-5.3-7.8-12.7-14.8-11.9c-8.4,0.9-12.4-3.7-16.3-8.8c-7.9-10.5-15.2-21.6-22.7-32.4C814,1003.2,806.5,1005.1,800.1,1008.4z"/>
	<path class="st5" d="M985.1,972c0.7,7.5,5.6,13.4,8.3,20.1c8.3,21,16.4,42.1,8.1,65.2c6-2.7,12.1-5.5,18.2-8.1
		c5.7-2.4,7.7-1.7,11.1,4.3c2.3,4,4.3,8.2,6.4,12.4c16.1,32,32.1,64.1,48.2,96.1c1.9,4.2,4.1,8.3,6.5,12.3
		c5.5,8.4,13.5,11.8,22.3,7.9c14.5-6.5,28.8-13.7,42.7-21.4c8.6-4.8,10.9-13,7.6-22.4c-1.5-4.4-3.9-8.4-6-12.6
		c-12.8-25.5-25.6-51-38.2-76.6c-2.9-5.9-5.3-12.1-7.9-18.2c-12.1-20.1-22.6-41.2-31.3-63.1c-13.7-21.5-24-44.6-34.6-67.7
		l-51.4-100.9c-9.4-5.6-18.8-4.8-28.3-0.2c-8.9,4.4-17.6,9-26.6,13.2c-19.1,8.9-21,18.1-13,34.5c13.4,27.2,25.9,54.9,41.8,80.9
		C967.3,945,982.2,956.3,985.1,972z"/>
	<path class="st8" d="M1960.7,1608.2c11.6-1.6,20.5-8.7,30.4-13.9c31.2-16.6,60.4-36.1,88.8-57c31.6-23.2,60.1-50.1,89.2-76.3
		c10.4-9.4,18.3-21.1,27.7-31.3c16.3-17.5,31.5-35.9,46.2-54.8c32.7-42.1,60.5-87.4,85.2-134.5c12-23,23.7-46.2,33.5-70.3
		c9.5-23.4,19.4-46.6,27.8-70.4c19.2-54.5,34.5-110.2,45.9-166.8c5.4-27.2,11.8-54.3,14.2-82.1c1-11.8,1.8-24,4.4-35.4
		c4.4-18.9,3.7-38.2,6.2-57.2c2.9-22.3,0.6-45.2,0.7-67.9c0-5.7-1.7-9.7-6.3-13.7c-16.5-14.5-34.6-26.8-52.1-39.9
		c-13.4-10-28.2-17.5-42.6-25.8c-26.6-15.2-54-28.8-82.1-40.9c-26.9-11.7-54.6-20.9-82.3-30.3c-3.4-1.2-8.4-0.7-9.4-6.7
		c4.6-7.5,9.4-15.2,15.9-22.1c9.9-10.7,19.2-22,28.5-33.2c1.5-1.9,1.5-5,2.2-7.5c-1.9,0.4-4.1,0.4-5.8,1.3
		c-54.6,27.4-109.1,54.7-163.7,82c-3.1,1.5-5.6,3.5-6.4,7c4.4,10.4,15.2,5.7,22.4,9.5c30.7,6.3,61.3,13,91.2,22.3
		c79.5,24.7,153.8,59.9,220.7,109.9c14.5,10.9,22.3,22.9,21.1,41.9c-1.6,23.9-1,47.7-3.4,71.7c-11.8,117.5-38.1,231.2-84.6,340
		c-53.6,125.2-129.4,234.1-236.6,319.2c-58.6,46.6-122.1,85.6-193.4,110.6c-22.2-3.4-35.1-21-49.7-34.6
		c-84.6-79.2-151.8-171-199.5-276.9c-62.8-139.3-84.8-284.7-67.7-436.5c1.4-12.4,8.3-25.8-0.9-38.3c-11.8,2.9-21.5,10.3-32.6,14.7
		c-10.5,4.2-15.9,10.6-14.7,22.6c0.6,6.3,2,13.4-3.5,18.9c-6.4,5.4-5.4,13.1-6.1,20.2c-3.1,28.4-1.8,56.6-0.8,85.2
		c2.9,89.8,19.7,176.5,49.2,261.1c0.7,2.1,1.5,4.1,2.4,6.2c0.8,2,1.5,3.9,2.3,5.9c24.7,68.7,57.7,134.3,98.1,195.1
		c4.3,6.5,7.7,14.1,16,17c2.9,3.6,6,7,8.7,10.7c41.3,57.6,87.8,110.4,140.8,157.6c11.4,10.2,23.6,19.6,35.3,29.3c4,3.3,8.2,4,13,2
		c24.9-10.8,50.7-19.9,73.9-34.5C1959,1610,1959.8,1608.3,1960.7,1608.2z"/>
	<path class="st8" d="M1634.5,593.1c5.1-19.5,17.9-27.2,37.5-29c24.3-2.3,48.9-4.5,72.2-12.9c11.9-2.4,21.9-9.3,32.5-14.5
		c23.8-11.7,47.5-23.7,71.1-35.6c4.1-2.1,8.7-3.8,8.3-9.8c-48-0.7-95.8,2.6-143.6,6.8c-32.5,2.9-64.8,7.2-97,12.3
		c-9.5,1.5-13.4,5.8-16.6,14.2c-13,35-24.9,70.3-34.6,106.3c0.1,0.6,0.1,1.3,0.3,1.9c1.3,8.5,1.9,9.2,7.3,6.3
		c17.2-9.1,35.8-15.5,51.3-27.8C1630,607.1,1632.7,600.1,1634.5,593.1z"/>
	<path class="st5" d="M1109.4,505.4c25.1-17.3,50.4-34.4,75-52.4c23.5-17.2,46.3-35.4,69.4-53.2c2.1-1.6,3.9-3.7,3.6-6.7
		c-0.6-0.3-1.3-1-1.7-0.9c-56.8,15.2-113.6,30.5-170.5,45.8c1.6,2.2,2.4,4.6,1.5,7.4c-1.6,5-3.4,10-4.8,15.1
		c-6.4,23.5-13.9,46.8-17.1,71.1C1080.3,524,1095.2,515.3,1109.4,505.4z"/>
	<path class="st0" d="M1375,2951.1c58.5-0.1,117.1-0.1,175.6-0.2l497-0.5c-0.6-3.2-0.9-6.5-1.9-9.6c-5.4-16.6-6.2-33.7-6.2-50.9
		c-0.1-30.4,1.9-60.6,7.3-90.6c-3.1-5-8.5-6.3-13.5-7.9c-5.8-1.7-10.6-6-12.7-11.7c-1.5-3.7-3.2-7.3-4.8-11
		c-41.9-93.5-81.5-188-118.9-283.4c-38.3-97.9-74.7-196.5-103.8-297.6c-13.9-48.6-26.6-97.5-32.2-148c-2.2-20.5-7.8-40.6-16.5-59.3
		c-9.8-21.2-21.8-41.2-35-60.4c-21.8-31.9-46.1-61.9-71.4-91.2c-15.7-18.1-31.5-36.1-47.2-54.1c-1-8.5-6.7-14.1-12.2-19.8
		c-18.5-18.8-36.7-37.8-54.4-57.4c-15.3-16.9-29.4-35.6-50.4-46.6c-5,1.2-5.5,5.5-6,9.3c-1.4,10.6-2.3,21.2-3.5,31.7
		c-4.8,41-9.5,81.9-14.2,122.9c-3.5,30.4-7,60.8-10.3,91.2c-3.2,29.8-6.8,59.5-9.1,89.3c-2.1,28.5-6.9,56.8-14.5,84.4
		c-18.4,66-40.8,130.7-63.7,195.3c-55.7,157.4-115.7,313.2-176,468.8c-6.5,16.7-13,33.5-19.2,50.3c-2,5.4-5,8.9-10.9,10.4
		c-4.3,1-9.3,1.8-11.5,6.9c13.3,31.4,36.9,52.8,66,69.1c20.9,11.6,43.1,20.5,66.3,26.6c12.8,3.4,25.9,5.5,38.8,8.5
		c20.7,4.8,39.1,13,47.2,34.9C1360.4,2950.8,1367.7,2951.1,1375,2951.1z"/>
	<path class="st6" d="M1908.3,1566.8c46.8-91.6,82.3-187.6,111.3-286.1c47.7-161.9,72-327.4,70.6-496.1
		c-0.5-61-4.7-122.2-14.3-182.8c-2-12.4-5.3-25.1,5.4-35.7c-7.3-5.6-16.7-2.5-24.6-5.7c-7.9-1-14.1,3.2-20.6,6.5
		c-148.3,74.3-296.5,148.6-444.8,222.9c-5.3,2.7-11.1,4.7-15.2,9.3c0.2,2,0.2,4,0,6c-6.7,36.8-8.2,74.1-9.8,111.3
		c-1.6,39.3,1.9,78.4,6.1,117.5c6.1,54.3,17.8,107.7,34.9,159.6c31.7,96.5,80,184.2,143,263.8c35.7,45.1,75.2,86.4,119.5,123.1
		c5.1,4.2,10.5,8.2,15.9,12.1c3.2,2.3,6.2,1.6,8.7-1.3C1899.5,1583.1,1904.1,1575.1,1908.3,1566.8z"/>
	<path class="st6" d="M1638.2,606.1c30.9-15.5,61.8-31,92.7-46.6c4.7-2.4,9.8-4.1,13.3-8.4c-19.2-0.9-38,3.5-57,5.4
		c-13,1.3-26,4.3-39,6.2c-5.9,0.9-9.5,3.8-11.3,9.4c-4.4,13.1-9,26.2-13.5,39.3C1629,611.7,1633.5,608.5,1638.2,606.1z"/>
	<path class="st9" d="M1008.5,1022.4c-3.7-17.3-10.1-34-18.9-49.3c-8.2-12.5-17.6-24-26.4-36c-21.9-18.7-44-36.9-74.9-37.4
		c-27.5,22.5-59,32.6-94.5,30.2c4.7,23.3,12,45.7,24.1,66.4c1.3,17.2,11.4,33.1,24.2,38.8c23.4,10.5,32.9,31.2,47.4,48.6
		c8.1,9.7,17.2,19.1,32,12.3l-0.1,0.1c2.1-2.6,5.7-1.9,8.2-3.7l15.7-4.5c4.5-2.6,8.9-5.3,13.5-7.7c14.2-7.6,28.5-15.2,42.7-22.8
		C1011,1047.1,1011.3,1035.1,1008.5,1022.4z"/>
	<path class="st9" d="M1613-225c-1,5.2-1.9,10.4-3.1,15.6c-2.8,12.5-3.5,25.1,0.2,37.3c3,9.9,0,17.6-5.3,26
		c-19.2,30.7-43.7,56.7-70.7,80.3c-7.9,6.8-15.7,14.4-26.1,17.8c8,4.8,14.5,11.4,21.1,17.8c16.8,16.2,30.8,34.6,44.4,53.3
		c11.7,16,23.2,32.1,34.8,48.1c2.8,1.7,5,4.4,7.8,6c23.2,13.1,46.1,27.5,74.8,22.4c1.5-5.7,3.7-11.4,4.3-17.2
		c1.2-10.9,7.3-19.6,11.7-29.1c2.7-5.8,7.5-6.7,13-6.9c-3.8-4.4-4.5-8.9-1.2-14c1-1.5,1-3.7,1.4-5.5c-0.5-3.4-2.3-6.4-5-8.4
		c-21.5-15.8-34.7-38.2-48.6-60.1c-17.3-27.2-26.1-58.2-40-87c-0.3-0.6-0.7-1.1-0.7-1.6c0.1-1.1-3.9-1.4-0.6-3
		c-0.2,1.5,0.2,3.1,1.2,4.2c4.5,7.2,7.7,15.3,14.4,21.1c26.2,22.9,56.7,38.4,88.6,51.4c6,2.4,12.6,4.8,18.5-0.8
		c-3.6-2.8-7.1-5.7-10.9-8.4c-34.1-24.2-60.7-55-77.6-93.3c-9.9-22.4-21-44.1-31.6-66.1L1613-225z"/>
	<path class="st9" d="M1900.2-215.3c4.2-13.2,5.4-27.4,13-39.4c-11.6-6.3-23.4-12.3-34.8-19c-24.9-14.4-50.4-27.3-78.7-33.7
		c-29.4-6.7-55.6-1.7-76.1,22.4c-2.2,2.5-4.5,4.9-6.7,7.4c-3.4,3.6-7.7,5-12.5,5.5c1.3,7.2,2.5,14.4,3.8,21.5
		c1.7,8.9,5.7,15.5,14.7,19.6c32,14.8,64.9,27.6,98.5,38.2c21.7,6.8,43.8,11.2,66,15C1893-189.8,1896.1-202.7,1900.2-215.3z"/>
	<path class="st9" d="M1729.2,11.8c9.5-20.3,18.9-40.8,28.4-61.1c-1.8-3.9-5.3-6.8-9.6-7.8c-3.9-0.6-7.9-0.9-11.6-1.9
		c-16.1-4.5-30.5-12.7-45.1-20.5c-22.7-12.1-45.2-24.8-59.8-47.4c-1.7-2.6-5.1-4-7.7-6l0.1-0.1c0.6,3.9,0.7,8,1.9,11.7
		c11.3,34.2,25.2,67.1,45.4,97.1c13.3,19.8,26.4,40.1,49,51.2C1724.8,22.9,1726.7,17.1,1729.2,11.8z"/>
	<path class="st9" d="M1687.9-294.7c-14-11.5-20.8-10.6-29.8,4c-6.3,10.3-10.2,21.6-13,33.2c-2.1,8.3-4.8,16.5-8.1,24.5
		c2.2,3.3,4.5,6.5,6.5,9.9c6.4,10.7,12.6,21.6,19.3,32.2c3.9,6.3,7.2,6.3,11.9,0.1c7.6-9.9,14.7-20.3,22.6-30c4.5-5.6,6-10.7,3.8-18
		c-4-13.9-6.7-28.1-9.9-42.2C1689.7-285.4,1690.2-290.4,1687.9-294.7z"/>
	<path class="st10" d="M1695.4-285.1c-0.7-4.6-3.7-7.4-7.5-9.6c-0.3,4.9-0.8,9.9,3.4,13.7L1695.4-285.1z"/>
	<path class="st2" d="M1612.6,80c15.1,24.1,30.2,48.1,45.4,72.1c1.6,2.9,3.5,5.6,5.6,8.2c4,4.5,12.6,2.9,14.8-2.7
		c0.8-2.5,1.5-5.1,1.9-7.7c3.5-16.8,7.1-33.6,10.6-50.4c-20.5-3.1-39.6-10.7-58.7-18.6c-7.9-3.3-15.9-6.5-23.9-9.8
		C1609.6,74.2,1611,77.2,1612.6,80z"/>
	<path class="st11" d="M1623.8-133c-0.6-1.9-1.2-2.3-1.6-0.9C1622.2-133.8,1623.3-133.3,1623.8-133L1623.8-133z"/>
	<path class="st12" d="M3638.5,1568.3c7-2,14.2-3.6,20.9-6.4c10.2-4.3,15-14.7,12.4-24.4c-3-11.1-12.7-17.8-24-16.5
		c-2.6,0.5-5.2,1.2-7.7,2c-39.7,10.8-79.5,21.6-119.2,32.5c-3.8,1-7.8,2-11.2,3.8c-8.3,4.5-12.6,11.7-11.5,21.4
		c0.9,8.8,6.2,14.4,14,17.8c5.2,2.3,10.3,1.1,15.6,0c8.2-1.8,15.9-6.1,24.3-5.2c3,5.2,1.3,9.9,1.7,14.5
		c1.7,18.4,11.2,30.9,28.4,37.2c16,6.1,34.2,1.5,45.4-11.5c12.2-13.9,14-29.6,6.9-46.4c-2-4.6-4.8-8.9-7.1-13
		C3630.5,1569.5,3634.7,1569.4,3638.5,1568.3z"/>
	<path class="st12" d="M3237.1,1571.2c6,17.6,18.9,27.6,36.9,29c23.8,1.8,37.9-12.2,45.8-33c7.8,2,11.9,7.8,17.7,11
		c10.2,5.5,21.9,3.2,28.5-5.8c6.1-8.4,5.5-19.4-2-27.4c-3.3-3.3-6.8-6.3-10.6-9.1c-30.2-24-60.5-48-90.7-71.9c-3.6-3-7.4-5.7-11.4-8
		c-9-4.8-18.7-2.6-25.3,4.8c-6.6,7.4-7.2,19.8-0.7,27.6c3.4,4,7.9,7.1,11.8,10.7c6.7,6.2,15.2,10.5,21.3,18.8
		C3240.7,1531.8,3229.1,1547.9,3237.1,1571.2z"/>
	<path class="st8" d="M3322.2,1712.5c-1.8-0.8-3.5-2.1-5.4-2.4c-20.3-3.1-40.6-6.2-61-8.8c-5.6-0.7-11.6-3.4-17.3,0
		c1.8,16.1,19,75.8,26.2,90.9c1.2-0.4,3-0.2,3.6-1c18.5-21.7,37.3-43,53.7-66.4C3325.1,1720.6,3325.5,1716.6,3322.2,1712.5z"/>
	<path class="st8" d="M3333.9,1719.1c2.3,9.4,4.7,19.1,6.9,28.7c2.3,10.3,3.7,20.9,6.8,31.1c2.7,9,1.7,19.4,9.2,29
		c19.5-26,40.1-49.3,57.4-75.1c2.5-7.9-6.3-4.5-8.1-8.1c-1.8-0.7-3.6-1.9-5.5-2.1c-26.1-3.3-52-9-78.3-10.2l-0.2,12.3
		C3326.4,1723.8,3327.5,1716.5,3333.9,1719.1z"/>
	<path class="st8" d="M3421.7,1734.4c3.1,21.6,5.8,43.2,8.6,64.8c0.8,6.3,0.4,13,5.8,19.5c12.8-15.4,25.2-29.9,36.9-44.9
		c7.3-9.3,16.2-17.5,21.5-28.3c2.8-8.3-6.2-5.4-8.5-8.9c-10.4-5.3-22-4.1-33-6c-15.5-2.9-31.4-4-47.1-5.8l8.1,8.1
		C3417,1732.3,3420.9,1728.6,3421.7,1734.4z"/>
	<path class="st8" d="M3503.7,1746.6c0.8,2.5,1.6,5.1,2.2,7.6c4.3,19.4,8.5,38.8,12.7,58.2c1.3,6.1,2.6,12.2,5.4,18.7
		c11.3-13.6,41.8-65.5,48.2-81.5c-11.7-5.5-24.5-4.9-36.8-7c-16.3-2.7-32.6-6.1-49.2-6.2l8.5,8.9
		C3497.8,1744.2,3501.5,1739.7,3503.7,1746.6z"/>
	<path class="st13" d="M1601.8,1749.6c1.9-5.6,2.9-11.5,4.6-17.2c7.7-26,15.6-52,23.1-78c10-35,19.5-70.1,29.5-105
		c6.9-24.2,14.6-48.1,21.3-72.3c2.8-10.1,6.1-20.3,6.1-31.1c-3.8-6.2-7.3-12.5-11.3-18.6c-40.5-61.9-73.9-127.3-98.8-197.1
		c-0.9-1.1-1.9-2.2-3-3.2l0.1,0.1c-7.5,2.8-14.9,5.7-22.4,8.2c-11.2,3.8-22.6,7.4-33.9,11.1c-2.5,17.6-6.5,35.2-7.1,52.9
		c-0.5,16.7-6.3,32.6-4.8,49.4c-4.9,10.7-1.7,22.6-4.4,33.3c-4.4,17.5-4,35.4-6.5,53.1c-2.3,16.3-5.2,32.6-5.5,49.3
		c-0.3,9.9-1.5,19.7-3.6,29.4c-2.8,13.1-2.8,26.3-4.6,39.4c-2.4,17.6-4.7,35.3-6.5,53c-0.8,7.9,0,15.8-2.9,23.6
		c-2.7,7.1-1.1,14.4,2.7,21.1c21.7,23.1,43.2,46.4,65,69.4c17.2,18.2,34.7,36.3,52.1,54.4C1598,1767.8,1598.8,1758.2,1601.8,1749.6z
		"/>
	<path class="st14" d="M3897.4,112.3c7.9-4.9,9.9-8.5,7.9-13.9c-2.4-6.4-8-8.1-16.8-4.4c-17.2,7.3-34.2,14.9-51.2,22.5
		c-1.8,0.8-3.5,1.9-5,3.2c-3.3,2.8-4.6,6.5-3,10.7c1.3,4,5.2,6.5,9.3,6.1c3.3-0.3,6.5-1.1,9.6-2.4c3.7-1.4,6.2-1,7.7,3.2
		c0.9,3.2,2.4,6.2,4.2,8.9c5.6,7.4,16.9,9.4,25.3,5c7.5-4,11.7-13.7,9.1-22.2c-1.1-3.7-3.2-7.2-5.5-12
		C3892.8,114.9,3895.2,113.7,3897.4,112.3z"/>
	<path class="st15" d="M3767.3,134.4c1.9-4.4,0.6-9.1-3.6-12.3c-2.1-1.6-4.4-3-6.7-4.3c-13.8-8-27.6-16-41.4-23.9
		c-2.8-1.7-5.8-3.2-8.9-4.4c-4.4-1.7-9.1,0.8-11.6,5.3c-2.3,4.2-1,8.1,1.9,10.9c3.3,3.2,7.6,5.2,11.4,8c3,2.2,3.8,4.8,1.6,8.5
		c-3.1,5.2-5.5,10.7-3.6,17c2.3,7.6,6.9,12.7,14.9,14.3c8.8,1.7,16.3-0.9,20.6-8.6c3.6-6.5,6.9-9.5,13.5-5.1
		C3761.6,140.5,3765.5,138.6,3767.3,134.4z"/>
	<path class="st8" d="M3756.7,209c2.7-1,5.8-4.3,7.8,0.7c4.4,10.8,8.6,21.5,12.9,32.1c4.1-1,5.4-3.3,6.7-5.6
		c5.3-9.1,10.4-18.3,15.9-27.2c2.5-4,3.8-0.4,5.3,1.4c0.8,1.1,1.6,2.1,2.4,3.1c9.1-4.5,19.2-3.7,28.9-4.9l7.9-4.5
		c9.2,7,18.5,7,27.7,0c-2.8-3.9-7-3.1-10.9-3.1c-44.4,0-88.8,0.1-133.2,0.2c-2.6,0-5.6-0.2-7.8,0.9c-3,1.5-2.3,4.2-0.2,6.4
		C3732.3,210.5,3744.5,210.1,3756.7,209z"/>
	<path class="st8" d="M3737.1,240.3c9-7.2,12.1-18.5,18.5-27.5c0.7-1,0.7-2.5,1.1-3.8c-0.4-0.5-0.8-1.2-1.3-1.5
		c-11.9-4.7-23.7-5.9-35.2,0.9C3724.4,219.8,3726.7,232.2,3737.1,240.3z"/>
	<path class="st8" d="M3815.3,239.3c10.7-2.4,10.5-13.7,16.2-20.2c2.4-2.8,3.4-6.9,5-10.5c-5.6-6.9-13.3-4-20.3-4.1
		c-5.9-0.1-7.6,4.2-8.5,9.1C3808,222.6,3810.6,231.5,3815.3,239.3z"/>
	<path class="st8" d="M3859,243.2c4.9-14.6,13.2-25.4,13.1-39.1l-27.8,0C3845.5,217.8,3851.4,229.5,3859,243.2z"/>
	<path class="st4" d="M1971,1557.1c117-61.4,210.9-148.2,283.1-258.7c73.1-112,117.4-235.4,143.2-366c8.6-44.4,14.8-89.3,18.5-134.5
		c2-23.2,1.5-46.6,2.3-69.9c0.3-7.2-1.8-12.6-7.7-17.3c-20.4-16.1-41.3-31.5-63.4-45.3c-64.5-40-133.9-68.3-207.2-87.2
		c-19.3-5-38.5-10.6-58.5-12.3c-2,0.2-4,0.2-6,0.5c-9.8,1.3-10.3,2.4-9,10.9c4.4,28.7,9.5,57.4,10.6,86.6c0.1,3.3-0.4,6.9,0.8,9.9
		c4.3,11,3,22.3,3.2,33.6c0.3,12.6-1.3,25.6,1.2,37.8c2.4,12,2.8,23.7,2.9,35.6c0.1,19.3,0,38.6,0.1,57.9c0,4,0.8,8.3-0.3,11.9
		c-5,15.6-3.1,31.6-3.6,47.5c-0.2,8.6,0.4,17.5-1.5,25.8c-1.9,8-2.2,15.7-2.4,23.7c-0.1,5.3,1.2,11.2-0.6,15.9
		c-6.2,16.6-2.5,34.2-6.6,51.2c-5.2,21.7-5.3,44.7-9.5,66.7c-6.9,36.4-14.9,72.6-23.1,108.7c-10.1,44-22,87.4-35.9,130.4
		c-8.8,27.2-18.2,54.1-28.1,80.9c-16.9,46.1-34.8,91.9-56.8,135.9c-7.5,14.9-14.9,29.8-22.3,44.7c-1.4,2.9-3.5,5.9,0.1,8.8
		C1921.3,1582.7,1946.2,1570.1,1971,1557.1z"/>
	<path class="st16" d="M1573.4,1227c0,2,0.9,3.2,3,3.2C1576.8,1227.9,1575.6,1227,1573.4,1227z"/>
	<path class="st17" d="M4637.5,776.4c-8.6,3.6-17.1,7.3-25.6,11.2c-3.7,1.7-7.5,4-6,8.9c1.2,3.8,5.1,3.7,8.4,3.2
		c6.3-0.9,6.8,5.4,10.3,8c7.1,5.2,18.5,1.5,18-7c-0.4-7.7-0.2-13.7,5.6-19.1c1.8-1.6-0.7-5.9-5.2-6.3
		C4641.1,775.3,4639.2,775.7,4637.5,776.4z"/>
	<path class="st18" d="M4540.8,809.1c4.7,2.7,8.9,0.9,12.7-2.3c2.9-2.4,4.8-6.3,9.9-4.9c2.8,0.8,4.9-1,5.7-4
		c0.8-2.6-0.3-5.5-2.6-6.9c-10.2-6-20.5-11.9-30.9-17.7c-0.3-0.2-0.6-0.3-0.9-0.4c-2.3-0.8-4.9,0.4-5.7,2.8c-0.7,1.5-0.4,3.8,0,5.5
		c0.5,1.3,1.3,2.3,2.5,3c4.7,3.1,5.4,7,2.8,11.8C4532.9,802.1,4535.8,806.3,4540.8,809.1z"/>
	<path class="st8" d="M4561.7,844.6c1.9,0,4.9-0.8,5.4,0c2.5,3.8,4,8.1,6.3,12c1.7,2.8,4.5,2.3,6.2,0c2.3-3.1,4.2-6.6,6.2-9.9
		c1.6-2.6,4.1-2.8,6.7-2.6c0.1-0.1,0.2-0.1,0.2-0.2c1.3-1.2,1.5-3.3,0.2-4.6c-10.7-2.3-21.3-1.1-32-0.4
		C4559.5,841,4559.7,842.9,4561.7,844.6z"/>
	<path class="st8" d="M4541.6,841c1.2,3.2,2,6.4,3.5,9.2c1.7,3.2,2.1,8.4,6.9,8.2c4.5-0.2,5.4-5.3,7.5-8.4c1.1-1.6,1.4-3.6,2.1-5.5
		c-0.2-1.9-0.4-3.7-0.6-5.6C4554.7,838,4548.2,836.5,4541.6,841z"/>
	<path class="st8" d="M4595.3,855.3c1.1,3.1,4.2,3.6,5.9,1.2c2.3-3.1,4.3-6.5,6.4-9.7c3.7-5.6,6.3-1,9.2,1c2.4-2.9,2.6-5.8,0.2-8.8
		c-8,0.3-16-2.6-24,0.3c-0.2,1.6-0.3,3.2-0.5,4.8C4593.4,847.9,4594,851.7,4595.3,855.3z"/>
	<path class="st19" d="M4622.3,856.9c4.1,0.3,3.4-4.9,5.2-7.4c0.6-1.2,1.1-2.4,1.3-3.7c1.4-5-0.1-7-5.9-7.6
		c-1.9-0.2-3.9,0.5-5.9,0.7c-0.1,2.9-0.1,5.9-0.2,8.8C4617.3,851.6,4617.2,856.6,4622.3,856.9z"/>
	<path class="st20" d="M961.4,940.5c6.3,11.7,13.6,22.7,23.6,31.6c2.9-2.6,3-5.5,1.3-8.9c-5.9-11.8-11.8-23.7-17.7-35.5
		C963.3,930.3,965.4,937.1,961.4,940.5z"/>
	<path d="M1117.7,954.6c0-0.8-0.7-1.5-1.5-1.5c-0.8,0-1.5,0.7-1.5,1.5s0.7,1.5,1.5,1.5C1117,956.1,1117.7,955.4,1117.7,954.6z"/>
	<path d="M1171.6,936.5c0-0.8-0.7-1.5-1.5-1.5c-0.8,0-1.5,0.7-1.5,1.5s0.7,1.5,1.5,1.5C1171,938,1171.6,937.4,1171.6,936.5z"/>
	<path d="M1171.6,936.5c0-0.8-0.7-1.5-1.5-1.5c-0.8,0-1.5,0.7-1.5,1.5s0.7,1.5,1.5,1.5C1171,938,1171.6,937.4,1171.6,936.5z"/>
	<path d="M1782.5,62.8c0-0.8-0.7-1.5-1.5-1.5l0,0c-0.8,0-1.5,0.7-1.5,1.5s0.7,1.5,1.5,1.5C1781.9,64.3,1782.5,63.6,1782.5,62.8z"/>
	<path class="st0" d="M-331.9,2961.4l927.1-1.1l-0.6-484l-939,1.1l0.6,478.5C-340,2958-336,2959.8-331.9,2961.4z"/>
	
		<rect x="4202.6" y="2470.2" transform="matrix(1 -1.210232e-03 1.210232e-03 1 -3.2789 5.6563)" class="st0" width="939" height="484"/>
</g>
</svg>
