<svg xmlns="http://www.w3.org/2000/svg" viewBox="0 0 2716.87 3457.13"><defs><style>.cls-1{fill:#00b6bc;}.cls-2{fill:#a1dbf1;}.cls-3{fill:#e4f4f3;}.cls-4{fill:#71d5e4;}.cls-5{fill:#5287d7;}.cls-6{fill:#54b7bc;}.cls-7{fill:#fa9746;}.cls-8{fill:#efebe0;}.cls-9{fill:#fae8e0;}.cls-10{fill:#cccfdc;}.cls-11{fill:#ed975e;}.cls-12{fill:#3e7bd7;}.cls-13{fill:#689ff1;}.cls-14{fill:#869dd0;}</style></defs><g id="Layer_2" data-name="Layer 2"><g id="Layer_1-2" data-name="Layer 1"><path class="cls-1" d="M1448.4,1963.45c22.16,12.15,38.59,30.34,53,50.58,21.15,29.75,34.11,63.21,43,98.28a530.19,530.19,0,0,1,16.26,120.48c.52,27.3,1,54.69-.58,81.93-1.74,30.54-4.69,61.11-9.21,91.35-2.64,17.6.57,16.9,12.48,22.15,25.59,11.27,51.29,22.35,77.29,32.61a1528.75,1528.75,0,0,0,191.82,61.87c49.19,12.25,99,21.39,149.45,25.23s101.2,2.6,150.76-10.74c41.34-11.12,78.45-29.83,107.9-61.53,25.1-27,55.78-45.14,89.72-58.2,31.81-12.23,64.88-19.51,98.55-24.74,61.59-9.58,123.51-9.21,185.43-6.53,30.55,1.32,61,5.54,91.45,8.58,10.47,1.05,11,.95,11.08-10.27.1-12.66.27-25.35-.44-38-7.52-132.56-36.71-259.51-99.8-377.28-65.63-122.53-160.45-214.85-287-273.53-17.5-8.11-35.48-15.26-53.5-22.14-46.8-17.87-92.22-38.4-133.53-67.14-38.81-27-71.61-59.62-94.8-101.22-17.36-31.14-28-64.67-34.76-99.5-6.45-33.37-10.32-67.07-12.71-101-1.64-23.23-4.38-46.39-6.37-69.6-.62-7.27-.43-14.6-.62-21.91-2.67-19.11-5.48-38.2-8-57.32Q1962.86,985,1872.3,838.47c-36.24-58.57-77.82-113-126.9-161.47q-155.69-153.72-370.34-196.56c-69-13.77-138.61-17.62-208.72-14.44-13.95.63-27.84,2.57-41.76,3.91-4,2.3-7.1,4.8-2.39,9.32,39.68,8.23,80.11,12.46,119,25.12,77.48,25.21,146.89,66,215,109.33C1535,663.82,1610.24,718.9,1681,780c38.33,33.08,74.75,68,107.76,106.7,32.7,38.31,44.64,79.41,33.47,129.48-18.67,83.68-47.78,163.6-80,242.67-23.86,58.64-50.79,115.91-77.13,173.45-6.7,22.92-15.26,45.21-22.92,67.8,1,10.39,9.46,13.87,17,17.74,15,7.71,17.17,18,9.56,32.79-18.28,35.42-35.63,71.32-53.73,106.84-9.21,18.06-15.69,20.6-31.12,13.73-16.86-7.49-20.22-15.53-13.93-33.26,7.68-21.64,7.68-21.64-23.52-37.29-1.64-.93-3.33-1.73-5-2.51-3.45-1.65-6.88-3.35-10.37-5-5.75-2-11.6-4.86-16.66,1.41-5,13.14-3.76,27.24-5.89,40.84-4.92,31.39-14.11,60.21-38.47,82.28a20.64,20.64,0,0,0-5.78,10.22c-1.54,58.16-5.06,116.15-13.32,173.8-1.87,13.09-4.38,26.08-6.17,39.18C1443.69,1948.73,1442.22,1956.73,1448.4,1963.45Z"/><path class="cls-2" d="M1668.14,1435c9.6-19.72,19.62-39.25,28.71-59.21,28.67-63,56.2-126.44,80.18-191.39,17.51-47.43,33.94-95.19,45.33-144.57a485.14,485.14,0,0,0,9.3-57,98.15,98.15,0,0,0-11.19-57.91c-8.51-16-19.1-30.45-30.65-44.24-23.54-28.11-49.34-54-76.51-78.65-79.57-72.25-165.74-135.73-256-193.83-47.6-30.65-96.53-59-148-82.83-53.54-24.79-109.78-40.18-168.28-47.44-6.59-.82-13.28-.92-19.92-1.35-11.67-5.57-23.79.87-35.55-1.36-12.06.75-18.08,10.45-25.5,17.75C1001.52,550.49,938.7,602.7,868,645c-16.6,9.92-34.1,18.07-51.54,26.37-18.77,8.91-21.87,19.54-10.08,36.23,8,11.26,12.85,23.23,13.21,37,.1,3.89.71,8.71-3.74,10.39-4.22,1.6-7.44-1.93-10.4-4.56-5.05-4.46-8.26-10.39-12.23-15.71-3-4-5.11-10.51-11.67-8.83-4.86,1.25-6.47,6.7-7.46,11.15-4.53,20.35-17.83,35.36-31.26,52.56-3.77-33,2.22-61.64,21.68-87.26,16-21,14.68-28.09-6.09-44.24-16.81-13.07-33.3-26.53-48.85-41.12-4.77-4.47-9-10.06-16.66-9.76-48.14,22.13-91.83,51-130.31,87.43-35.58,33.66-59.68,74.47-72.82,121.73-10,35.85-18.72,72-25.26,108.62-4.5,8,.65,13.06,6.46,16.11,39.7,20.82,79.22,42,120.55,59.55,4.83,2,10.36,1.85,15.66,1.91a1759.31,1759.31,0,0,1,218.13,16.16c21.31,3,33,12.59,39.18,33,8.41,27.94,18,55.56,27,83.33,4,16.13,15,25,29.63,32.27q233.1,116,465.87,232.6c9.3,4.64,18.33,11.59,30,7.39,23.27-31.66,39.55-66.88,52.67-103.73-1-22.86-8.7-44.33-14.35-66.14-15.68-60.53-32.07-120.87-47.13-181.57-1.6-6.45-3.14-13-7.18-18.46-26-20.72-56.13-35.25-82.84-55.13-33.6-25-67.43-49.68-103-77.31,56.89,16.18,111.5,29.93,165.62,45.59,60.07,17.72,120.74,33,181.42,48.23,23.22,5.84,24.18,7.41,24.68,31.1,1.9,90.55-4.09,180.74-10.9,271-2.55,33.77-6.76,67.51-6.18,101.49,14.08,25.5,39.84,30.49,64.88,35.73C1645.63,1440.28,1658,1446.22,1668.14,1435Z"/><path class="cls-3" d="M112.82,833a28.34,28.34,0,0,0,2.67,13.47c11.05,23.37,23,46.32,38,67.36,10.73,15.1,24.87,27.31,39.05,39.37,11.18,9.5,25,14.63,36.28,23.76,6.63,7.92,16.09,11.45,24.88,16.05,49.93,26.09,101.8,48.41,150.2,77.47,7.39,3,15,5.25,22.19,8.84Q655.24,1194,884.35,1308.75c7.09,3.59,14.07,7.52,21.41,10.5,14.08,5.71,23.75,13.86,22.58,30.87-.34,5,.85,10.92,8,11.78,7.8-6.49,3.92-15.8,5.63-24.57q186.87,93.11,372.71,186.32c11.23,5.59,21.79,12.89,34.55,15.06,19.59-17.51,28.59-40.62,34.47-65.38-4.71-12.12-16.8-14.52-26.6-19.42q-605.8-303-1211.49-606.18c-7.53-3.76-16.78-5.46-20.72-14.52Z"/><path class="cls-4" d="M124.89,833.21c-1.69,1.95-3.39,3.89-5.91,6.78,6.21,3.18,11.91,6.17,17.68,9.06q612.09,306.06,1224.15,612.2c7,3.52,15,5.64,20.26,12.24,6.71.59,9.45-4.61,11.18-9.19,7.43-19.64,25.12-35.21,23.3-58.5-6.9-.29-12.66-3.75-18.6-6.71l-480-240c-1.78-.89-3.54-1.85-5.38-2.61-6.61-2.74-10.94-7-11.35-14.72-.09-1.67-2.06-3.25-3.17-4.87-3.76-1.28.37,11.57-9.43,3.69-14.62-11.75-33.3-18-49.79-27.51C797,1095.31,758,1073.58,718,1054c-37.9-18.22-75.32-37.38-112.8-56.43-7.87-.6-15.4-1.73-22.74-5.49-35.16-18-70.56-35.52-105.91-53.13-6.07-3-12-6-12-14-3.43,1.9-6.62,4.67-11,2.43-4.73-2.41-9.55-4.64-14.3-7-49.27-24.65-98.62-49.12-147.74-74.06-18.51-9.4-37.87-16.68-58.1-19.8-22.24-3.43-45-3-67.41.19C152.24,828.67,138.58,831,124.89,833.21Z"/><path class="cls-5" d="M847.59,281.12c12.32-34.2,11.78-69.23,6.82-104.57a377.5,377.5,0,0,0-26-94.05c-6-14.15-12.82-27.85-21.79-40.35C787.13,14.92,761,.09,727,0a227.69,227.69,0,0,0-53.42,6.49c-7.76,1.85-15.51,3.84-23.15,6.15a473,473,0,0,1-82,17,163.51,163.51,0,0,0-42.37,11.18c-26.91,10.92-47.5,29-62.06,54.1-17,29.29-16.09,58.31,1.43,87a128.26,128.26,0,0,0,23.07,27.47c2,4.59.21,5.55-4,4.15-2.38-1.14-4.74-2.31-7.14-3.39-.58-.26-1.67-.52-1.88-.27-.67.84-1.7,2.18-1.43,2.86,10.81,27.61,36.12,43.17,65.44,40.32,2.63-.25,5.22-.82,7.82-1.25,11.47,1.56,20.24-4.82,29.55-9.87,27.35-14.84,54-31.3,85.11-37.69,28.08-5.75,52.68-.68,72.12,21.86,5.31,6.15,11,11.72,20.27,10,6.09-1.77,9-7,12.55-11.51a57,57,0,0,1,9.43-9.83c11.47-9,17.67-2.38,23.64,7.36,10.2,16.63,10.48,37.17,21.54,53.41A25.56,25.56,0,0,0,833.49,284C838.65,285.3,843.56,285.36,847.59,281.12Z"/><path class="cls-5" d="M692.91,607.16a690.07,690.07,0,0,0,70.78,61.41c3.12,2.36,7.95,4.25,7.52,8.54-.64,6.36-.17,13.49-5.83,18.4a68.65,68.65,0,0,0-16.89,22,118.44,118.44,0,0,0-10.65,34.16c-2.29,15.07-2.14,30.33-1.42,46,11.83-5.52,17.52-12.11,30.29-31,8-11.83,11-25.37,15.6-40.22,4.2,6.89,7,12.91,11.11,18,7.3,9,13.9,19.56,27.76,19.38,6.39-10.48,4.36-21.83,2.36-32.72-2.08-11.24-7.77-21-15.59-29.64-8.1-9-5.94-19.6,4.64-23.74,45-17.61,85.26-43.43,123.81-72.09,51.89-38.57,100.69-80.69,145.13-127.75,1.06-1.14,1.32-2.17.79-3.1s-1-1.32-1.39-1.32c-27.24-12.18-55.45-20.59-85.51-21.69-14.59-.54-29,.39-42.66,6.06-10.06.76-16.6,7.3-23.36,13.8-31.91,30.67-55.22,67.94-80.17,104-16.33,24.32-30.57,50-47,74.24-2.84,4.2-5.19,10.66-11.59,9.3-6.19-1.33-6.18-8.1-7.3-13.07-3.36-14.94-5.94-30-9.21-45C771,587,767.7,572.92,759.93,560.45c-4.42-7.09-9.33-13.2-18.93-7.77a148.08,148.08,0,0,0-34.34,15.49,77.52,77.52,0,0,0-14.19,10.76c-7.49,7.3-7.77,11.19-3,21.13C690.57,602.44,691.75,604.8,692.91,607.16Z"/><path class="cls-1" d="M832.59,281.27l-9.14-8.17c-14,4.28-15.93,18.22-22.26,28.44-6,9.75-10.46,11.74-18.89,1.83-14-16.49-23.31-33-13.51-55.32,3.05-7,5.33-15,2.87-23.14-1.38-2.75-3.1-4.9-6.66-3.82l-8.86,13c-1.87,1.86-4.79,3.43-5.07,5.95-3,27.33-24.31,35.54-45.45,43.92-38.14,15.12-76.4,29.87-117.18,36.55-6,1-11.71,2.5-15.19,8.16-4,2.54-4.61,6.25-3.24,10.39,5.43,16.31,10.18,32.91,16.62,48.81,7.18,17.71,13.86,35.67,25.13,51.61,17.84,25.21,31,30.79,60.55,23.87,10.24-2.4,20.11-6.67,30.91-6.41,5.31.48,9-2.81,13-5.47,44-29.5,77.84-67.39,96-117.81C818.53,316,833.91,301.87,832.59,281.27Z"/><path class="cls-6" d="M1080.93,473.51l.6,4.42,39.64-1.4,3.42-6.62c-4.44.11-9.06-.56-13.26.49C1101.3,472.91,1091.14,473.27,1080.93,473.51Z"/><path class="cls-5" d="M484.55,213.52a6.73,6.73,0,0,0,5.95,3.78c1.48,0,3-1.33,4.43-2.06-.54-1.07-.82-2.45-1.67-3.15a29.93,29.93,0,0,0-4.71-2.72C487.21,210.75,485.88,212.14,484.55,213.52Z"/><path class="cls-5" d="M504.61,2117.56c-2.49.51-5.46-.4-7.26,2.24a44.25,44.25,0,0,0-3.13,5.09c-34.59,69.12-66.76,139.23-89.67,213.29-11.65,37.68-18.08,76.37-23.83,115.22-7.69,52-15.39,104-22.63,156.11-5,35.6-9.15,71.31-13.68,107-4.79,37.64-9.75,75.26-14.32,112.93-4.72,39-9,78-13.56,117.05-4.81,41.67-9.7,83.32-14.41,125-3.22,28.45-6.22,56.93-9.3,85.39q-5.37,49.65-10.71,99.29c-.5,4.63-.78,9.29-1.33,13.92-.75,6.28-.16,11.73,5.84,15.74,1.69,1.13,1.77,4.66,2.59,7.09,41.42,17.83,84,26.16,128.74,14.94,17.18-3.36,27.43-13.8,34.56-29.78C517.69,3131.9,578.34,2984,631.05,2832.85c29.22-83.77,61-167.52,70.87-255.7,9.39-84.14,52.34-148.1,102.75-210.05,19.32-23.75,38.72-47.53,60.46-69.21,4.71-4.7,9.31-9.68,9.47-17-31.88-108.38-62.51-217.12-94.83-325.37-12.76-7.92-16.16,4.72-20.57,10.82-38.05,52.59-82.56,99.28-128.88,144.47-40.46,39.48-40.05,39.52-92.21,18.63C527.17,2125,517.37,2116.92,504.61,2117.56Z"/><path class="cls-6" d="M417.33,3305.9c-6.86-4.4-14.53-1.5-20.82-.1-13.29,2.95-25.75,3.61-39-.17-7.42-2.12-15.54-1.05-23.42-3.19-10.88-3-21.91-5.27-31.87-10.63-4.95-2.67-8.84-1-13,1.08-1.53,3.62-3.62,7.12-4.5,10.9-6.46,27.77-22.54,49-44.58,66.21-16.83,13.15-35.58,22.94-55.28,31-22.78,9.27-46.43,15.42-70.58,19.9a97.51,97.51,0,0,0-21,5.87c-13.73,6-25.07,14.8-30.06,29.8,6,.18,12,.51,18,.51q167.73,0,335.48,0c9.72-7.81,11-19.33,12.32-30.31,4.37-36.23.86-72.32-3.41-108.32C425,3313.05,423,3308.16,417.33,3305.9Z"/><path class="cls-5" d="M1448.4,1963.45c.33-5.3.15-10.7,1.08-15.89,5.15-28.78,9-57.69,12.27-86.75,4.54-40.35,7.63-80.7,7-121.31-.08-4.65-.39-9.29-.59-13.94-7.59-3.06-14.4.34-21.17,2.84-72.66,26.85-148.43,36.42-225.14,38.47-86.49,2.32-173,1.87-258.18-17.1-6.53-1.45-13.23-2-19.24,2.26-6.41,26.07,1.8,51.47,4.58,76.93,11.87,108.6,27.36,216.8,36.91,325.66,10.85,55.58,14.22,112.13,21.23,168.22,8.16,65.36,14,131,21.38,196.44,8.2,72.64,34.37,140.85,58.14,209.39,65.26,188.19,137.78,373.66,209.53,559.43,6.3,16.33,14.48,28.13,32.16,31.66,36,5.16,71.89,8.64,107.46-2.74,10.69-3.42,21.56-6.39,28.83-15.95,1.67-2.06,3-4.69,5.09-6.07,7.77-5.08,8.76-12.45,8.69-20.88-.74-89.27-2.5-178.52-7-267.68q-4.23-84.8-11.29-169.43c-6.52-77.62-14.9-155.05-31.45-231.34-4.93-22.77-10.77-45.29-18.69-67.26-5.67-15.73-12.39-30.88-22.11-44.57-9.84-13.86-15.52-29.51-18.39-46-3.66-21-5.29-42.29-3.6-63.68a896,896,0,0,1,16.94-118.52c14.29-66.35,29.14-132.58,43.44-198.92,6.58-30.57,12.37-61.3,18.63-91.94C1445.74,1970.92,1447.23,1967.22,1448.4,1963.45Z"/><path class="cls-6" d="M1464.64,3301.07c-14.52,3.94-27.81,11.66-43,13.72-13.57,1.85-27.47,7-40.53,5.3-13.52-1.75-27.56-.83-40.73-5.19-4.36-1.45-7.62.62-11.18,2.19-5.16.8-8,4.54-10.27,8.63-22.48,41.57-62,60.24-103.22,76.14-19.19,7.4-39.57,11-59.63,15.48-17.11,3.85-32.83,10.77-43.23,26-2.66,3.89-4,8.42-1.64,13.16,6.65.22,13.29.63,19.94.63q166.72.06,333.45,0c10.54-38.48,9.42-77.44,5-116.56C1468.1,3327.37,1468.39,3314,1464.64,3301.07Z"/><path class="cls-2" d="M945.07,1752.5c19,3.26,38,6.41,56.94,9.8s38.15,5.19,57.3,7.34c57.17,6.43,114.43,3.71,171.67,3.39,26-.14,51.62-4.4,77.4-7.1,30.51-3.19,60.4-9.06,90.19-16.14a370,370,0,0,0,69.58-24.23c27.77-20.77,39.77-50,44.82-83.08a341.16,341.16,0,0,0,3.84-49.33c-6.08-14.59-21.7-16-32.88-23.49-7.08-4.74-15.2-8-22.76-12-26.26-12-28.4-11.32-41.15,14-15.52,30.83-30.66,61.86-46.47,92.55-10.78,20.91-16.81,22.72-37.84,12.84-38.38-18-39.18-20.27-20.55-57.54,10.09-20.2,20.38-40.29,30.12-60.65,3.29-6.89,9.06-13.62,4.59-22.26-5.76-3.25-11.39-6.75-17.29-9.7q-187.87-94-375.82-187.82c-5.82-2.91-11.39-6.66-19.56-7.75-.28,10.51-.53,20.21-.79,29.92,1.13,17.86,2.31,35.72,3.36,53.58,1,17.28-1.93,34.43-2,51.64-.1,25.94-2.54,51.7-5.69,77.32-4.77,38.79-11.8,77.27-22.26,115-5.67,20.43-12,40.68-18.19,61-1.36,4.44-3.39,8.66-2.87,13.47C904.54,1748.37,923.84,1753.24,945.07,1752.5Z"/><path class="cls-7" d="M1540.76,1601.27c-1.8-3.31-4.79-4-8.22-3.66C1534.52,1600.55,1537.47,1601.29,1540.76,1601.27Z"/><path class="cls-6" d="M1500.49,1445.83c21.44-18.88,46.52-31.25,73.11-40.92,1.07-11.26,2.24-22.51,3.18-33.78,2.33-27.85,4.51-55.7,6.81-83.55,1.7-20.57,2.6-41.2,3.88-61.78,4-65.12,7.84-130.3,6.21-195.62-.16-6.66-.36-13.34-1-20-.94-9.23-2.57-10.79-11.92-13.19q-77.31-19.87-154.59-39.79c-16.75-4.34-33.37-9.12-50.05-13.69-5.72,1.74-6.94,6.54-5.41,11,9.31,27.31,11.12,57,25.93,82.55,5.12,18.52,10.48,37,15.33,55.58q27.6,106,54.94,212c19.1.26,35.62,8.11,52.15,16.72,14.17,7.37,16.82,17.3,10.33,31-9.88,20.93-20.53,41.49-30.84,62.2-2.93,5.87-7.28,11.15-7.64,18.13C1492.19,1438.56,1492.36,1445.15,1500.49,1445.83Z"/><path class="cls-5" d="M1644.16,1501.4c-7.53,10.83-14.78,21.86-22.69,32.4-3.83,5.12-7.81,9.76-16.24,8.86-7-.74-11,6.6-14.81,11.94-6.47,9.21-12.24,18.91-18.62,28.18-7.49,10.88-17.07,18.54-31.15,18.43,7.62,7.81,18.41,10.2,27.28,15.88,3.4,2.18,4.14,4.9,2.52,8.37-2.53,5.41-5.25,10.73-7.74,16.16-4.89,10.65-.93,25.41,11.14,30.12,4.93,1.92,9.44,4.87,14.34,6.9,10.85,4.5,19.51,1.77,25.64-7.94,1.76-2.79,3.13-5.84,4.62-8.81q28-56.07,56.06-112.17c9.44-19,6.85-25.91-12.64-36.15C1655.5,1510.22,1648,1508.39,1644.16,1501.4Z"/><path class="cls-5" d="M1493.2,1433.06c15.8-26,28.34-53.66,41.66-80.91,8-16.38,6.11-25.62-13-34.48-9-4.15-17.77-8.75-26.65-13.13-9.47-4.68-18.9-5.44-28.29.2q-25.65,50.52-51.31,101c-10.53,23.07-20.87,46.23-34.49,67.71a435.37,435.37,0,0,1-31.21,63.11c-2.62,6.05-5,12.24-7.92,18.16-12.63,25.59-25.43,51.1-38.15,76.64-2.07,4.16-4.47,8.22-6,12.58-3.23,9.39-.9,17.6,7.67,22.38,13.9,7.73,28.16,14.93,42.7,21.38,8.84,3.91,16.8.5,22.28-7.92a124.37,124.37,0,0,0,6.48-12.32q24.06-48.08,48.09-96.16c2.08-4.15,4.11-8.34,6.36-12.4,3.32-6,5.36-6.77,11-4.34,6.09,2.6,12.11,5.37,18.17,8.07-8.28-23.08-.27-44.15,8.06-65.16,2.67-6.73,7.54-12.55,8.23-20.09C1479.76,1461.69,1494.58,1450.35,1493.2,1433.06Z"/><path class="cls-8" d="M504.61,2117.56c23.21,14.56,49,23.65,73.95,34.39,4.77,2.06,9,1.34,13-2,11.76-9.81,23.88-19.2,35.29-29.4,52.84-47.22,99.33-100.15,140.56-157.76,2.67-3.73,5.77-7.16,8.67-10.73,8.31-2.86,11.68-10.5,16-17a906.65,906.65,0,0,0,97.9-195.21c.77-2,1.49-3.92,2.3-5.88a62.33,62.33,0,0,0,2.38-6.17c29.41-84.6,46.12-171.34,48.9-261.14.88-28.55,2.21-56.81-.95-85.2-.8-7.15.24-14.8-6.16-20.22-5.48-5.48-4.12-12.65-3.48-18.93,1.22-12-4.14-18.4-14.68-22.57-11.07-4.38-20.84-11.76-32.61-14.65-9.19,12.51-2.32,25.92-.9,38.36,17.25,151.7-4.5,297.13-67.17,436.55-47.64,106-114.74,197.93-199.21,277.18-14.57,13.67-27.5,31.3-49.67,34.71-71.32-24.86-134.85-63.8-193.55-110.33-107.27-85-183.28-193.8-236.95-318.93-46.63-108.71-73.07-222.38-85-339.85-2.43-24-1.86-47.87-3.52-71.72-1.32-19,6.47-31.08,21-41.94,66.91-50.14,141.15-85.36,220.6-110.21,29.92-9.35,60.52-16.07,91.21-22.39,7.21-3.77,18,.89,22.41-9.49-.87-3.51-3.31-5.47-6.43-7q-81.92-40.89-163.81-81.81c-1.72-.86-3.86-.87-5.81-1.27.71,2.53.71,5.64,2.24,7.49,9.28,11.27,18.57,22.56,28.53,33.22,6.43,6.88,11.3,14.6,15.9,22.08-1,6-6,5.51-9.4,6.68-27.69,9.41-55.41,18.7-82.27,30.38a814.78,814.78,0,0,0-82.07,41.06c-14.39,8.29-29.22,15.79-42.59,25.83-17.5,13.14-35.57,25.51-52.1,40-4.6,4-6.34,8-6.31,13.65.13,22.67-2.17,45.63.78,67.91,2.52,19,1.9,38.28,6.3,57.2,2.64,11.4,3.41,23.6,4.44,35.39,2.45,27.85,8.86,54.91,14.3,82.12a1230.6,1230.6,0,0,0,46.08,166.8c8.38,23.84,18.34,47,27.87,70.4,9.83,24.11,21.5,47.29,33.54,70.25,24.73,47.12,52.57,92.35,85.34,134.41,14.69,18.85,29.94,37.17,46.25,54.7,9.46,10.16,17.34,21.84,27.77,31.22,29.11,26.17,57.68,53,89.29,76.21,28.4,20.85,57.65,40.36,88.86,56.9,9.92,5.26,18.85,12.35,30.45,13.92C503,2114.85,503.75,2116.57,504.61,2117.56Z"/><path class="cls-8" d="M838.17,1117.48c15.49,12.23,34.14,18.62,51.32,27.71,5.41,2.86,6,2.13,7.33-6.34.1-.64.17-1.29.25-1.93-9.81-36-21.69-71.3-34.74-106.25-3.15-8.43-7.1-12.73-16.57-14.23-32.22-5.07-64.47-9.34-97-12.17-47.79-4.16-95.57-7.41-143.57-6.67-.41,6,4.19,7.74,8.31,9.8,23.7,11.89,47.36,23.87,71.18,35.52,10.66,5.22,20.63,12.08,32.55,14.5,23.34,8.34,47.89,10.55,72.2,12.8,19.59,1.8,32.37,9.53,37.53,29C828.82,1106.22,831.48,1113.23,838.17,1117.48Z"/><path class="cls-5" d="M1396.6,1037.12c-3.28-24.28-10.8-47.55-17.2-71.08C1378,961,1376.23,956,1374.58,951c-.92-2.78-.09-5.15,1.51-7.39q-85.26-22.84-170.52-45.63c-.46-.12-1.15.58-1.73.9-.33,3,1.52,5,3.6,6.64,23.1,17.79,45.93,35.95,69.48,53.12,24.64,18,49.89,35.1,75.06,52.33A344.21,344.21,0,0,0,1396.6,1037.12Z"/><path class="cls-6" d="M568.3,2097.42c2.52,2.92,5.51,3.66,8.7,1.33,5.38-3.92,10.78-7.84,15.89-12.09,44.24-36.75,83.71-78.12,119.31-123.23,62.9-79.68,111.08-167.37,142.68-263.93a784.38,784.38,0,0,0,34.72-159.6c4.24-39.11,7.67-78.27,5.95-117.55-1.63-37.19-3.17-74.49-9.89-111.27a33,33,0,0,1,0-6c-4.2-4.55-9.93-6.59-15.26-9.26q-222.46-111.21-444.94-222.38c-6.49-3.25-12.74-7.46-20.59-6.43-7.88,3.22-17.24.11-24.56,5.73,10.75,10.52,7.41,23.27,5.45,35.68-9.56,60.56-13.69,121.74-14.12,182.79-1.2,168.73,23.33,334.11,71.18,496,29.11,98.49,64.74,194.42,111.63,286A262,262,0,0,0,568.3,2097.42Z"/><path class="cls-6" d="M838.17,1117.48c-4.52-13.07-9.11-26.12-13.51-39.23-1.88-5.6-5.42-8.52-11.36-9.37-13-1.87-25.95-4.83-39-6.11-19-1.87-37.77-6.25-57-5.35,3.51,4.28,8.62,6,13.32,8.41q46.34,23.3,92.72,46.47C828,1114.64,832.51,1117.78,838.17,1117.48Z"/><path class="cls-9" d="M1460.61,1562.68c14.26,7.58,28.53,15.12,42.75,22.75,4.56,2.45,9,5.14,13.45,7.72l15.73,4.46c2.47,1.82,6.09,1.07,8.22,3.66l-.11-.06c14.83,6.75,23.95-2.61,32-12.33,14.44-17.41,23.93-38.09,47.34-48.62,12.78-5.75,22.89-21.62,24.16-38.86,12-20.68,19.29-43.1,24-66.42q-53.24,3.68-94.55-30.07c-31,.52-53,18.77-74.86,37.5-8.72,12-18.13,23.58-26.31,36a168.73,168.73,0,0,0-18.9,49.31C1450.78,1540.53,1451,1552.51,1460.61,1562.68Z"/><path class="cls-9" d="M832.59,281.27c-10.51,22-21.63,43.73-31.49,66.1-16.86,38.26-43.37,69.1-77.47,93.36-3.73,2.64-7.25,5.58-10.86,8.38,5.93,5.62,12.58,3.25,18.55.82,31.92-13,62.39-28.56,88.56-51.49,6.65-5.82,9.88-13.91,14.35-21.12a5.21,5.21,0,0,0,1.21-4.24c3.3,1.64-.71,1.9-.6,3,0,.5-.43,1.05-.69,1.61-13.84,28.76-22.6,59.76-39.9,87-14,22-27.11,44.33-48.57,60.15a12.59,12.59,0,0,0-4.95,8.38c.44,1.86.42,4,1.4,5.52,3.36,5.09,2.66,9.61-1.14,14,5.47.1,10.28,1,13,6.84,4.38,9.51,10.47,18.2,11.73,29.08.67,5.82,2.85,11.46,4.35,17.18,28.67,5,51.55-9.44,74.75-22.52,2.75-1.55,4.94-4.28,7.75-6,11.57-16.07,23.07-32.18,34.73-48.19,13.65-18.73,27.63-37.18,44.37-53.36,6.66-6.43,13.17-13,21.12-17.84-10.43-3.36-18.27-10.89-26.13-17.72C899.55,416.59,875,390.66,855.81,360c-5.24-8.37-8.28-16-5.3-26,3.69-12.27,3-24.86.17-37.34-1.17-5.16-2.06-10.38-3.08-15.57Z"/><path class="cls-9" d="M573.25,328.66c22.25-3.88,44.33-8.27,66-15.1a830.31,830.31,0,0,0,98.43-38.3c9.05-4.18,13-10.72,14.71-19.65,1.35-7.16,2.54-14.36,3.8-21.53-4.77-.48-9.14-1.86-12.5-5.51-2.26-2.44-4.59-4.83-6.75-7.36-20.54-24-46.76-29-76.14-22.27-28.22,6.47-53.75,19.38-78.61,33.83-11.44,6.65-23.22,12.71-34.82,19,7.59,12,8.78,26.22,13,39.36C564.42,303.75,567.53,316.64,573.25,328.66Z"/><path class="cls-9" d="M740.73,533.18c22.57-11.07,35.58-31.4,48.89-51.22,20.13-30,34-63,45.28-97.18,1.22-3.7,1.29-7.79,1.9-11.69l.06.06c-2.6,2-6,3.45-7.69,6-14.6,22.58-37,35.35-59.72,47.47-14.56,7.76-29,16-45.05,20.54-3.76,1.05-7.75,1.29-11.63,1.91a14,14,0,0,0-9.55,7.82c9.46,20.38,18.87,40.78,28.42,61.11C734.15,523.37,736.06,529.13,740.73,533.18Z"/><path class="cls-9" d="M769.09,225.22c-3.19,14.11-5.78,28.39-9.81,42.24-2.15,7.35-.68,12.4,3.87,18,7.88,9.72,15,20.07,22.65,29.95,4.79,6.16,8,6.17,11.94-.13,6.64-10.61,12.79-21.53,19.22-32.27,2-3.38,4.33-6.61,6.49-9.91a183.65,183.65,0,0,1-8.15-24.46c-2.82-11.58-6.68-22.94-13-33.2-9-14.59-15.76-15.46-29.76-3.95C770.24,215.79,770.76,220.78,769.09,225.22Z"/><path class="cls-10" d="M769.09,225.22c4.29-3.79,3.7-8.79,3.43-13.72-3.85,2.14-6.85,4.95-7.52,9.59Z"/><path class="cls-2" d="M852.55,577.27c-8,3.27-15.95,6.47-23.88,9.81-19,8-38.09,15.6-58.63,18.7q5.36,25.17,10.7,50.36a53.25,53.25,0,0,0,1.9,7.66c2.15,5.65,10.82,7.28,14.77,2.72a66.54,66.54,0,0,0,5.55-8.16q22.71-36.08,45.32-72.2C850,583.39,851.14,580.24,852.55,577.27Z"/><path class="cls-11" d="M836.8,373.09c.56-.3,1.64-.72,1.61-.88-.31-1.34-.92-1-1.55.94Z"/><path class="cls-12" d="M872,2280.87c17.33-18.14,34.77-36.18,52-54.44,21.74-23.07,43.28-46.32,64.91-69.49,3.88-6.66,5.38-14,2.72-21.09-2.9-7.78-2.13-15.69-2.95-23.57-1.85-17.71-4.13-35.39-6.6-53-1.83-13.09-1.92-26.29-4.69-39.39a160.41,160.41,0,0,1-3.68-29.36c-.32-16.71-3.23-33-5.51-49.3-2.48-17.64-2.08-35.59-6.54-53.07-2.74-10.78.44-22.65-4.49-33.35,1.54-16.73-4.26-32.71-4.84-49.37-.61-17.69-4.65-35.27-7.19-52.9-11.3-3.68-22.65-7.25-33.91-11.07-7.53-2.56-14.94-5.47-22.4-8.23l.12-.11a39.32,39.32,0,0,0-3,3.22c-24.8,69.74-58.11,135.24-98.55,197.17-4,6.08-7.55,12.4-11.31,18.6.05,10.75,3.33,20.94,6.16,31.07,6.74,24.21,14.48,48.13,21.42,72.28,10.06,34.94,19.61,70,29.67,105,7.51,26.06,15.5,52,23.2,78,1.69,5.7,2.71,11.62,4.65,17.22C864.15,2264.26,864.93,2273.92,872,2280.87Z"/><path class="cls-4" d="M568.3,2097.42c3.66-2.87,1.56-5.91.13-8.79q-11.08-22.37-22.31-44.66c-22.13-44-40-89.75-57-135.86-9.88-26.78-19.35-53.74-28.18-80.89q-20.91-64.32-36.07-130.3c-8.29-36.11-16.33-72.3-23.26-108.69-4.2-22-4.3-45-9.55-66.69-4.11-17-.51-34.6-6.69-51.19-1.75-4.72-.48-10.56-.58-15.88-.15-8-.53-15.74-2.4-23.69-1.94-8.26-1.3-17.15-1.55-25.77-.47-15.9,1.34-31.91-3.63-47.53-1.16-3.64-.33-7.94-.33-11.93,0-19.31-.1-38.63,0-57.94.07-11.92.46-23.65,2.84-35.61,2.43-12.2.85-25.19,1.11-37.83.23-11.26-1.07-22.61,3.18-33.57,1.14-2.95.64-6.58.77-9.9,1.08-29.14,6.13-57.82,10.48-86.56,1.29-8.52.76-9.57-9-10.87-2-.27-4-.34-6-.5-20,1.73-39.19,7.4-58.49,12.38-73.33,18.95-142.71,47.33-207.13,87.42-22.1,13.75-43,29.18-63.35,45.34-5.87,4.65-7.89,10.11-7.63,17.27.86,23.3.39,46.7,2.38,69.9a1233.23,1233.23,0,0,0,18.66,134.43c25.88,130.58,70.33,253.86,143.6,365.8,72.29,110.43,166.35,197.06,283.39,258.34C516.45,2076.59,541.43,2089.21,568.3,2097.42Z"/><path class="cls-13" d="M885.91,1736.32c2.11,0,3-1.16,3-3.22C886.71,1733.08,885.48,1733.94,885.91,1736.32Z"/><path class="cls-14" d="M1493.2,1433.06c-5.87,11.84-11.71,23.69-17.62,35.5-1.66,3.33-1.55,6.27,1.32,8.86,10-8.9,17.31-19.89,23.59-31.6C1496.54,1442.44,1498.63,1435.61,1493.2,1433.06Z"/><path d="M1345.78,1461.63a1.5,1.5,0,0,0,0-3,1.5,1.5,0,0,0,0,3Z"/><path d="M1291.78,1443.63a1.5,1.5,0,0,0,0-3,1.5,1.5,0,0,0,0,3Z"/><path d="M1291.78,1443.63a1.5,1.5,0,0,0,0-3,1.5,1.5,0,0,0,0,3Z"/><path d="M679.84,570.59a1.5,1.5,0,0,0,0-3,1.5,1.5,0,0,0,0,3Z"/></g></g></svg>